SplineFontDB: 3.2
FontName: iconfont
FullName: iconfont
FamilyName: iconfont
Weight: Book
Version: 1.0
ItalicAngle: 0
UnderlinePosition: 10
UnderlineWidth: 0
Ascent: 1000
Descent: 0
InvalidEm: 0
sfntRevision: 0x00010000
LayerCount: 2
Layer: 0 1 "Back" 1
Layer: 1 1 "Fore" 0
XUID: [1021 20 -915504233 14728]
StyleMap: 0x0040
FSType: 0
OS2Version: 4
OS2_WeightWidthSlopeOnly: 0
OS2_UseTypoMetrics: 1
CreationTime: 1673602568
ModificationTime: 1696955988
PfmFamily: 17
TTFWeight: 400
TTFWidth: 5
LineGap: 0
VLineGap: 0
Panose: 2 0 5 3 0 0 0 0 0 0
OS2TypoAscent: 1000
OS2TypoAOffset: 0
OS2TypoDescent: 0
OS2TypoDOffset: 0
OS2TypoLinegap: 90
OS2WinAscent: 1090
OS2WinAOffset: 0
OS2WinDescent: 14
OS2WinDOffset: 0
HheadAscent: 1000
HheadAOffset: 0
HheadDescent: 0
HheadDOffset: 0
OS2SubXSize: 1692
OS2SubYSize: 700
OS2SubXOff: 0
OS2SubYOff: 140
OS2SupXSize: 1692
OS2SupYSize: 700
OS2SupXOff: 0
OS2SupYOff: 480
OS2StrikeYSize: 49
OS2StrikeYPos: 258
OS2Vendor: 'PfEd'
OS2CodePages: 00000001.00000000
OS2UnicodeRanges: 00000000.00000000.00000000.00000000
Lookup: 4 0 1 "'liga' Standard Ligatures in Latin lookup 0" { "'liga' Standard Ligatures in Latin lookup 0 subtable"  } [' RQD' ('DFLT' <'dflt' > 'latn' <'dflt' > ) 'liga' ('DFLT' <'dflt' > 'latn' <'dflt' > ) ]
DEI: 91125
ShortTable: maxp 16
  1
  0
  893
  412
  18
  0
  0
  2
  0
  10
  10
  0
  255
  0
  0
  0
EndShort
LangName: 1033 "" "" "Regular" "iconfont" "" "Version 1.0" "" "" "" "" "Generated by svg2ttf from Fontello project." "http://fontello.com"
Encoding: UnicodeFull
UnicodeInterp: none
NameList: AGL For New Fonts
DisplaySize: -48
AntiAlias: 1
FitToEm: 0
WinInfo: 60249 21 6
BeginChars: 1114113 893

StartChar: achievement_16
Encoding: 59905 59905 1
Width: 1000
GlyphClass: 1
Flags: W
LayerCount: 2
Fore
SplineSet
94 938 m 0,0,1
 94 963 94 963 112 981.5 c 128,-1,2
 130 1000 130 1000 156 1000 c 2,3,-1
 188 1000 l 2,4,5
 246 1000 246 1000 290 962 c 1,6,7
 295 963 295 963 300 963 c 2,8,-1
 550 963 l 2,9,10
 576 963 576 963 594.5 944.5 c 128,-1,11
 613 926 613 926 613 900 c 128,-1,12
 613 874 613 874 594.5 856 c 128,-1,13
 576 838 576 838 550 837 c 2,14,-1
 347 837 l 1,15,16
 355 731 355 731 384 658 c 0,17,18
 417 575 417 575 482 524 c 0,19,20
 490 518 490 518 500 518 c 128,-1,21
 510 518 510 518 518 524 c 0,22,23
 584 577 584 577 617 662 c 0,24,25
 646 737 646 737 654 848 c 0,26,27
 656 889 656 889 677.5 923.5 c 128,-1,28
 699 958 699 958 734.5 979 c 128,-1,29
 770 1000 770 1000 813 1000 c 2,30,-1
 844 1000 l 2,31,32
 870 1000 870 1000 888 981.5 c 128,-1,33
 906 963 906 963 906 937.5 c 128,-1,34
 906 912 906 912 888 893.5 c 128,-1,35
 870 875 870 875 844 875 c 2,36,-1
 813 875 l 2,37,38
 800 875 800 875 789.5 865 c 128,-1,39
 779 855 779 855 778 840 c 0,40,41
 769 696 769 696 725 596 c 1,42,43
 765 597 765 597 803 625 c 0,44,45
 836 649 836 649 856 685 c 0,46,47
 875 719 875 719 875 750 c 0,48,49
 875 776 875 776 893.5 794.5 c 128,-1,50
 912 813 912 813 937.5 812.5 c 128,-1,51
 963 812 963 812 981.5 794 c 128,-1,52
 1000 776 1000 776 1000 750 c 0,53,54
 1000 687 1000 687 965 624 c 0,55,56
 932 564 932 564 877 524 c 0,57,58
 829 489 829 489 774 477 c 0,59,60
 713 464 713 464 654 482 c 1,61,62
 627 451 627 451 596 426 c 0,63,64
 581 414 581 414 563 406 c 1,65,-1
 563 313 l 1,66,67
 596 313 596 313 625 296 c 128,-1,68
 654 279 654 279 670.5 250 c 128,-1,69
 687 221 687 221 687 187 c 2,70,-1
 687 125 l 1,71,72
 713 125 713 125 731.5 106.5 c 128,-1,73
 750 88 750 88 750 62.5 c 128,-1,74
 750 37 750 37 731.5 18.5 c 128,-1,75
 713 0 713 0 687 0 c 2,76,-1
 313 0 l 2,77,78
 287 0 287 0 268.5 18.5 c 128,-1,79
 250 37 250 37 250 62.5 c 128,-1,80
 250 88 250 88 268.5 106.5 c 128,-1,81
 287 125 287 125 313 125 c 1,82,-1
 313 188 l 2,83,84
 313 221 313 221 329.5 250 c 128,-1,85
 346 279 346 279 375 295.5 c 128,-1,86
 404 312 404 312 438 312 c 1,87,-1
 438 406 l 1,88,89
 419 414 419 414 404 426 c 0,90,91
 373 451 373 451 346 482 c 1,92,93
 287 464 287 464 226 477 c 0,94,95
 171 489 171 489 123 524 c 0,96,97
 68 564 68 564 35 624 c 0,98,99
 0 687 0 687 0 750 c 0,100,101
 0 776 0 776 18.5 794.5 c 128,-1,102
 37 813 37 813 62.5 813 c 128,-1,103
 88 813 88 813 106.5 794.5 c 128,-1,104
 125 776 125 776 125 750 c 0,105,106
 125 719 125 719 144 685 c 0,107,108
 164 649 164 649 197 625 c 0,109,110
 235 597 235 597 275 597 c 1,111,112
 231 696 231 696 222 840 c 0,113,114
 221 855 221 855 210.5 865 c 128,-1,115
 200 875 200 875 188 875 c 2,116,-1
 156 875 l 2,117,118
 130 875 130 875 112 893.5 c 128,-1,119
 94 912 94 912 94 938 c 0,0,1
438 188 m 1,120,-1
 438 125 l 1,121,-1
 563 125 l 1,122,-1
 563 188 l 1,123,-1
 438 188 l 1,120,-1
EndSplineSet
EndChar

StartChar: achievement_20
Encoding: 59906 59906 2
Width: 1000
GlyphClass: 1
Flags: W
LayerCount: 2
Fore
SplineSet
150 950 m 256,0,1
 150 971 150 971 164.5 985.5 c 128,-1,2
 179 1000 179 1000 200 1000 c 2,3,-1
 225 1000 l 2,4,5
 255 1000 255 1000 281 987 c 128,-1,6
 307 974 307 974 325 950 c 1,7,-1
 550 950 l 2,8,9
 571 950 571 950 585.5 935.5 c 128,-1,10
 600 921 600 921 600 900 c 128,-1,11
 600 879 600 879 585.5 864.5 c 128,-1,12
 571 850 571 850 550 850 c 2,13,-1
 352 850 l 1,14,15
 359 736 359 736 386 661 c 0,16,17
 418 574 418 574 484 521 c 0,18,19
 491 515 491 515 500 515 c 128,-1,20
 509 515 509 515 516 521 c 0,21,22
 586 577 586 577 618 672 c 0,23,24
 644 751 644 751 649 877 c 0,25,26
 650 910 650 910 667 938.5 c 128,-1,27
 684 967 684 967 712.5 983.5 c 128,-1,28
 741 1000 741 1000 775 1000 c 2,29,-1
 800 1000 l 2,30,31
 821 1000 821 1000 835.5 985.5 c 128,-1,32
 850 971 850 971 850 950 c 128,-1,33
 850 929 850 929 835.5 914.5 c 128,-1,34
 821 900 821 900 800 900 c 2,35,-1
 775 900 l 2,36,37
 764 900 764 900 756.5 892 c 128,-1,38
 749 884 749 884 749 873 c 0,39,40
 746 803 746 803 738 747 c 0,41,42
 727 679 727 679 707 625 c 1,43,44
 730 634 730 634 749 647 c 0,45,46
 782 668 782 668 806 694.5 c 128,-1,47
 830 721 830 721 841 750 c 1,48,-1
 825 750 l 2,49,50
 804 750 804 750 789.5 764.5 c 128,-1,51
 775 779 775 779 775 800 c 128,-1,52
 775 821 775 821 789.5 835.5 c 128,-1,53
 804 850 804 850 825 850 c 2,54,-1
 850 850 l 2,55,56
 870 850 870 850 889 842 c 128,-1,57
 908 834 908 834 922 818.5 c 128,-1,58
 936 803 936 803 942 781.5 c 128,-1,59
 948 760 948 760 942 738 c 0,60,61
 927 683 927 683 888 636 c 0,62,63
 853 594 853 594 803 562 c 0,64,65
 765 538 765 538 722.5 523 c 128,-1,66
 680 508 680 508 639 503 c 1,67,68
 612 469 612 469 578 443 c 0,69,70
 565 432 565 432 550 426 c 1,71,-1
 550 350 l 1,72,-1
 575 350 l 2,73,74
 616 350 616 350 650.5 330 c 128,-1,75
 685 310 685 310 705 275.5 c 128,-1,76
 725 241 725 241 725 200 c 2,77,-1
 725 100 l 1,78,79
 746 100 746 100 760.5 85.5 c 128,-1,80
 775 71 775 71 775 50 c 128,-1,81
 775 29 775 29 760.5 14.5 c 128,-1,82
 746 0 746 0 725 0 c 2,83,-1
 275 0 l 2,84,85
 254 0 254 0 239.5 14.5 c 128,-1,86
 225 29 225 29 225 50 c 128,-1,87
 225 71 225 71 239.5 85.5 c 128,-1,88
 254 100 254 100 275 100 c 1,89,-1
 275 200 l 2,90,91
 275 241 275 241 295 275.5 c 128,-1,92
 315 310 315 310 349.5 330 c 128,-1,93
 384 350 384 350 425 350 c 2,94,-1
 450 350 l 1,95,-1
 450 426 l 1,96,97
 435 432 435 432 421 443 c 0,98,99
 388 469 388 469 361 503 c 1,100,101
 273 515 273 515 198 562 c 0,102,103
 147 594 147 594 112 636 c 0,104,105
 73 683 73 683 58 738 c 0,106,107
 52 760 52 760 58 781.5 c 128,-1,108
 64 803 64 803 78 818.5 c 128,-1,109
 92 834 92 834 111 842 c 128,-1,110
 130 850 130 850 150 850 c 2,111,-1
 175 850 l 2,112,113
 196 850 196 850 210.5 835.5 c 128,-1,114
 225 821 225 821 225 800 c 128,-1,115
 225 779 225 779 210.5 764.5 c 128,-1,116
 196 750 196 750 175 750 c 2,117,-1
 159 750 l 1,118,119
 170 721 170 721 194 694.5 c 128,-1,120
 218 668 218 668 251 647 c 0,121,122
 271 634 271 634 293 625 c 1,123,124
 273 679 273 679 262 747 c 0,125,126
 254 803 254 803 251 873 c 0,127,128
 251 884 251 884 243.5 892 c 128,-1,129
 236 900 236 900 225 900 c 2,130,-1
 200 900 l 2,131,132
 179 900 179 900 164.5 914.5 c 128,-1,133
 150 929 150 929 150 950 c 256,0,1
425 250 m 2,134,135
 404 250 404 250 389.5 235.5 c 128,-1,136
 375 221 375 221 375 200 c 2,137,-1
 375 100 l 1,138,-1
 625 100 l 1,139,-1
 625 200 l 2,140,141
 625 221 625 221 610.5 235.5 c 128,-1,142
 596 250 596 250 575 250 c 2,143,-1
 425 250 l 2,134,135
850 750 m 1,144,145
 850 750 850 750 850 750 c 1,146,-1
 850 750 l 1,144,145
150 750 m 1024,147,-1
EndSplineSet
EndChar

StartChar: achievement_32
Encoding: 59907 59907 3
Width: 1000
GlyphClass: 1
Flags: W
LayerCount: 2
Fore
SplineSet
188 1000 m 2,0,-1
 219 1000 l 2,1,2
 249 1000 249 1000 273 982.5 c 128,-1,3
 297 965 297 965 308 938 c 1,4,-1
 625 938 l 2,5,6
 638 938 638 938 647 928.5 c 128,-1,7
 656 919 656 919 656 906 c 128,-1,8
 656 893 656 893 647 884 c 128,-1,9
 638 875 638 875 625 875 c 2,10,-1
 318 875 l 1,11,12
 329 775 329 775 363 689 c 0,13,14
 399 596 399 596 461 523 c 0,15,16
 484 495 484 495 484 460 c 2,17,-1
 484 438 l 1,18,-1
 516 438 l 1,19,-1
 516 460 l 2,20,21
 516 495 516 495 539 523 c 0,22,23
 606 602 606 602 643 705 c 0,24,25
 678 799 678 799 685 908 c 0,26,27
 688 946 688 946 715.5 973 c 128,-1,28
 743 1000 743 1000 781 1000 c 2,29,-1
 813 1000 l 2,30,31
 825 1000 825 1000 834.5 991 c 128,-1,32
 844 982 844 982 844 969 c 128,-1,33
 844 956 844 956 834.5 947 c 128,-1,34
 825 938 825 938 813 937 c 2,35,-1
 781 937 l 2,36,37
 768 938 768 938 758.5 928 c 128,-1,38
 749 918 749 918 748 904 c 0,39,40
 741 814 741 814 718 732 c 0,41,42
 692 644 692 644 648 568 c 1,43,44
 690 578 690 578 730 602 c 0,45,46
 766 624 766 624 797 656 c 0,47,48
 825 686 825 686 845 721 c 0,49,50
 863 752 863 752 871 781 c 1,51,-1
 797 781 l 2,52,53
 784 781 784 781 775 790.5 c 128,-1,54
 766 800 766 800 766 812.5 c 128,-1,55
 766 825 766 825 775 834.5 c 128,-1,56
 784 844 784 844 797 844 c 2,57,-1
 906 844 l 2,58,59
 919 844 919 844 928.5 834.5 c 128,-1,60
 938 825 938 825 938 813 c 0,61,62
 938 767 938 767 912 713 c 128,-1,63
 886 659 886 659 842 613 c 0,64,65
 795 564 795 564 737 535 c 0,66,67
 672 502 672 502 601 500 c 1,68,-1
 587 483 l 2,69,70
 578 473 578 473 578 460 c 2,71,-1
 578 425 l 1,72,73
 600 412 600 412 612.5 390.5 c 128,-1,74
 625 369 625 369 625 344 c 1,75,76
 664 344 664 344 691.5 316.5 c 128,-1,77
 719 289 719 289 719 250 c 2,78,-1
 719 125 l 2,79,80
 719 112 719 112 709.5 103 c 128,-1,81
 700 94 700 94 687.5 94 c 128,-1,82
 675 94 675 94 665.5 103 c 128,-1,83
 656 112 656 112 656 125 c 2,84,-1
 656 250 l 2,85,86
 656 263 656 263 647 272 c 128,-1,87
 638 281 638 281 625 281 c 2,88,-1
 375 281 l 2,89,90
 362 281 362 281 353 272 c 128,-1,91
 344 263 344 263 344 250 c 2,92,-1
 344 125 l 2,93,94
 344 112 344 112 334.5 103 c 128,-1,95
 325 94 325 94 312.5 94 c 128,-1,96
 300 94 300 94 290.5 103 c 128,-1,97
 281 112 281 112 281 125 c 2,98,-1
 281 250 l 2,99,100
 281 289 281 289 308.5 316.5 c 128,-1,101
 336 344 336 344 375 344 c 1,102,103
 375 369 375 369 387.5 390.5 c 128,-1,104
 400 412 400 412 422 425 c 1,105,-1
 422 460 l 2,106,107
 422 472 422 472 413 483 c 2,108,-1
 399 500 l 1,109,110
 328 502 328 502 263 535 c 0,111,112
 205 564 205 564 158 613 c 0,113,114
 114 659 114 659 88.5 713 c 128,-1,115
 63 767 63 767 63 813 c 0,116,117
 63 825 63 825 72 834.5 c 128,-1,118
 81 844 81 844 94 844 c 2,119,-1
 203 844 l 2,120,121
 216 844 216 844 225 834.5 c 128,-1,122
 234 825 234 825 234 812.5 c 128,-1,123
 234 800 234 800 225 790.5 c 128,-1,124
 216 781 216 781 203 781 c 2,125,-1
 130 781 l 1,126,127
 137 752 137 752 155 721 c 0,128,129
 175 686 175 686 203 656 c 0,130,131
 234 624 234 624 270 602 c 0,132,133
 310 578 310 578 352 568 c 1,134,135
 308 644 308 644 282 732 c 0,136,137
 259 814 259 814 252 904 c 0,138,139
 251 918 251 918 241.5 928 c 128,-1,140
 232 938 232 938 219 938 c 2,141,-1
 188 938 l 2,142,143
 175 938 175 938 165.5 947 c 128,-1,144
 156 956 156 956 156 969 c 128,-1,145
 156 982 156 982 165.5 991 c 128,-1,146
 175 1000 175 1000 188 1000 c 2,0,-1
563 344 m 1,147,148
 562 357 562 357 553 366 c 128,-1,149
 544 375 544 375 531 375 c 2,150,-1
 469 375 l 2,151,152
 456 375 456 375 446.5 366 c 128,-1,153
 437 357 437 357 437 344 c 1,154,-1
 563 344 l 1,147,148
406 219 m 256,155,156
 406 232 406 232 415.5 241 c 128,-1,157
 425 250 425 250 438 250 c 2,158,-1
 563 250 l 2,159,160
 575 250 575 250 584.5 241 c 128,-1,161
 594 232 594 232 594 219 c 128,-1,162
 594 206 594 206 584.5 197 c 128,-1,163
 575 188 575 188 563 188 c 2,164,-1
 438 188 l 2,165,166
 425 188 425 188 415.5 197 c 128,-1,167
 406 206 406 206 406 219 c 256,155,156
250 31 m 256,168,169
 250 44 250 44 259 53 c 128,-1,170
 268 62 268 62 281 62 c 2,171,-1
 719 62 l 2,172,173
 732 63 732 63 741 53.5 c 128,-1,174
 750 44 750 44 750 31 c 128,-1,175
 750 18 750 18 741 9 c 128,-1,176
 732 0 732 0 719 0 c 2,177,-1
 281 0 l 2,178,179
 268 0 268 0 259 9 c 128,-1,180
 250 18 250 18 250 31 c 256,168,169
469 156 m 2,181,182
 456 156 456 156 446.5 147 c 128,-1,183
 437 138 437 138 437.5 125 c 128,-1,184
 438 112 438 112 447 103 c 128,-1,185
 456 94 456 94 469 94 c 2,186,-1
 531 94 l 2,187,188
 544 94 544 94 553.5 103 c 128,-1,189
 563 112 563 112 562.5 125 c 128,-1,190
 562 138 562 138 553 147 c 128,-1,191
 544 156 544 156 531 156 c 2,192,-1
 469 156 l 2,181,182
438 813 m 0,193,194
 438 825 438 825 428.5 834.5 c 128,-1,195
 419 844 419 844 406 844 c 128,-1,196
 393 844 393 844 384 834.5 c 128,-1,197
 375 825 375 825 375 813 c 0,198,199
 375 750 375 750 407 679 c 0,200,201
 437 613 437 613 478 572 c 0,202,203
 487 563 487 563 500 563 c 128,-1,204
 513 563 513 563 522 572 c 128,-1,205
 531 581 531 581 531 594 c 128,-1,206
 531 607 531 607 522 616 c 0,207,208
 489 649 489 649 464 704 c 0,209,210
 438 763 438 763 438 813 c 0,193,194
EndSplineSet
EndChar

StartChar: active-citizen_16
Encoding: 59912 59912 4
Width: 1000
GlyphClass: 1
Flags: W
LayerCount: 2
Fore
SplineSet
563 938 m 2,0,1
 562 963 562 963 544 981.5 c 128,-1,2
 526 1000 526 1000 500 1000 c 128,-1,3
 474 1000 474 1000 455.5 981.5 c 128,-1,4
 437 963 437 963 438 937 c 2,5,-1
 438 594 l 2,6,7
 438 568 438 568 456 549.5 c 128,-1,8
 474 531 474 531 500 531 c 128,-1,9
 526 531 526 531 544.5 549.5 c 128,-1,10
 563 568 563 568 563 594 c 2,11,-1
 563 938 l 2,0,1
656 938 m 0,12,13
 682 937 682 937 700.5 919 c 128,-1,14
 719 901 719 901 719 875 c 2,15,-1
 719 563 l 2,16,17
 719 537 719 537 700.5 518.5 c 128,-1,18
 682 500 682 500 656 500 c 128,-1,19
 630 500 630 500 612 518.5 c 128,-1,20
 594 537 594 537 594 563 c 2,21,-1
 594 875 l 2,22,23
 594 901 594 901 612 919.5 c 128,-1,24
 630 938 630 938 656 938 c 0,12,13
813 813 m 0,25,26
 838 812 838 812 856.5 794 c 128,-1,27
 875 776 875 776 875 750 c 2,28,-1
 875 375 l 2,29,30
 875 273 875 273 824 186 c 0,31,32
 774 101 774 101 689 51 c 0,33,34
 602 0 602 0 500 0 c 128,-1,35
 398 0 398 0 311 51 c 0,36,37
 226 101 226 101 176 186 c 0,38,39
 125 273 125 273 125 375 c 2,40,-1
 125 531 l 2,41,42
 125 542 125 542 119 550 c 2,43,-1
 106 567 l 2,44,45
 92 588 92 588 96 612.5 c 128,-1,46
 100 637 100 637 120 652.5 c 128,-1,47
 140 668 140 668 165 664.5 c 128,-1,48
 190 661 190 661 206 642 c 2,49,-1
 219 625 l 2,50,51
 250 583 250 583 250 531 c 2,52,-1
 250 500 l 1,53,54
 318 500 318 500 375.5 466.5 c 128,-1,55
 433 433 433 433 466.5 375.5 c 128,-1,56
 500 318 500 318 500 250 c 0,57,58
 500 224 500 224 481.5 206 c 128,-1,59
 463 188 463 188 437.5 188 c 128,-1,60
 412 188 412 188 393.5 206 c 128,-1,61
 375 224 375 224 375 250 c 0,62,63
 375 284 375 284 358 312.5 c 128,-1,64
 341 341 341 341 312.5 358 c 128,-1,65
 284 375 284 375 250 375 c 1,66,67
 250 307 250 307 283.5 249.5 c 128,-1,68
 317 192 317 192 374.5 158.5 c 128,-1,69
 432 125 432 125 500 125 c 128,-1,70
 568 125 568 125 625.5 158.5 c 128,-1,71
 683 192 683 192 716.5 249.5 c 128,-1,72
 750 307 750 307 750 375 c 2,73,-1
 750 750 l 2,74,75
 750 776 750 776 768.5 794.5 c 128,-1,76
 787 813 787 813 813 813 c 0,25,26
406 875 m 2,77,78
 406 901 406 901 388 919.5 c 128,-1,79
 370 938 370 938 344 937.5 c 128,-1,80
 318 937 318 937 299.5 919 c 128,-1,81
 281 901 281 901 281 875 c 2,82,-1
 281 625 l 2,83,84
 281 599 281 599 299.5 581 c 128,-1,85
 318 563 318 563 344 562.5 c 128,-1,86
 370 562 370 562 388 580.5 c 128,-1,87
 406 599 406 599 406 625 c 2,88,-1
 406 875 l 2,77,78
EndSplineSet
EndChar

StartChar: active-citizen_32
Encoding: 59913 59913 5
Width: 1000
GlyphClass: 1
Flags: W
LayerCount: 2
Fore
SplineSet
407 936 m 1,0,1
 412 964 412 964 434 982 c 128,-1,2
 456 1000 456 1000 484.5 1000 c 128,-1,3
 513 1000 513 1000 534.5 982 c 128,-1,4
 556 964 556 964 561 936 c 1,5,6
 594 943 594 943 621.5 924.5 c 128,-1,7
 649 906 649 906 655 873 c 1,8,9
 672 877 672 877 689.5 873 c 128,-1,10
 707 869 707 869 721 858 c 128,-1,11
 735 847 735 847 742.5 831 c 128,-1,12
 750 815 750 815 750 797 c 2,13,-1
 750 422 l 2,14,15
 750 366 750 366 727.5 315.5 c 128,-1,16
 705 265 705 265 664.5 227.5 c 128,-1,17
 624 190 624 190 573 172 c 0,18,19
 565 169 565 169 556.5 170 c 128,-1,20
 548 171 548 171 541.5 176.5 c 128,-1,21
 535 182 535 182 532 190 c 128,-1,22
 529 198 529 198 531 206.5 c 128,-1,23
 533 215 533 215 538.5 221.5 c 128,-1,24
 544 228 544 228 552 231 c 0,25,26
 612 252 612 252 650 304.5 c 128,-1,27
 688 357 688 357 688 422 c 2,28,-1
 688 797 l 2,29,30
 688 803 688 803 683 807.5 c 128,-1,31
 678 812 678 812 671.5 812 c 128,-1,32
 665 812 665 812 660.5 807.5 c 128,-1,33
 656 803 656 803 656 797 c 2,34,-1
 656 563 l 2,35,36
 656 550 656 550 647 540.5 c 128,-1,37
 638 531 638 531 625 531 c 128,-1,38
 612 531 612 531 603 540.5 c 128,-1,39
 594 550 594 550 594 562 c 2,40,-1
 594 859 l 2,41,42
 594 866 594 866 589.5 870.5 c 128,-1,43
 585 875 585 875 578.5 875 c 128,-1,44
 572 875 572 875 567.5 870.5 c 128,-1,45
 563 866 563 866 563 859 c 2,46,-1
 563 594 l 2,47,48
 562 581 562 581 553 571.5 c 128,-1,49
 544 562 544 562 531 562 c 128,-1,50
 518 562 518 562 509 571.5 c 128,-1,51
 500 581 500 581 500 594 c 2,52,-1
 500 922 l 2,53,54
 500 928 500 928 495.5 932.5 c 128,-1,55
 491 937 491 937 484.5 937.5 c 128,-1,56
 478 938 478 938 473.5 933 c 128,-1,57
 469 928 469 928 469 922 c 2,58,-1
 469 625 l 2,59,60
 469 612 469 612 459.5 603 c 128,-1,61
 450 594 450 594 437.5 594 c 128,-1,62
 425 594 425 594 415.5 603 c 128,-1,63
 406 612 406 612 406 625 c 2,64,-1
 406 859 l 2,65,66
 406 866 406 866 401.5 870.5 c 128,-1,67
 397 875 397 875 390.5 875 c 128,-1,68
 384 875 384 875 379.5 870.5 c 128,-1,69
 375 866 375 866 375 859 c 2,70,-1
 375 766 l 2,71,72
 375 753 375 753 366 743.5 c 128,-1,73
 357 734 357 734 344 734 c 128,-1,74
 331 734 331 734 322 743.5 c 128,-1,75
 313 753 313 753 313 766 c 2,76,-1
 313 859 l 2,77,78
 312 877 312 877 320 893 c 128,-1,79
 328 909 328 909 342 920 c 128,-1,80
 356 931 356 931 373 935.5 c 128,-1,81
 390 940 390 940 407 936 c 1,0,1
281 680 m 1,82,-1
 281 422 l 2,83,84
 281 357 281 357 319 304.5 c 128,-1,85
 357 252 357 252 417 231 c 0,86,87
 429 226 429 226 434.5 214.5 c 128,-1,88
 440 203 440 203 435.5 190.5 c 128,-1,89
 431 178 431 178 419.5 172.5 c 128,-1,90
 408 167 408 167 395 172 c 128,-1,91
 382 177 382 177 369 183 c 1,92,-1
 343 26 l 2,93,94
 341 13 341 13 330.5 5.5 c 128,-1,95
 320 -2 320 -2 307.5 0.5 c 128,-1,96
 295 3 295 3 287.5 13.5 c 128,-1,97
 280 24 280 24 282 36 c 2,98,-1
 312 220 l 1,99,100
 269 258 269 258 244 310.5 c 128,-1,101
 219 363 219 363 219 422 c 2,102,-1
 219 688 l 2,103,104
 219 715 219 715 238 732 c 0,105,106
 249 742 249 742 263 745 c 128,-1,107
 277 748 277 748 291 744 c 0,108,109
 328 731 328 731 351.5 698.5 c 128,-1,110
 375 666 375 666 375 625 c 2,111,-1
 375 531 l 2,112,113
 376 528 376 528 382 526 c 0,114,115
 434 513 434 513 467 471 c 128,-1,116
 500 429 500 429 500 375 c 0,117,118
 500 362 500 362 491 353 c 128,-1,119
 482 344 482 344 469 344 c 128,-1,120
 456 344 456 344 446.5 353 c 128,-1,121
 437 362 437 362 437 375 c 0,122,123
 437 407 437 407 417.5 432.5 c 128,-1,124
 398 458 398 458 367 466 c 0,125,126
 345 471 345 471 330 488 c 0,127,128
 313 506 313 506 313 531 c 2,129,-1
 313 625 l 2,130,131
 313 643 313 643 304.5 657.5 c 128,-1,132
 296 672 296 672 281 680 c 1,82,-1
633 171 m 0,133,134
 620 169 620 169 612.5 158.5 c 128,-1,135
 605 148 605 148 607 136 c 2,136,-1
 625 26 l 2,137,138
 628 13 628 13 638.5 5.5 c 128,-1,139
 649 -2 649 -2 661.5 0.5 c 128,-1,140
 674 3 674 3 681.5 13.5 c 128,-1,141
 689 24 689 24 687 36 c 2,142,-1
 669 146 l 2,143,144
 667 159 667 159 656.5 166.5 c 128,-1,145
 646 174 646 174 633 171 c 0,133,134
EndSplineSet
EndChar

StartChar: add-directory_16
Encoding: 59914 59914 6
Width: 1000
GlyphClass: 1
Flags: W
LayerCount: 2
Fore
SplineSet
250 1000 m 2,0,1
 182 1000 182 1000 124.5 966.5 c 128,-1,2
 67 933 67 933 33.5 875.5 c 128,-1,3
 0 818 0 818 0 750 c 2,4,-1
 0 250 l 2,5,6
 0 182 0 182 33.5 124.5 c 128,-1,7
 67 67 67 67 124.5 33.5 c 128,-1,8
 182 0 182 0 250 0 c 2,9,-1
 438 0 l 2,10,11
 463 0 463 0 481.5 18.5 c 128,-1,12
 500 37 500 37 500 62.5 c 128,-1,13
 500 88 500 88 481.5 106.5 c 128,-1,14
 463 125 463 125 437 125 c 2,15,-1
 250 125 l 2,16,17
 216 125 216 125 187.5 142 c 128,-1,18
 159 159 159 159 142 187.5 c 128,-1,19
 125 216 125 216 125 250 c 2,20,-1
 125 750 l 2,21,22
 125 784 125 784 142 812.5 c 128,-1,23
 159 841 159 841 187.5 858 c 128,-1,24
 216 875 216 875 250 875 c 2,25,-1
 750 875 l 2,26,27
 784 875 784 875 812.5 858 c 128,-1,28
 841 841 841 841 858 812.5 c 128,-1,29
 875 784 875 784 875 750 c 2,30,-1
 875 563 l 2,31,32
 875 537 875 537 893.5 518.5 c 128,-1,33
 912 500 912 500 937.5 500 c 128,-1,34
 963 500 963 500 981.5 518.5 c 128,-1,35
 1000 537 1000 537 1000 563 c 2,36,-1
 1000 750 l 2,37,38
 1000 818 1000 818 966.5 875.5 c 128,-1,39
 933 933 933 933 875.5 966.5 c 128,-1,40
 818 1000 818 1000 750 1000 c 2,41,-1
 250 1000 l 2,0,1
813 438 m 2,42,43
 812 463 812 463 794 481.5 c 128,-1,44
 776 500 776 500 750 500 c 128,-1,45
 724 500 724 500 705.5 481.5 c 128,-1,46
 687 463 687 463 687 437 c 2,47,-1
 687 313 l 1,48,-1
 563 313 l 2,49,50
 537 313 537 313 518.5 294.5 c 128,-1,51
 500 276 500 276 500 250 c 128,-1,52
 500 224 500 224 518.5 206 c 128,-1,53
 537 188 537 188 563 188 c 2,54,-1
 688 188 l 1,55,-1
 688 63 l 2,56,57
 688 37 688 37 706 18.5 c 128,-1,58
 724 0 724 0 750 0 c 128,-1,59
 776 0 776 0 794.5 18.5 c 128,-1,60
 813 37 813 37 813 62 c 2,61,-1
 813 188 l 1,62,-1
 938 188 l 2,63,64
 963 188 963 188 981.5 206 c 128,-1,65
 1000 224 1000 224 1000 250 c 128,-1,66
 1000 276 1000 276 981.5 294.5 c 128,-1,67
 963 313 963 313 937 313 c 2,68,-1
 813 313 l 1,69,-1
 813 438 l 2,42,43
EndSplineSet
EndChar

StartChar: add-directory_20
Encoding: 59915 59915 7
Width: 1000
GlyphClass: 1
Flags: W
LayerCount: 2
Fore
SplineSet
200 1000 m 2,0,1
 146 1000 146 1000 100 973 c 128,-1,2
 54 946 54 946 27 900 c 128,-1,3
 0 854 0 854 0 800 c 2,4,-1
 0 200 l 2,5,6
 0 146 0 146 27 100 c 128,-1,7
 54 54 54 54 100 27 c 128,-1,8
 146 0 146 0 200 0 c 2,9,-1
 500 0 l 2,10,11
 521 0 521 0 535.5 14.5 c 128,-1,12
 550 29 550 29 550 50 c 128,-1,13
 550 71 550 71 535.5 85.5 c 128,-1,14
 521 100 521 100 500 100 c 2,15,-1
 200 100 l 2,16,17
 173 100 173 100 150 113.5 c 128,-1,18
 127 127 127 127 113.5 150 c 128,-1,19
 100 173 100 173 100 200 c 2,20,-1
 100 800 l 2,21,22
 100 827 100 827 113.5 850 c 128,-1,23
 127 873 127 873 150 886.5 c 128,-1,24
 173 900 173 900 200 900 c 2,25,-1
 800 900 l 2,26,27
 827 900 827 900 850 886.5 c 128,-1,28
 873 873 873 873 886.5 850 c 128,-1,29
 900 827 900 827 900 800 c 2,30,-1
 900 500 l 2,31,32
 900 479 900 479 914.5 464.5 c 128,-1,33
 929 450 929 450 950 450 c 128,-1,34
 971 450 971 450 985.5 464.5 c 128,-1,35
 1000 479 1000 479 1000 500 c 2,36,-1
 1000 800 l 2,37,38
 1000 854 1000 854 973 900 c 128,-1,39
 946 946 946 946 900 973 c 128,-1,40
 854 1000 854 1000 800 1000 c 2,41,-1
 200 1000 l 2,0,1
550 300 m 2,42,43
 529 300 529 300 514.5 285.5 c 128,-1,44
 500 271 500 271 500 250 c 128,-1,45
 500 229 500 229 514.5 214.5 c 128,-1,46
 529 200 529 200 550 200 c 2,47,-1
 700 200 l 1,48,-1
 700 50 l 2,49,50
 700 29 700 29 714.5 14.5 c 128,-1,51
 729 0 729 0 750 0 c 128,-1,52
 771 0 771 0 785.5 14.5 c 128,-1,53
 800 29 800 29 800 50 c 2,54,-1
 800 200 l 1,55,-1
 950 200 l 2,56,57
 971 200 971 200 985.5 214.5 c 128,-1,58
 1000 229 1000 229 1000 250 c 128,-1,59
 1000 271 1000 271 985.5 285.5 c 128,-1,60
 971 300 971 300 950 300 c 2,61,-1
 800 300 l 1,62,-1
 800 450 l 2,63,64
 800 471 800 471 785.5 485.5 c 128,-1,65
 771 500 771 500 750 500 c 128,-1,66
 729 500 729 500 714.5 485.5 c 128,-1,67
 700 471 700 471 700 450 c 2,68,-1
 700 300 l 1,69,-1
 550 300 l 2,42,43
EndSplineSet
EndChar

StartChar: add-directory_32
Encoding: 59916 59916 8
Width: 1000
GlyphClass: 1
Flags: W
LayerCount: 2
Fore
SplineSet
188 1000 m 2,0,1
 137 1000 137 1000 93.5 975 c 128,-1,2
 50 950 50 950 25 906.5 c 128,-1,3
 0 863 0 863 0 813 c 2,4,-1
 0 188 l 2,5,6
 0 137 0 137 25 93.5 c 128,-1,7
 50 50 50 50 93.5 25 c 128,-1,8
 137 0 137 0 187 0 c 2,9,-1
 531 0 l 2,10,11
 544 0 544 0 553.5 9 c 128,-1,12
 563 18 563 18 563 31 c 128,-1,13
 563 44 563 44 553.5 53 c 128,-1,14
 544 62 544 62 531 62 c 2,15,-1
 188 62 l 2,16,17
 154 63 154 63 125 79.5 c 128,-1,18
 96 96 96 96 79 125 c 128,-1,19
 62 154 62 154 62 187 c 2,20,-1
 62 813 l 2,21,22
 63 846 63 846 79.5 875 c 128,-1,23
 96 904 96 904 125 920.5 c 128,-1,24
 154 937 154 937 187 937 c 2,25,-1
 813 937 l 2,26,27
 846 937 846 937 875 920.5 c 128,-1,28
 904 904 904 904 920.5 875 c 128,-1,29
 937 846 937 846 937 812 c 2,30,-1
 937 484 l 2,31,32
 938 471 938 471 947 462 c 128,-1,33
 956 453 956 453 969 453 c 128,-1,34
 982 453 982 453 991 462 c 128,-1,35
 1000 471 1000 471 1000 484 c 2,36,-1
 1000 813 l 2,37,38
 1000 863 1000 863 975 906.5 c 128,-1,39
 950 950 950 950 906.5 975 c 128,-1,40
 863 1000 863 1000 813 1000 c 2,41,-1
 188 1000 l 2,0,1
781 469 m 2,42,43
 781 482 781 482 772 491 c 128,-1,44
 763 500 763 500 750 500 c 128,-1,45
 737 500 737 500 728 491 c 128,-1,46
 719 482 719 482 719 469 c 2,47,-1
 719 281 l 1,48,-1
 531 281 l 2,49,50
 518 281 518 281 509 272 c 128,-1,51
 500 263 500 263 500 250 c 128,-1,52
 500 237 500 237 509 228 c 128,-1,53
 518 219 518 219 531 219 c 2,54,-1
 719 219 l 1,55,-1
 719 31 l 2,56,57
 719 18 719 18 728 9 c 128,-1,58
 737 0 737 0 750 0 c 128,-1,59
 763 0 763 0 772 9 c 128,-1,60
 781 18 781 18 781 31 c 2,61,-1
 781 219 l 1,62,-1
 969 219 l 2,63,64
 982 219 982 219 991 228 c 128,-1,65
 1000 237 1000 237 1000 250 c 128,-1,66
 1000 263 1000 263 991 272 c 128,-1,67
 982 281 982 281 969 281 c 2,68,-1
 781 281 l 1,69,-1
 781 469 l 2,42,43
EndSplineSet
EndChar

StartChar: add_16
Encoding: 59908 59908 9
Width: 1000
GlyphClass: 1
Flags: W
LayerCount: 2
Fore
SplineSet
438 563 m 1,0,-1
 438 875 l 2,1,2
 438 901 438 901 456 919.5 c 128,-1,3
 474 938 474 938 500 937.5 c 128,-1,4
 526 937 526 937 544.5 919 c 128,-1,5
 563 901 563 901 563 875 c 2,6,-1
 563 563 l 1,7,-1
 875 563 l 2,8,9
 901 562 901 562 919.5 544 c 128,-1,10
 938 526 938 526 937.5 500 c 128,-1,11
 937 474 937 474 919 455.5 c 128,-1,12
 901 437 901 437 875 438 c 2,13,-1
 563 438 l 1,14,-1
 563 125 l 2,15,16
 563 99 563 99 544.5 81 c 128,-1,17
 526 63 526 63 500 63 c 128,-1,18
 474 63 474 63 455.5 81 c 128,-1,19
 437 99 437 99 438 125 c 2,20,-1
 438 438 l 1,21,-1
 125 438 l 2,22,23
 99 437 99 437 81 455.5 c 128,-1,24
 63 474 63 474 63 500 c 128,-1,25
 63 526 63 526 81 544.5 c 128,-1,26
 99 563 99 563 125 563 c 2,27,-1
 438 563 l 1,0,-1
EndSplineSet
EndChar

StartChar: add_20
Encoding: 59909 59909 10
Width: 1000
GlyphClass: 1
Flags: W
LayerCount: 2
Fore
SplineSet
450 550 m 1,0,-1
 450 900 l 2,1,2
 450 921 450 921 464.5 935.5 c 128,-1,3
 479 950 479 950 500 950 c 128,-1,4
 521 950 521 950 535.5 935.5 c 128,-1,5
 550 921 550 921 550 900 c 2,6,-1
 550 550 l 1,7,-1
 900 550 l 2,8,9
 921 550 921 550 935.5 535.5 c 128,-1,10
 950 521 950 521 950 500 c 128,-1,11
 950 479 950 479 935.5 464.5 c 128,-1,12
 921 450 921 450 900 450 c 2,13,-1
 550 450 l 1,14,-1
 550 100 l 2,15,16
 550 79 550 79 535.5 64.5 c 128,-1,17
 521 50 521 50 500 50 c 128,-1,18
 479 50 479 50 464.5 64.5 c 128,-1,19
 450 79 450 79 450 100 c 2,20,-1
 450 450 l 1,21,-1
 100 450 l 2,22,23
 79 450 79 450 64.5 464.5 c 128,-1,24
 50 479 50 479 50 500 c 128,-1,25
 50 521 50 521 64.5 535.5 c 128,-1,26
 79 550 79 550 100 550 c 2,27,-1
 450 550 l 1,0,-1
EndSplineSet
EndChar

StartChar: add_32
Encoding: 59910 59910 11
Width: 1000
GlyphClass: 1
Flags: W
LayerCount: 2
Fore
SplineSet
531 906 m 2,0,1
 531 919 531 919 522 928.5 c 128,-1,2
 513 938 513 938 500 938 c 128,-1,3
 487 938 487 938 478 928.5 c 128,-1,4
 469 919 469 919 469 906 c 2,5,-1
 469 531 l 1,6,-1
 94 531 l 2,7,8
 81 531 81 531 72 522 c 128,-1,9
 63 513 63 513 63 500 c 128,-1,10
 63 487 63 487 72 478 c 128,-1,11
 81 469 81 469 94 469 c 2,12,-1
 469 469 l 1,13,-1
 469 94 l 2,14,15
 469 81 469 81 478 72 c 128,-1,16
 487 63 487 63 500 63 c 128,-1,17
 513 63 513 63 522 72 c 128,-1,18
 531 81 531 81 531 94 c 2,19,-1
 531 469 l 1,20,-1
 906 469 l 2,21,22
 919 469 919 469 928.5 478 c 128,-1,23
 938 487 938 487 938 500 c 128,-1,24
 938 513 938 513 928.5 522 c 128,-1,25
 919 531 919 531 906 531 c 2,26,-1
 531 531 l 1,27,-1
 531 906 l 2,0,1
EndSplineSet
EndChar

StartChar: add_56
Encoding: 59911 59911 12
Width: 1000
GlyphClass: 1
Flags: W
LayerCount: 2
Fore
SplineSet
500 929 m 256,0,1
 511 929 511 929 519 921 c 128,-1,2
 527 913 527 913 527 902 c 2,3,-1
 527 536 l 1,4,-1
 902 536 l 2,5,6
 913 536 913 536 921 528 c 128,-1,7
 929 520 929 520 929 509 c 128,-1,8
 929 498 929 498 921 490 c 128,-1,9
 913 482 913 482 902 482 c 2,10,-1
 527 482 l 1,11,-1
 527 98 l 2,12,13
 527 87 527 87 519 79 c 128,-1,14
 511 71 511 71 500 71 c 128,-1,15
 489 71 489 71 481 79 c 128,-1,16
 473 87 473 87 473 98 c 2,17,-1
 473 482 l 1,18,-1
 98 482 l 2,19,20
 87 482 87 482 79 490 c 128,-1,21
 71 498 71 498 71 509 c 128,-1,22
 71 520 71 520 79 528 c 128,-1,23
 87 536 87 536 98 536 c 2,24,-1
 473 536 l 1,25,-1
 473 902 l 2,26,27
 473 913 473 913 481 921 c 128,-1,28
 489 929 489 929 500 929 c 256,0,1
EndSplineSet
EndChar

StartChar: advance_16
Encoding: 59966 59966 13
Width: 1000
GlyphClass: 1
Flags: W
LayerCount: 2
Fore
SplineSet
441 1000 m 2,0,1
 399 1000 399 1000 361 982 c 128,-1,2
 323 964 323 964 296 931.5 c 128,-1,3
 269 899 269 899 259 858 c 2,4,-1
 255 842 l 2,5,6
 249 819 249 819 250 797 c 0,7,8
 251 658 251 658 273 578 c 0,9,10
 287 528 287 528 309 488 c 0,11,12
 311 485 311 485 312 481 c 2,13,-1
 312 479 l 1,14,-1
 312 447 l 1,15,-1
 127 365 l 2,16,17
 85 346 85 346 56.5 311 c 128,-1,18
 28 276 28 276 19 231 c 2,19,-1
 3 150 l 2,20,21
 -7 101 -7 101 19 60 c 0,22,23
 43 20 43 20 88 6 c 0,24,25
 134 -9 134 -9 180 13 c 2,26,-1
 323 82 l 1,27,-1
 454 14 l 2,28,29
 484 -2 484 -2 519 0 c 128,-1,30
 554 2 554 2 582 22 c 2,31,-1
 820 187 l 1,32,-1
 826 177 l 2,33,34
 835 162 835 162 850.5 154 c 128,-1,35
 866 146 866 146 883.5 147.5 c 128,-1,36
 901 149 901 149 915 159 c 128,-1,37
 929 169 929 169 936 185 c 2,38,-1
 996 321 l 2,39,40
 1002 337 1002 337 999.5 353 c 128,-1,41
 997 369 997 369 987 382.5 c 128,-1,42
 977 396 977 396 961.5 402 c 128,-1,43
 946 408 946 408 929 406 c 2,44,-1
 797 391 l 2,45,46
 781 389 781 389 767.5 380 c 128,-1,47
 754 371 754 371 747 356.5 c 128,-1,48
 740 342 740 342 741 325.5 c 128,-1,49
 742 309 742 309 751 296 c 2,50,-1
 753 292 l 1,51,-1
 511 125 l 1,52,-1
 380 193 l 2,53,54
 354 206 354 206 324.5 206.5 c 128,-1,55
 295 207 295 207 268 194 c 2,56,-1
 125 125 l 1,57,-1
 142 206 l 2,58,59
 145 221 145 221 154.5 233 c 128,-1,60
 164 245 164 245 178 251 c 2,61,-1
 363 333 l 2,62,63
 397 348 397 348 417 379 c 128,-1,64
 437 410 437 410 437 447 c 2,65,-1
 437 479 l 2,66,67
 437 514 437 514 418 548 c 0,68,69
 403 578 403 578 394 610 c 0,70,71
 384 648 384 648 379 712 c 0,72,73
 375 754 375 754 375 799 c 0,74,75
 375 805 375 805 377 812 c 2,76,-1
 380 828 l 2,77,78
 386 849 386 849 403 862 c 128,-1,79
 420 875 420 875 441 875 c 2,80,-1
 558 875 l 2,81,82
 580 875 580 875 597 862 c 128,-1,83
 614 849 614 849 619 828 c 2,84,-1
 623 811 l 2,85,86
 625 805 625 805 625 799 c 0,87,88
 625 755 625 755 622 712 c 0,89,90
 618 648 618 648 608 611 c 0,91,92
 602 588 602 588 578 545 c 0,93,94
 562 516 562 516 562 483 c 2,95,-1
 562 407 l 2,96,97
 562 381 562 381 580.5 362.5 c 128,-1,98
 599 344 599 344 625 344 c 128,-1,99
 651 344 651 344 669 362.5 c 128,-1,100
 687 381 687 381 687 407 c 2,101,-1
 687 483 l 1,102,-1
 688 485 l 2,103,104
 718 540 718 540 728 578 c 0,105,106
 742 627 742 627 747 704 c 0,107,108
 750 750 750 750 750 799 c 0,109,110
 750 820 750 820 745 841 c 2,111,-1
 740 858 l 2,112,113
 730 899 730 899 703.5 931.5 c 128,-1,114
 677 964 677 964 639 982 c 128,-1,115
 601 1000 601 1000 559 1000 c 2,116,-1
 441 1000 l 2,0,1
EndSplineSet
EndChar

StartChar: agreement_16
Encoding: 59967 59967 14
Width: 1000
GlyphClass: 1
Flags: W
LayerCount: 2
Fore
SplineSet
670 977 m 0,0,1
 686 997 686 997 712 999.5 c 128,-1,2
 738 1002 738 1002 758 986 c 2,3,-1
 844 918 l 2,4,5
 888 882 888 882 912.5 830.5 c 128,-1,6
 937 779 937 779 937 722 c 2,7,-1
 937 125 l 2,8,9
 937 91 937 91 920.5 62.5 c 128,-1,10
 904 34 904 34 875 17 c 128,-1,11
 846 0 846 0 812 0 c 2,12,-1
 188 0 l 2,13,14
 154 0 154 0 125 17 c 128,-1,15
 96 34 96 34 79 62.5 c 128,-1,16
 62 91 62 91 62 125 c 2,17,-1
 62 875 l 2,18,19
 62 909 62 909 79 937.5 c 128,-1,20
 96 966 96 966 125 983 c 128,-1,21
 154 1000 154 1000 187 1000 c 2,22,-1
 500 1000 l 2,23,24
 534 1000 534 1000 562.5 983 c 128,-1,25
 591 966 591 966 608 937.5 c 128,-1,26
 625 909 625 909 625 875 c 2,27,-1
 625 781 l 1,28,-1
 719 781 l 2,29,30
 745 781 745 781 763 763 c 128,-1,31
 781 745 781 745 781 719 c 128,-1,32
 781 693 781 693 763 674.5 c 128,-1,33
 745 656 745 656 719 656 c 2,34,-1
 625 656 l 2,35,36
 591 656 591 656 562.5 673 c 128,-1,37
 534 690 534 690 517 718.5 c 128,-1,38
 500 747 500 747 500 781 c 2,39,-1
 500 875 l 1,40,-1
 188 875 l 1,41,-1
 188 125 l 1,42,-1
 813 125 l 1,43,-1
 813 722 l 2,44,45
 813 751 813 751 800.5 776.5 c 128,-1,46
 788 802 788 802 766 820 c 2,47,-1
 680 889 l 2,48,49
 660 905 660 905 657 930.5 c 128,-1,50
 654 956 654 956 670 977 c 0,0,1
697 547 m 0,51,52
 717 531 717 531 719 505 c 128,-1,53
 721 479 721 479 704 459 c 2,54,-1
 516 241 l 2,55,56
 498 220 498 220 471 219 c 128,-1,57
 444 218 444 218 425 237 c 2,58,-1
 300 362 l 2,59,60
 287 374 287 374 282.5 390 c 128,-1,61
 278 406 278 406 282.5 422.5 c 128,-1,62
 287 439 287 439 299 451 c 128,-1,63
 311 463 311 463 327.5 467.5 c 128,-1,64
 344 472 344 472 360 467.5 c 128,-1,65
 376 463 376 463 388 450 c 2,66,-1
 465 373 l 1,67,-1
 609 541 l 2,68,69
 626 560 626 560 651.5 562 c 128,-1,70
 677 564 677 564 697 547 c 0,51,52
EndSplineSet
EndChar

StartChar: agreement_20
Encoding: 59968 59968 15
Width: 1000
GlyphClass: 1
Flags: W
LayerCount: 2
Fore
SplineSet
825 150 m 2,0,1
 825 129 825 129 810.5 114.5 c 128,-1,2
 796 100 796 100 775 100 c 2,3,-1
 225 100 l 2,4,5
 204 100 204 100 189.5 114.5 c 128,-1,6
 175 129 175 129 175 150 c 2,7,-1
 175 850 l 2,8,9
 175 871 175 871 189.5 885.5 c 128,-1,10
 204 900 204 900 225 900 c 2,11,-1
 450 900 l 2,12,13
 471 900 471 900 485.5 885.5 c 128,-1,14
 500 871 500 871 500 850 c 2,15,-1
 500 750 l 2,16,17
 500 723 500 723 513.5 700 c 128,-1,18
 527 677 527 677 550 663.5 c 128,-1,19
 573 650 573 650 600 650 c 2,20,-1
 725 650 l 2,21,22
 746 650 746 650 760.5 664.5 c 128,-1,23
 775 679 775 679 775 700 c 128,-1,24
 775 721 775 721 760.5 735.5 c 128,-1,25
 746 750 746 750 725 750 c 2,26,-1
 600 750 l 1,27,-1
 600 850 l 2,28,29
 600 891 600 891 580 925.5 c 128,-1,30
 560 960 560 960 525.5 980 c 128,-1,31
 491 1000 491 1000 450 1000 c 2,32,-1
 225 1000 l 2,33,34
 184 1000 184 1000 149.5 980 c 128,-1,35
 115 960 115 960 95 925.5 c 128,-1,36
 75 891 75 891 75 850 c 2,37,-1
 75 150 l 2,38,39
 75 109 75 109 95 74.5 c 128,-1,40
 115 40 115 40 149.5 20 c 128,-1,41
 184 0 184 0 225 0 c 2,42,-1
 775 0 l 2,43,44
 816 0 816 0 850.5 20 c 128,-1,45
 885 40 885 40 905 74.5 c 128,-1,46
 925 109 925 109 925 150 c 2,47,-1
 925 707 l 2,48,49
 925 750 925 750 907 789.5 c 128,-1,50
 889 829 889 829 857 857 c 2,51,-1
 708 988 l 2,52,53
 692 1001 692 1001 671.5 999.5 c 128,-1,54
 651 998 651 998 637.5 982.5 c 128,-1,55
 624 967 624 967 625.5 946.5 c 128,-1,56
 627 926 627 926 642 912 c 2,57,-1
 791 782 l 2,58,59
 807 768 807 768 816 748.5 c 128,-1,60
 825 729 825 729 825 707 c 2,61,-1
 825 150 l 2,0,1
683 537 m 0,62,63
 699 523 699 523 700 502.5 c 128,-1,64
 701 482 701 482 687 467 c 2,65,-1
 507 267 l 2,66,67
 493 251 493 251 472 250 c 128,-1,68
 451 249 451 249 436 264 c 2,69,-1
 316 378 l 2,70,71
 306 387 306 387 302 400 c 128,-1,72
 298 413 298 413 301.5 426 c 128,-1,73
 305 439 305 439 314 448.5 c 128,-1,74
 323 458 323 458 336 462 c 128,-1,75
 349 466 349 466 362 463 c 128,-1,76
 375 460 375 460 384 451 c 2,77,-1
 467 372 l 1,78,-1
 613 533 l 2,79,80
 627 549 627 549 647.5 550 c 128,-1,81
 668 551 668 551 683 537 c 0,62,63
EndSplineSet
EndChar

StartChar: agreement_32
Encoding: 59969 59969 16
Width: 1000
GlyphClass: 1
Flags: W
LayerCount: 2
Fore
SplineSet
844 125 m 2,0,1
 844 99 844 99 825.5 81 c 128,-1,2
 807 63 807 63 781 63 c 2,3,-1
 219 63 l 2,4,5
 193 62 193 62 174.5 80.5 c 128,-1,6
 156 99 156 99 156 125 c 2,7,-1
 156 875 l 2,8,9
 156 901 156 901 174.5 919.5 c 128,-1,10
 193 938 193 938 219 938 c 2,11,-1
 547 938 l 2,12,13
 560 938 560 938 569 928.5 c 128,-1,14
 578 919 578 919 578 906 c 2,15,-1
 578 781 l 2,16,17
 578 755 578 755 596.5 737 c 128,-1,18
 615 719 615 719 641 719 c 2,19,-1
 781 719 l 2,20,21
 794 719 794 719 803.5 728 c 128,-1,22
 813 737 813 737 813 750 c 128,-1,23
 813 763 813 763 803.5 772 c 128,-1,24
 794 781 794 781 781 781 c 2,25,-1
 641 781 l 1,26,-1
 641 906 l 2,27,28
 641 945 641 945 613.5 972.5 c 128,-1,29
 586 1000 586 1000 547 1000 c 2,30,-1
 219 1000 l 2,31,32
 185 1000 185 1000 156 983 c 128,-1,33
 127 966 127 966 110.5 937.5 c 128,-1,34
 94 909 94 909 94 875 c 2,35,-1
 94 125 l 2,36,37
 94 91 94 91 110.5 62.5 c 128,-1,38
 127 34 127 34 156 17 c 128,-1,39
 185 0 185 0 219 0 c 2,40,-1
 781 0 l 2,41,42
 815 0 815 0 844 17 c 128,-1,43
 873 34 873 34 889.5 62.5 c 128,-1,44
 906 91 906 91 906 125 c 2,45,-1
 906 714 l 2,46,47
 906 760 906 760 887.5 802.5 c 128,-1,48
 869 845 869 845 835 876 c 2,49,-1
 709 992 l 2,50,51
 699 1001 699 1001 686 1000 c 128,-1,52
 673 999 673 999 664.5 989.5 c 128,-1,53
 656 980 656 980 656.5 967.5 c 128,-1,54
 657 955 657 955 666 946 c 2,55,-1
 793 830 l 2,56,57
 817 807 817 807 830.5 777 c 128,-1,58
 844 747 844 747 844 714 c 2,59,-1
 844 125 l 2,0,1
677 524 m 0,60,61
 686 515 686 515 687 502.5 c 128,-1,62
 688 490 688 490 680 480 c 2,63,-1
 492 261 l 2,64,65
 484 251 484 251 470 250 c 128,-1,66
 456 249 456 249 447 259 c 2,67,-1
 322 384 l 2,68,69
 316 390 316 390 313.5 398 c 128,-1,70
 311 406 311 406 313 414.5 c 128,-1,71
 315 423 315 423 321 429 c 128,-1,72
 327 435 327 435 335.5 437 c 128,-1,73
 344 439 344 439 352 436.5 c 128,-1,74
 360 434 360 434 366 428 c 2,75,-1
 467 327 l 1,76,-1
 633 520 l 2,77,78
 641 530 641 530 654 531 c 128,-1,79
 667 532 667 532 677 524 c 0,60,61
EndSplineSet
EndChar

StartChar: agricultural_16
Encoding: 59970 59970 17
Width: 1000
GlyphClass: 1
Flags: W
LayerCount: 2
Fore
SplineSet
656 750 m 2,0,1
 656 825 656 825 627 888 c 0,2,3
 593 961 593 961 528 993 c 0,4,5
 515 1000 515 1000 500 1000 c 128,-1,6
 485 1000 485 1000 472 993 c 0,7,8
 407 961 407 961 373 888 c 0,9,10
 344 825 344 825 344 750 c 2,11,-1
 344 738 l 1,12,13
 283 750 283 750 188 750 c 0,14,15
 162 750 162 750 143.5 731.5 c 128,-1,16
 125 713 125 713 125 687 c 0,17,18
 125 599 125 599 149 538 c 0,19,20
 175 472 175 472 230 433 c 0,21,22
 278 399 278 399 352 386 c 0,23,24
 411 375 411 375 500 375 c 0,25,26
 526 375 526 375 544.5 393.5 c 128,-1,27
 563 412 563 412 563 438 c 0,28,29
 563 530 563 530 611 577.5 c 128,-1,30
 659 625 659 625 750 625 c 1,31,32
 750 581 750 581 726 555 c 0,33,34
 707 534 707 534 666 519 c 0,35,36
 642 511 642 511 631 487.5 c 128,-1,37
 620 464 620 464 629 439.5 c 128,-1,38
 638 415 638 415 661 404 c 128,-1,39
 684 393 684 393 709 402 c 0,40,41
 794 433 794 433 836 505 c 0,42,43
 875 574 875 574 875 687 c 0,44,45
 875 713 875 713 856.5 731.5 c 128,-1,46
 838 750 838 750 812 750 c 0,47,48
 717 750 717 750 656 738 c 1,49,-1
 656 750 l 2,0,1
500 858 m 1,50,51
 514 839 514 839 522.5 811 c 128,-1,52
 531 783 531 783 531 750 c 0,53,54
 531 720 531 720 525 698 c 0,55,56
 517 674 517 674 500 653 c 1,57,58
 483 674 483 674 475 698 c 0,59,60
 469 720 469 720 469 750 c 0,61,62
 469 783 469 783 477.5 811 c 128,-1,63
 486 839 486 839 500 858 c 1,50,51
375 600 m 0,64,65
 438 567 438 567 438 500 c 1,66,67
 361 500 361 500 313 525 c 0,68,69
 250 558 250 558 250 625 c 1,70,71
 326 625 326 625 375 600 c 0,64,65
188 375 m 1,72,73
 162 375 162 375 143.5 356.5 c 128,-1,74
 125 338 125 338 125 312 c 0,75,76
 125 199 125 199 165 130 c 0,77,78
 206 58 206 58 291 27 c 0,79,80
 307 21 307 21 324 23.5 c 128,-1,81
 341 26 341 26 354 37 c 128,-1,82
 367 48 367 48 372.5 64 c 128,-1,83
 378 80 378 80 375 96.5 c 128,-1,84
 372 113 372 113 361 126 c 128,-1,85
 350 139 350 139 334 144 c 0,86,87
 299 157 299 157 277.5 184.5 c 128,-1,88
 256 212 256 212 250 250 c 1,89,90
 438 250 438 250 438 63 c 0,91,92
 438 37 438 37 456 18.5 c 128,-1,93
 474 0 474 0 500 0 c 0,94,95
 589 0 589 0 648 11 c 0,96,97
 722 24 722 24 770 58 c 0,98,99
 825 97 825 97 851 163 c 0,100,101
 875 224 875 224 875 313 c 0,102,103
 875 338 875 338 856.5 356.5 c 128,-1,104
 838 375 838 375 812 375 c 0,105,106
 723 375 723 375 665 364 c 0,107,108
 591 351 591 351 542 317 c 0,109,110
 519 300 519 300 500 278 c 1,111,112
 481 300 481 300 458 317 c 0,113,114
 409 351 409 351 335 364 c 0,115,116
 277 375 277 375 187 375 c 1,117,-1
 188 375 l 1,72,73
688 150 m 0,118,119
 639 125 639 125 563 125 c 1,120,121
 563 162 563 162 582 189 c 0,122,123
 599 213 599 213 632 228 c 0,124,125
 679 250 679 250 750 250 c 1,126,127
 750 183 750 183 688 150 c 0,118,119
EndSplineSet
EndChar

StartChar: agricultural_32
Encoding: 59971 59971 18
Width: 1000
GlyphClass: 1
Flags: W
LayerCount: 2
Fore
SplineSet
478 991 m 0,0,1
 487 1000 487 1000 500 1000 c 128,-1,2
 513 1000 513 1000 522 991 c 0,3,4
 573 940 573 940 600 866 c 0,5,6
 625 797 625 797 625 719 c 0,7,8
 625 644 625 644 601 576 c 1,9,10
 697 625 697 625 875 625 c 0,11,12
 888 625 888 625 897 616 c 128,-1,13
 906 607 906 607 906 594 c 0,14,15
 906 526 906 526 890 478 c 0,16,17
 872 425 872 425 833.5 390.5 c 128,-1,18
 795 356 795 356 735 338 c 0,19,20
 679 321 679 321 596 315 c 0,21,22
 587 315 587 315 579.5 318.5 c 128,-1,23
 572 322 572 322 567 329 c 128,-1,24
 562 336 562 336 561.5 344.5 c 128,-1,25
 561 353 561 353 565 360.5 c 128,-1,26
 569 368 569 368 576 372.5 c 128,-1,27
 583 377 583 377 592 378 c 0,28,29
 667 383 667 383 717 398 c 0,30,31
 764 412 764 412 792 437 c 0,32,33
 814 457 814 457 827 487.5 c 128,-1,34
 840 518 840 518 843 562 c 1,35,36
 691 558 691 558 616 512 c 0,37,38
 574 487 574 487 553 447 c 0,39,40
 531 405 531 405 531 344 c 0,41,42
 531 331 531 331 522 322 c 128,-1,43
 513 313 513 313 500 313 c 0,44,45
 390 313 390 313 317 326 c 0,46,47
 238 340 238 340 190 372 c 0,48,49
 138 407 138 407 115 464 c 0,50,51
 94 516 94 516 94 594 c 0,52,53
 94 607 94 607 103 616 c 128,-1,54
 112 625 112 625 125 625 c 0,55,56
 303 625 303 625 399 576 c 1,57,58
 375 645 375 645 375 719 c 0,59,60
 375 797 375 797 400 866 c 0,61,62
 427 940 427 940 478 991 c 0,0,1
500 516 m 1,63,64
 530 556 530 556 546.5 609 c 128,-1,65
 563 662 563 662 563 719 c 128,-1,66
 563 776 563 776 546.5 828.5 c 128,-1,67
 530 881 530 881 500 921 c 1,68,69
 470 881 470 881 454 828.5 c 128,-1,70
 438 776 438 776 438 719 c 128,-1,71
 438 662 438 662 454 609 c 128,-1,72
 470 556 470 556 500 516 c 1,63,64
224 424 m 0,73,74
 259 401 259 401 318 389 c 128,-1,75
 377 377 377 377 467 375 c 1,76,77
 462 424 462 424 441 458 c 0,78,79
 420 490 420 490 384 512 c 0,80,81
 309 558 309 558 157 562 c 1,82,83
 161 511 161 511 177.5 478 c 128,-1,84
 194 445 194 445 224 424 c 0,73,74
875 313 m 0,85,86
 781 313 781 313 712 299 c 0,87,88
 635 285 635 285 583 253 c 0,89,90
 529 220 529 220 500 168 c 1,91,92
 471 220 471 220 417 253 c 0,93,94
 365 285 365 285 288 299 c 0,95,96
 219 313 219 313 125 313 c 0,97,98
 112 313 112 313 103 303.5 c 128,-1,99
 94 294 94 294 94 281 c 0,100,101
 94 213 94 213 110 165 c 0,102,103
 128 112 128 112 166.5 78 c 128,-1,104
 205 44 205 44 265 26 c 0,105,106
 321 8 321 8 404 3 c 0,107,108
 413 2 413 2 420.5 5.5 c 128,-1,109
 428 9 428 9 433 16 c 128,-1,110
 438 23 438 23 438.5 31.5 c 128,-1,111
 439 40 439 40 435 48 c 128,-1,112
 431 56 431 56 424 60.5 c 128,-1,113
 417 65 417 65 408 65 c 0,114,115
 333 70 333 70 283 85 c 0,116,117
 236 100 236 100 208 124 c 0,118,119
 186 145 186 145 173 175 c 128,-1,120
 160 205 160 205 157 250 c 1,121,122
 309 245 309 245 384 200 c 0,123,124
 426 175 426 175 447 135 c 0,125,126
 469 93 469 93 469 31 c 0,127,128
 469 18 469 18 478 9 c 128,-1,129
 487 0 487 0 500 0 c 0,130,131
 610 0 610 0 683 13 c 0,132,133
 762 28 762 28 810 60 c 0,134,135
 862 94 862 94 885 151 c 0,136,137
 906 204 906 204 906 281 c 0,138,139
 906 294 906 294 897 303.5 c 128,-1,140
 888 313 888 313 875 313 c 0,85,86
776 112 m 0,141,142
 741 89 741 89 682 77 c 128,-1,143
 623 65 623 65 533 63 c 1,144,145
 538 111 538 111 559 145 c 0,146,147
 580 178 580 178 616 200 c 0,148,149
 691 245 691 245 843 250 c 1,150,151
 839 198 839 198 822.5 165 c 128,-1,152
 806 132 806 132 776 112 c 0,141,142
EndSplineSet
EndChar

StartChar: aim_32
Encoding: 59972 59972 19
Width: 1000
GlyphClass: 1
Flags: W
LayerCount: 2
Fore
SplineSet
932 932 m 1,0,-1
 921 976 l 2,1,2
 919 985 919 985 913 991 c 128,-1,3
 907 997 907 997 899 999 c 128,-1,4
 891 1001 891 1001 883 999 c 128,-1,5
 875 997 875 997 869 991 c 2,6,-1
 806 928 l 2,7,8
 797 919 797 919 797 906 c 2,9,-1
 797 841 l 1,10,-1
 720 764 l 1,11,12
 674 803 674 803 617 823.5 c 128,-1,13
 560 844 560 844 500 844 c 0,14,15
 407 844 407 844 327 797 c 0,16,17
 249 751 249 751 203 673 c 0,18,19
 156 593 156 593 156 500 c 128,-1,20
 156 407 156 407 203 327 c 0,21,22
 249 249 249 249 327 203 c 0,23,24
 407 156 407 156 500 156 c 128,-1,25
 593 156 593 156 673 203 c 0,26,27
 751 249 751 249 797 327 c 0,28,29
 844 407 844 407 844 500 c 0,30,31
 844 579 844 579 810 650 c 0,32,33
 804 661 804 661 792 665 c 128,-1,34
 780 669 780 669 768.5 663.5 c 128,-1,35
 757 658 757 658 752.5 646 c 128,-1,36
 748 634 748 634 753 622 c 0,37,38
 781 564 781 564 781 500 c 0,39,40
 781 424 781 424 743 358 c 0,41,42
 706 294 706 294 642 257 c 0,43,44
 576 219 576 219 500 219 c 128,-1,45
 424 219 424 219 358 257 c 0,46,47
 294 294 294 294 257 358 c 0,48,49
 219 424 219 424 219 500 c 128,-1,50
 219 576 219 576 257 642 c 0,51,52
 294 706 294 706 358 743 c 0,53,54
 424 781 424 781 500 781 c 0,55,56
 549 781 549 781 594 765 c 128,-1,57
 639 749 639 749 676 720 c 1,58,-1
 609 653 l 1,59,60
 572 679 572 679 529 685.5 c 128,-1,61
 486 692 486 692 444 679 c 128,-1,62
 402 666 402 666 370 635 c 128,-1,63
 338 604 338 604 323.5 563 c 128,-1,64
 309 522 309 522 314 478.5 c 128,-1,65
 319 435 319 435 343 397.5 c 128,-1,66
 367 360 367 360 405 338 c 128,-1,67
 443 316 443 316 486.5 313 c 128,-1,68
 530 310 530 310 571 326.5 c 128,-1,69
 612 343 612 343 641 376 c 128,-1,70
 670 409 670 409 681.5 451.5 c 128,-1,71
 693 494 693 494 684 537 c 0,72,73
 682 546 682 546 676.5 552.5 c 128,-1,74
 671 559 671 559 663 561.5 c 128,-1,75
 655 564 655 564 647 562.5 c 128,-1,76
 639 561 639 561 632.5 555 c 128,-1,77
 626 549 626 549 623.5 541 c 128,-1,78
 621 533 621 533 623 525 c 0,79,80
 631 482 631 482 610.5 442.5 c 128,-1,81
 590 403 590 403 549.5 385.5 c 128,-1,82
 509 368 509 368 466.5 379.5 c 128,-1,83
 424 391 424 391 398.5 427 c 128,-1,84
 373 463 373 463 375.5 507.5 c 128,-1,85
 378 552 378 552 408 584.5 c 128,-1,86
 438 617 438 617 481.5 623.5 c 128,-1,87
 525 630 525 630 564 608 c 1,88,-1
 478 522 l 2,89,90
 469 513 469 513 469 500 c 128,-1,91
 469 487 469 487 478 478 c 128,-1,92
 487 469 487 469 500 469 c 128,-1,93
 513 469 513 469 522 478 c 2,94,-1
 850 806 l 2,95,96
 859 815 859 815 859 828 c 2,97,-1
 859 893 l 1,98,-1
 874 908 l 1,99,100
 877 893 877 893 885 885 c 128,-1,101
 893 877 893 877 908 874 c 1,102,-1
 884 850 l 2,103,104
 875 841 875 841 875 828 c 128,-1,105
 875 815 875 815 884 806 c 128,-1,106
 893 797 893 797 906 797 c 128,-1,107
 919 797 919 797 928 806 c 2,108,-1
 991 869 l 2,109,110
 997 875 997 875 999 883 c 128,-1,111
 1001 891 1001 891 999 899 c 128,-1,112
 997 907 997 907 991 913 c 128,-1,113
 985 919 985 919 976 921 c 2,114,-1
 932 932 l 1,0,-1
63 500 m 256,115,116
 63 619 63 619 122 721 c 0,117,118
 180 820 180 820 279 878 c 0,119,120
 381 938 381 938 500 938 c 0,121,122
 563 938 563 938 622.5 920.5 c 128,-1,123
 682 903 682 903 734 870 c 0,124,125
 744 863 744 863 757 866 c 128,-1,126
 770 869 770 869 777 880 c 128,-1,127
 784 891 784 891 781 903.5 c 128,-1,128
 778 916 778 916 767 923 c 0,129,130
 707 961 707 961 639 980.5 c 128,-1,131
 571 1000 571 1000 500 1000 c 0,132,133
 398 1000 398 1000 305 961 c 0,134,135
 216 923 216 923 146.5 853.5 c 128,-1,136
 77 784 77 784 39 695 c 0,137,138
 0 602 0 602 0 500 c 128,-1,139
 0 398 0 398 39 305 c 0,140,141
 77 216 77 216 146.5 146.5 c 128,-1,142
 216 77 216 77 305 39 c 0,143,144
 398 0 398 0 500 0 c 128,-1,145
 602 0 602 0 695 39 c 0,146,147
 784 77 784 77 853.5 146.5 c 128,-1,148
 923 216 923 216 961 305 c 0,149,150
 1000 398 1000 398 1000 500 c 0,151,152
 1000 571 1000 571 980.5 638.5 c 128,-1,153
 961 706 961 706 923 766 c 0,154,155
 916 777 916 777 904 779.5 c 128,-1,156
 892 782 892 782 881 775 c 128,-1,157
 870 768 870 768 867 756 c 128,-1,158
 864 744 864 744 871 733 c 0,159,160
 903 680 903 680 920.5 621 c 128,-1,161
 938 562 938 562 938 500 c 0,162,163
 938 381 938 381 878 279 c 0,164,165
 820 180 820 180 721 122 c 0,166,167
 619 63 619 63 500 63 c 128,-1,168
 381 63 381 63 279 122 c 0,169,170
 180 180 180 180 122 279 c 0,171,172
 63 381 63 381 63 500 c 256,115,116
EndSplineSet
EndChar

StartChar: airport_16
Encoding: 59973 59973 20
Width: 1000
GlyphClass: 1
Flags: W
LayerCount: 2
Fore
SplineSet
344 844 m 2,0,1
 344 886 344 886 365 922 c 128,-1,2
 386 958 386 958 422 979 c 128,-1,3
 458 1000 458 1000 500 1000 c 128,-1,4
 542 1000 542 1000 578 979 c 128,-1,5
 614 958 614 958 635 922 c 128,-1,6
 656 886 656 886 656 844 c 2,7,-1
 656 642 l 1,8,-1
 908 573 l 2,9,10
 949 562 949 562 974.5 528.5 c 128,-1,11
 1000 495 1000 495 1000 452 c 2,12,-1
 1000 438 l 2,13,14
 1000 404 1000 404 983 375 c 128,-1,15
 966 346 966 346 937.5 329.5 c 128,-1,16
 909 313 909 313 875 313 c 2,17,-1
 656 313 l 1,18,-1
 656 208 l 1,19,-1
 738 100 l 2,20,21
 748 87 748 87 750 70 c 128,-1,22
 752 53 752 53 745 38 c 128,-1,23
 738 23 738 23 725 12.5 c 128,-1,24
 712 2 712 2 695 0 c 128,-1,25
 678 -2 678 -2 663 5 c 128,-1,26
 648 12 648 12 637 25 c 2,27,-1
 544 150 l 2,28,29
 531 167 531 167 531 188 c 2,30,-1
 531 375 l 2,31,32
 531 401 531 401 549.5 419.5 c 128,-1,33
 568 438 568 438 594 437 c 2,34,-1
 875 437 l 1,35,-1
 875 452 l 1,36,-1
 577 534 l 2,37,38
 557 539 557 539 544 556 c 128,-1,39
 531 573 531 573 531 594 c 2,40,-1
 531 844 l 2,41,42
 531 857 531 857 522 866 c 128,-1,43
 513 875 513 875 500 875 c 128,-1,44
 487 875 487 875 478 866 c 128,-1,45
 469 857 469 857 469 844 c 2,46,-1
 469 594 l 2,47,48
 469 573 469 573 456 556 c 128,-1,49
 443 539 443 539 423 533 c 2,50,-1
 125 452 l 1,51,-1
 125 438 l 1,52,-1
 406 438 l 2,53,54
 432 438 432 438 450.5 419.5 c 128,-1,55
 469 401 469 401 469 375 c 2,56,-1
 469 188 l 2,57,58
 469 167 469 167 456 150 c 2,59,-1
 363 25 l 2,60,61
 347 4 347 4 321.5 0.5 c 128,-1,62
 296 -3 296 -3 275 12.5 c 128,-1,63
 254 28 254 28 250.5 53.5 c 128,-1,64
 247 79 247 79 263 100 c 2,65,-1
 344 208 l 1,66,-1
 344 313 l 1,67,-1
 125 313 l 2,68,69
 91 313 91 313 62.5 329.5 c 128,-1,70
 34 346 34 346 17 375 c 128,-1,71
 0 404 0 404 0 438 c 2,72,-1
 0 452 l 2,73,74
 0 495 0 495 25.5 528.5 c 128,-1,75
 51 562 51 562 92 573 c 2,76,-1
 344 642 l 1,77,-1
 344 844 l 2,0,1
EndSplineSet
EndChar

StartChar: airport_32
Encoding: 59974 59974 21
Width: 1000
GlyphClass: 1
Flags: W
LayerCount: 2
Fore
SplineSet
500 938 m 256,0,1
 487 938 487 938 478 928.5 c 128,-1,2
 469 919 469 919 469 906 c 2,3,-1
 469 609 l 2,4,5
 469 600 469 600 464 592.5 c 128,-1,6
 459 585 459 585 450 581 c 2,7,-1
 143 441 l 2,8,9
 135 438 135 438 130 430 c 128,-1,10
 125 422 125 422 125 413 c 2,11,-1
 125 380 l 1,12,-1
 261 398 l 2,13,14
 274 400 274 400 284.5 392 c 128,-1,15
 295 384 295 384 296.5 371.5 c 128,-1,16
 298 359 298 359 290.5 348.5 c 128,-1,17
 283 338 283 338 270 336 c 2,18,-1
 133 318 l 2,19,20
 105 314 105 314 83.5 332.5 c 128,-1,21
 62 351 62 351 63 380 c 2,22,-1
 63 413 l 2,23,24
 63 440 63 440 77.5 463.5 c 128,-1,25
 92 487 92 487 117 498 c 2,26,-1
 406 629 l 1,27,-1
 406 906 l 2,28,29
 406 945 406 945 433.5 972.5 c 128,-1,30
 461 1000 461 1000 500 1000 c 128,-1,31
 539 1000 539 1000 566.5 972.5 c 128,-1,32
 594 945 594 945 594 906 c 2,33,-1
 594 630 l 1,34,-1
 883 498 l 2,35,36
 908 487 908 487 923 463.5 c 128,-1,37
 938 440 938 440 938 413 c 2,38,-1
 938 380 l 2,39,40
 938 351 938 351 916.5 332.5 c 128,-1,41
 895 314 895 314 867 318 c 2,42,-1
 730 336 l 2,43,44
 717 338 717 338 709.5 348.5 c 128,-1,45
 702 359 702 359 703.5 371.5 c 128,-1,46
 705 384 705 384 715.5 392 c 128,-1,47
 726 400 726 400 739 398 c 2,48,-1
 875 380 l 1,49,-1
 875 413 l 2,50,51
 875 422 875 422 870 429.5 c 128,-1,52
 865 437 865 437 857 441 c 2,53,-1
 550 581 l 2,54,55
 541 585 541 585 536 592.5 c 128,-1,56
 531 600 531 600 531 609 c 2,57,-1
 531 906 l 2,58,59
 531 919 531 919 522 928.5 c 128,-1,60
 513 938 513 938 500 938 c 256,0,1
458 414 m 0,61,62
 469 405 469 405 469 391 c 2,63,-1
 469 207 l 2,64,65
 469 190 469 190 454 181 c 2,66,-1
 358 121 l 2,67,68
 344 112 344 112 344 95 c 2,69,-1
 344 63 l 1,70,-1
 490 112 l 2,71,72
 500 115 500 115 510 112 c 2,73,-1
 656 63 l 1,74,-1
 656 95 l 2,75,76
 656 112 656 112 642 121 c 2,77,-1
 546 181 l 2,78,79
 531 190 531 190 531 207 c 2,80,-1
 531 391 l 2,81,82
 531 405 531 405 542 414 c 128,-1,83
 553 423 553 423 567 422 c 2,84,-1
 653 410 l 2,85,86
 665 408 665 408 673 398 c 128,-1,87
 681 388 681 388 679.5 375 c 128,-1,88
 678 362 678 362 667.5 354 c 128,-1,89
 657 346 657 346 644 348 c 2,90,-1
 594 355 l 1,91,-1
 594 225 l 1,92,-1
 675 174 l 2,93,94
 695 161 695 161 707 140 c 128,-1,95
 719 119 719 119 719 95 c 2,96,-1
 719 63 l 2,97,98
 719 48 719 48 712 34.5 c 128,-1,99
 705 21 705 21 693 12.5 c 128,-1,100
 681 4 681 4 666 1.5 c 128,-1,101
 651 -1 651 -1 637 4 c 2,102,-1
 500 49 l 1,103,-1
 364 4 l 2,104,105
 349 -1 349 -1 334 1.5 c 128,-1,106
 319 4 319 4 307 12.5 c 128,-1,107
 295 21 295 21 288 34.5 c 128,-1,108
 281 48 281 48 281 63 c 2,109,-1
 281 95 l 2,110,111
 281 119 281 119 293 140 c 128,-1,112
 305 161 305 161 325 174 c 2,113,-1
 406 225 l 1,114,-1
 406 355 l 1,115,-1
 356 348 l 2,116,117
 347 346 347 346 339 349.5 c 128,-1,118
 331 353 331 353 325.5 359.5 c 128,-1,119
 320 366 320 366 319 374.5 c 128,-1,120
 318 383 318 383 321.5 391 c 128,-1,121
 325 399 325 399 332 404 c 128,-1,122
 339 409 339 409 347 410 c 2,123,-1
 433 422 l 2,124,125
 447 424 447 424 458 414 c 0,61,62
EndSplineSet
EndChar

StartChar: alc_16
Encoding: 59975 59975 22
Width: 1000
GlyphClass: 1
Flags: W
LayerCount: 2
Fore
SplineSet
563 1000 m 2,0,1
 537 1000 537 1000 518.5 981.5 c 128,-1,2
 500 963 500 963 500 937.5 c 128,-1,3
 500 912 500 912 518.5 893.5 c 128,-1,4
 537 875 537 875 563 875 c 1,5,-1
 563 742 l 1,6,7
 504 727 504 727 458 686 c 0,8,9
 446 675 446 675 440.5 659 c 128,-1,10
 435 643 435 643 438.5 626.5 c 128,-1,11
 442 610 442 610 453 597.5 c 128,-1,12
 464 585 464 585 480 580 c 128,-1,13
 496 575 496 575 512.5 578.5 c 128,-1,14
 529 582 529 582 542 593 c 0,15,16
 569 618 569 618 605.5 623.5 c 128,-1,17
 642 629 642 629 676 614 c 128,-1,18
 710 599 710 599 730 568 c 128,-1,19
 750 537 750 537 750 500 c 2,20,-1
 750 125 l 1,21,-1
 563 125 l 2,22,23
 537 125 537 125 518.5 106.5 c 128,-1,24
 500 88 500 88 500 62.5 c 128,-1,25
 500 37 500 37 518.5 18.5 c 128,-1,26
 537 0 537 0 563 0 c 2,27,-1
 813 0 l 2,28,29
 838 0 838 0 856.5 18.5 c 128,-1,30
 875 37 875 37 875 63 c 2,31,-1
 875 500 l 2,32,33
 875 556 875 556 851 606.5 c 128,-1,34
 827 657 827 657 784.5 692.5 c 128,-1,35
 742 728 742 728 688 742 c 1,36,-1
 688 875 l 1,37,38
 713 875 713 875 731.5 893.5 c 128,-1,39
 750 912 750 912 750 937.5 c 128,-1,40
 750 963 750 963 731.5 981.5 c 128,-1,41
 713 1000 713 1000 687 1000 c 2,42,-1
 563 1000 l 2,0,1
375 125 m 1,43,-1
 375 167 l 1,44,45
 431 187 431 187 465.5 237.5 c 128,-1,46
 500 288 500 288 500 350 c 2,47,-1
 500 500 l 2,48,49
 500 526 500 526 481.5 544.5 c 128,-1,50
 463 563 463 563 437 563 c 2,51,-1
 188 563 l 2,52,53
 162 563 162 563 143.5 544.5 c 128,-1,54
 125 526 125 526 125 500 c 2,55,-1
 125 350 l 2,56,57
 125 288 125 288 159.5 237.5 c 128,-1,58
 194 187 194 187 250 167 c 1,59,-1
 250 125 l 1,60,-1
 219 125 l 2,61,62
 193 125 193 125 174.5 106.5 c 128,-1,63
 156 88 156 88 156 62.5 c 128,-1,64
 156 37 156 37 174.5 18.5 c 128,-1,65
 193 0 193 0 219 0 c 2,66,-1
 406 0 l 2,67,68
 432 0 432 0 450.5 18.5 c 128,-1,69
 469 37 469 37 469 62.5 c 128,-1,70
 469 88 469 88 450.5 106.5 c 128,-1,71
 432 125 432 125 406 125 c 2,72,-1
 375 125 l 1,43,-1
375 438 m 1,73,-1
 375 350 l 2,74,75
 375 320 375 320 356 300.5 c 128,-1,76
 337 281 337 281 312.5 281 c 128,-1,77
 288 281 288 281 269 300.5 c 128,-1,78
 250 320 250 320 250 350 c 2,79,-1
 250 438 l 1,80,-1
 375 438 l 1,73,-1
EndSplineSet
EndChar

StartChar: align-center_16
Encoding: 59976 59976 23
Width: 1000
GlyphClass: 1
Flags: W
LayerCount: 2
Fore
SplineSet
63 891 m 2,0,1
 37 891 37 891 18.5 872.5 c 128,-1,2
 0 854 0 854 0 828 c 128,-1,3
 0 802 0 802 18.5 784 c 128,-1,4
 37 766 37 766 62 766 c 2,5,-1
 938 766 l 2,6,7
 963 766 963 766 981.5 784 c 128,-1,8
 1000 802 1000 802 1000 828 c 128,-1,9
 1000 854 1000 854 981.5 872.5 c 128,-1,10
 963 891 963 891 937 891 c 2,11,-1
 63 891 l 2,0,1
63 453 m 2,12,13
 37 453 37 453 18.5 435 c 128,-1,14
 0 417 0 417 0 391 c 128,-1,15
 0 365 0 365 18.5 346.5 c 128,-1,16
 37 328 37 328 62 328 c 2,17,-1
 938 328 l 2,18,19
 963 328 963 328 981.5 346.5 c 128,-1,20
 1000 365 1000 365 1000 391 c 128,-1,21
 1000 417 1000 417 981.5 435 c 128,-1,22
 963 453 963 453 937 453 c 2,23,-1
 63 453 l 2,12,13
125 609 m 256,24,25
 125 635 125 635 143.5 653.5 c 128,-1,26
 162 672 162 672 188 672 c 2,27,-1
 813 672 l 2,28,29
 838 672 838 672 856.5 653.5 c 128,-1,30
 875 635 875 635 875 609 c 128,-1,31
 875 583 875 583 856.5 565 c 128,-1,32
 838 547 838 547 812 547 c 2,33,-1
 188 547 l 2,34,35
 162 547 162 547 143.5 565 c 128,-1,36
 125 583 125 583 125 609 c 256,24,25
188 234 m 2,37,38
 162 234 162 234 143.5 216 c 128,-1,39
 125 198 125 198 125 172 c 128,-1,40
 125 146 125 146 143.5 127.5 c 128,-1,41
 162 109 162 109 187 109 c 2,42,-1
 813 109 l 2,43,44
 838 109 838 109 856.5 127.5 c 128,-1,45
 875 146 875 146 875 172 c 128,-1,46
 875 198 875 198 856.5 216 c 128,-1,47
 838 234 838 234 812 234 c 2,48,-1
 188 234 l 2,37,38
EndSplineSet
EndChar

StartChar: align-center_20
Encoding: 59977 59977 24
Width: 1000
GlyphClass: 1
Flags: W
LayerCount: 2
Fore
SplineSet
50 850 m 2,0,1
 29 850 29 850 14.5 835.5 c 128,-1,2
 0 821 0 821 0 800 c 128,-1,3
 0 779 0 779 14.5 764.5 c 128,-1,4
 29 750 29 750 50 750 c 2,5,-1
 950 750 l 2,6,7
 971 750 971 750 985.5 764.5 c 128,-1,8
 1000 779 1000 779 1000 800 c 128,-1,9
 1000 821 1000 821 985.5 835.5 c 128,-1,10
 971 850 971 850 950 850 c 2,11,-1
 50 850 l 2,0,1
50 450 m 2,12,13
 29 450 29 450 14.5 435.5 c 128,-1,14
 0 421 0 421 0 400 c 128,-1,15
 0 379 0 379 14.5 364.5 c 128,-1,16
 29 350 29 350 50 350 c 2,17,-1
 950 350 l 2,18,19
 971 350 971 350 985.5 364.5 c 128,-1,20
 1000 379 1000 379 1000 400 c 128,-1,21
 1000 421 1000 421 985.5 435.5 c 128,-1,22
 971 450 971 450 950 450 c 2,23,-1
 50 450 l 2,12,13
150 600 m 256,24,25
 150 621 150 621 164.5 635.5 c 128,-1,26
 179 650 179 650 200 650 c 2,27,-1
 800 650 l 2,28,29
 821 650 821 650 835.5 635.5 c 128,-1,30
 850 621 850 621 850 600 c 128,-1,31
 850 579 850 579 835.5 564.5 c 128,-1,32
 821 550 821 550 800 550 c 2,33,-1
 200 550 l 2,34,35
 179 550 179 550 164.5 564.5 c 128,-1,36
 150 579 150 579 150 600 c 256,24,25
200 250 m 2,37,38
 179 250 179 250 164.5 235.5 c 128,-1,39
 150 221 150 221 150 200 c 128,-1,40
 150 179 150 179 164.5 164.5 c 128,-1,41
 179 150 179 150 200 150 c 2,42,-1
 800 150 l 2,43,44
 821 150 821 150 835.5 164.5 c 128,-1,45
 850 179 850 179 850 200 c 128,-1,46
 850 221 850 221 835.5 235.5 c 128,-1,47
 821 250 821 250 800 250 c 2,48,-1
 200 250 l 2,37,38
EndSplineSet
EndChar

StartChar: align-center_32
Encoding: 59978 59978 25
Width: 1000
GlyphClass: 1
Flags: W
LayerCount: 2
Fore
SplineSet
31 844 m 2,0,1
 18 844 18 844 9 834.5 c 128,-1,2
 0 825 0 825 0 812.5 c 128,-1,3
 0 800 0 800 9 790.5 c 128,-1,4
 18 781 18 781 31 781 c 2,5,-1
 969 781 l 2,6,7
 982 781 982 781 991 790.5 c 128,-1,8
 1000 800 1000 800 1000 812.5 c 128,-1,9
 1000 825 1000 825 991 834.5 c 128,-1,10
 982 844 982 844 969 844 c 2,11,-1
 31 844 l 2,0,1
31 427 m 2,12,13
 18 427 18 427 9 418 c 128,-1,14
 0 409 0 409 0 396 c 128,-1,15
 0 383 0 383 9 374 c 128,-1,16
 18 365 18 365 31 365 c 2,17,-1
 969 365 l 2,18,19
 982 365 982 365 991 374 c 128,-1,20
 1000 383 1000 383 1000 396 c 128,-1,21
 1000 409 1000 409 991 418 c 128,-1,22
 982 427 982 427 969 427 c 2,23,-1
 31 427 l 2,12,13
156 604 m 256,24,25
 156 617 156 617 165.5 626 c 128,-1,26
 175 635 175 635 188 635 c 2,27,-1
 813 635 l 2,28,29
 825 635 825 635 834.5 626 c 128,-1,30
 844 617 844 617 844 604 c 128,-1,31
 844 591 844 591 834.5 582 c 128,-1,32
 825 573 825 573 813 573 c 2,33,-1
 188 573 l 2,34,35
 175 573 175 573 165.5 582 c 128,-1,36
 156 591 156 591 156 604 c 256,24,25
188 219 m 2,37,38
 175 219 175 219 165.5 209.5 c 128,-1,39
 156 200 156 200 156 187.5 c 128,-1,40
 156 175 156 175 165.5 165.5 c 128,-1,41
 175 156 175 156 188 156 c 2,42,-1
 813 156 l 2,43,44
 825 156 825 156 834.5 165.5 c 128,-1,45
 844 175 844 175 844 187.5 c 128,-1,46
 844 200 844 200 834.5 209.5 c 128,-1,47
 825 219 825 219 813 219 c 2,48,-1
 188 219 l 2,37,38
EndSplineSet
EndChar

StartChar: align-left_16
Encoding: 59917 59917 26
Width: 1000
GlyphClass: 1
Flags: W
LayerCount: 2
Fore
SplineSet
63 891 m 2,0,1
 37 891 37 891 18.5 872.5 c 128,-1,2
 0 854 0 854 0 828 c 128,-1,3
 0 802 0 802 18.5 784 c 128,-1,4
 37 766 37 766 62 766 c 2,5,-1
 938 766 l 2,6,7
 963 766 963 766 981.5 784 c 128,-1,8
 1000 802 1000 802 1000 828 c 128,-1,9
 1000 854 1000 854 981.5 872.5 c 128,-1,10
 963 891 963 891 937 891 c 2,11,-1
 63 891 l 2,0,1
63 453 m 2,12,13
 37 453 37 453 18.5 435 c 128,-1,14
 0 417 0 417 0 391 c 128,-1,15
 0 365 0 365 18.5 346.5 c 128,-1,16
 37 328 37 328 62 328 c 2,17,-1
 938 328 l 2,18,19
 963 328 963 328 981.5 346.5 c 128,-1,20
 1000 365 1000 365 1000 391 c 128,-1,21
 1000 417 1000 417 981.5 435 c 128,-1,22
 963 453 963 453 937 453 c 2,23,-1
 63 453 l 2,12,13
0 609 m 256,24,25
 0 635 0 635 18.5 653.5 c 128,-1,26
 37 672 37 672 63 672 c 2,27,-1
 688 672 l 2,28,29
 713 672 713 672 731.5 653.5 c 128,-1,30
 750 635 750 635 750 609 c 128,-1,31
 750 583 750 583 731.5 565 c 128,-1,32
 713 547 713 547 687 547 c 2,33,-1
 63 547 l 2,34,35
 37 547 37 547 18.5 565 c 128,-1,36
 0 583 0 583 0 609 c 256,24,25
63 234 m 2,37,38
 37 234 37 234 18.5 216 c 128,-1,39
 0 198 0 198 0 172 c 128,-1,40
 0 146 0 146 18.5 127.5 c 128,-1,41
 37 109 37 109 62 109 c 2,42,-1
 688 109 l 2,43,44
 713 109 713 109 731.5 127.5 c 128,-1,45
 750 146 750 146 750 172 c 128,-1,46
 750 198 750 198 731.5 216 c 128,-1,47
 713 234 713 234 687 234 c 2,48,-1
 63 234 l 2,37,38
EndSplineSet
EndChar

StartChar: align-left_20
Encoding: 59918 59918 27
Width: 1000
GlyphClass: 1
Flags: W
LayerCount: 2
Fore
SplineSet
50 850 m 2,0,1
 29 850 29 850 14.5 835.5 c 128,-1,2
 0 821 0 821 0 800 c 128,-1,3
 0 779 0 779 14.5 764.5 c 128,-1,4
 29 750 29 750 50 750 c 2,5,-1
 950 750 l 2,6,7
 971 750 971 750 985.5 764.5 c 128,-1,8
 1000 779 1000 779 1000 800 c 128,-1,9
 1000 821 1000 821 985.5 835.5 c 128,-1,10
 971 850 971 850 950 850 c 2,11,-1
 50 850 l 2,0,1
50 450 m 2,12,13
 29 450 29 450 14.5 435.5 c 128,-1,14
 0 421 0 421 0 400 c 128,-1,15
 0 379 0 379 14.5 364.5 c 128,-1,16
 29 350 29 350 50 350 c 2,17,-1
 950 350 l 2,18,19
 971 350 971 350 985.5 364.5 c 128,-1,20
 1000 379 1000 379 1000 400 c 128,-1,21
 1000 421 1000 421 985.5 435.5 c 128,-1,22
 971 450 971 450 950 450 c 2,23,-1
 50 450 l 2,12,13
0 600 m 256,24,25
 0 621 0 621 14.5 635.5 c 128,-1,26
 29 650 29 650 50 650 c 2,27,-1
 750 650 l 2,28,29
 771 650 771 650 785.5 635.5 c 128,-1,30
 800 621 800 621 800 600 c 128,-1,31
 800 579 800 579 785.5 564.5 c 128,-1,32
 771 550 771 550 750 550 c 2,33,-1
 50 550 l 2,34,35
 29 550 29 550 14.5 564.5 c 128,-1,36
 0 579 0 579 0 600 c 256,24,25
50 250 m 2,37,38
 29 250 29 250 14.5 235.5 c 128,-1,39
 0 221 0 221 0 200 c 128,-1,40
 0 179 0 179 14.5 164.5 c 128,-1,41
 29 150 29 150 50 150 c 2,42,-1
 750 150 l 2,43,44
 771 150 771 150 785.5 164.5 c 128,-1,45
 800 179 800 179 800 200 c 128,-1,46
 800 221 800 221 785.5 235.5 c 128,-1,47
 771 250 771 250 750 250 c 2,48,-1
 50 250 l 2,37,38
EndSplineSet
EndChar

StartChar: align-left_32
Encoding: 59919 59919 28
Width: 1000
GlyphClass: 1
Flags: W
LayerCount: 2
Fore
SplineSet
31 844 m 2,0,1
 18 844 18 844 9 834.5 c 128,-1,2
 0 825 0 825 0 812.5 c 128,-1,3
 0 800 0 800 9 790.5 c 128,-1,4
 18 781 18 781 31 781 c 2,5,-1
 969 781 l 2,6,7
 982 781 982 781 991 790.5 c 128,-1,8
 1000 800 1000 800 1000 812.5 c 128,-1,9
 1000 825 1000 825 991 834.5 c 128,-1,10
 982 844 982 844 969 844 c 2,11,-1
 31 844 l 2,0,1
31 427 m 2,12,13
 18 427 18 427 9 418 c 128,-1,14
 0 409 0 409 0 396 c 128,-1,15
 0 383 0 383 9 374 c 128,-1,16
 18 365 18 365 31 365 c 2,17,-1
 969 365 l 2,18,19
 982 365 982 365 991 374 c 128,-1,20
 1000 383 1000 383 1000 396 c 128,-1,21
 1000 409 1000 409 991 418 c 128,-1,22
 982 427 982 427 969 427 c 2,23,-1
 31 427 l 2,12,13
0 604 m 256,24,25
 0 617 0 617 9 626 c 128,-1,26
 18 635 18 635 31 635 c 2,27,-1
 750 635 l 2,28,29
 763 635 763 635 772 626 c 128,-1,30
 781 617 781 617 781 604 c 128,-1,31
 781 591 781 591 772 582 c 128,-1,32
 763 573 763 573 750 573 c 2,33,-1
 31 573 l 2,34,35
 18 573 18 573 9 582 c 128,-1,36
 0 591 0 591 0 604 c 256,24,25
31 219 m 2,37,38
 18 219 18 219 9 209.5 c 128,-1,39
 0 200 0 200 0 187.5 c 128,-1,40
 0 175 0 175 9 165.5 c 128,-1,41
 18 156 18 156 31 156 c 2,42,-1
 750 156 l 2,43,44
 763 156 763 156 772 165.5 c 128,-1,45
 781 175 781 175 781 187.5 c 128,-1,46
 781 200 781 200 772 209.5 c 128,-1,47
 763 219 763 219 750 219 c 2,48,-1
 31 219 l 2,37,38
EndSplineSet
EndChar

StartChar: align-right_16
Encoding: 59920 59920 29
Width: 1000
GlyphClass: 1
Flags: W
LayerCount: 2
Fore
SplineSet
938 891 m 2,0,1
 963 891 963 891 981.5 872.5 c 128,-1,2
 1000 854 1000 854 1000 828 c 128,-1,3
 1000 802 1000 802 981.5 784 c 128,-1,4
 963 766 963 766 937 766 c 2,5,-1
 63 766 l 2,6,7
 37 766 37 766 18.5 784 c 128,-1,8
 0 802 0 802 0 828 c 128,-1,9
 0 854 0 854 18.5 872.5 c 128,-1,10
 37 891 37 891 62 891 c 2,11,-1
 938 891 l 2,0,1
938 453 m 2,12,13
 963 453 963 453 981.5 435 c 128,-1,14
 1000 417 1000 417 1000 391 c 128,-1,15
 1000 365 1000 365 981.5 346.5 c 128,-1,16
 963 328 963 328 937 328 c 2,17,-1
 63 328 l 2,18,19
 37 328 37 328 18.5 346.5 c 128,-1,20
 0 365 0 365 0 391 c 128,-1,21
 0 417 0 417 18.5 435 c 128,-1,22
 37 453 37 453 62 453 c 2,23,-1
 938 453 l 2,12,13
1000 609 m 256,24,25
 1000 635 1000 635 981.5 653.5 c 128,-1,26
 963 672 963 672 937 672 c 2,27,-1
 313 672 l 2,28,29
 287 672 287 672 268.5 653.5 c 128,-1,30
 250 635 250 635 250 609 c 128,-1,31
 250 583 250 583 268.5 565 c 128,-1,32
 287 547 287 547 313 547 c 2,33,-1
 938 547 l 2,34,35
 963 547 963 547 981.5 565 c 128,-1,36
 1000 583 1000 583 1000 609 c 256,24,25
938 234 m 2,37,38
 963 234 963 234 981.5 216 c 128,-1,39
 1000 198 1000 198 1000 172 c 128,-1,40
 1000 146 1000 146 981.5 127.5 c 128,-1,41
 963 109 963 109 937 109 c 2,42,-1
 313 109 l 2,43,44
 287 109 287 109 268.5 127.5 c 128,-1,45
 250 146 250 146 250 172 c 128,-1,46
 250 198 250 198 268.5 216 c 128,-1,47
 287 234 287 234 313 234 c 2,48,-1
 938 234 l 2,37,38
EndSplineSet
EndChar

StartChar: align-right_20
Encoding: 59921 59921 30
Width: 1000
GlyphClass: 1
Flags: W
LayerCount: 2
Fore
SplineSet
950 850 m 2,0,1
 971 850 971 850 985.5 835.5 c 128,-1,2
 1000 821 1000 821 1000 800 c 128,-1,3
 1000 779 1000 779 985.5 764.5 c 128,-1,4
 971 750 971 750 950 750 c 2,5,-1
 50 750 l 2,6,7
 29 750 29 750 14.5 764.5 c 128,-1,8
 0 779 0 779 0 800 c 128,-1,9
 0 821 0 821 14.5 835.5 c 128,-1,10
 29 850 29 850 50 850 c 2,11,-1
 950 850 l 2,0,1
950 450 m 2,12,13
 971 450 971 450 985.5 435.5 c 128,-1,14
 1000 421 1000 421 1000 400 c 128,-1,15
 1000 379 1000 379 985.5 364.5 c 128,-1,16
 971 350 971 350 950 350 c 2,17,-1
 50 350 l 2,18,19
 29 350 29 350 14.5 364.5 c 128,-1,20
 0 379 0 379 0 400 c 128,-1,21
 0 421 0 421 14.5 435.5 c 128,-1,22
 29 450 29 450 50 450 c 2,23,-1
 950 450 l 2,12,13
1000 600 m 256,24,25
 1000 621 1000 621 985.5 635.5 c 128,-1,26
 971 650 971 650 950 650 c 2,27,-1
 250 650 l 2,28,29
 229 650 229 650 214.5 635.5 c 128,-1,30
 200 621 200 621 200 600 c 128,-1,31
 200 579 200 579 214.5 564.5 c 128,-1,32
 229 550 229 550 250 550 c 2,33,-1
 950 550 l 2,34,35
 971 550 971 550 985.5 564.5 c 128,-1,36
 1000 579 1000 579 1000 600 c 256,24,25
950 250 m 2,37,38
 971 250 971 250 985.5 235.5 c 128,-1,39
 1000 221 1000 221 1000 200 c 128,-1,40
 1000 179 1000 179 985.5 164.5 c 128,-1,41
 971 150 971 150 950 150 c 2,42,-1
 250 150 l 2,43,44
 229 150 229 150 214.5 164.5 c 128,-1,45
 200 179 200 179 200 200 c 128,-1,46
 200 221 200 221 214.5 235.5 c 128,-1,47
 229 250 229 250 250 250 c 2,48,-1
 950 250 l 2,37,38
EndSplineSet
EndChar

StartChar: align-right_32
Encoding: 59922 59922 31
Width: 1000
GlyphClass: 1
Flags: W
LayerCount: 2
Fore
SplineSet
969 844 m 2,0,1
 982 844 982 844 991 834.5 c 128,-1,2
 1000 825 1000 825 1000 812.5 c 128,-1,3
 1000 800 1000 800 991 790.5 c 128,-1,4
 982 781 982 781 969 781 c 2,5,-1
 31 781 l 2,6,7
 18 781 18 781 9 790.5 c 128,-1,8
 0 800 0 800 0 812.5 c 128,-1,9
 0 825 0 825 9 834.5 c 128,-1,10
 18 844 18 844 31 844 c 2,11,-1
 969 844 l 2,0,1
969 427 m 2,12,13
 982 427 982 427 991 418 c 128,-1,14
 1000 409 1000 409 1000 396 c 128,-1,15
 1000 383 1000 383 991 374 c 128,-1,16
 982 365 982 365 969 365 c 2,17,-1
 31 365 l 2,18,19
 18 365 18 365 9 374 c 128,-1,20
 0 383 0 383 0 396 c 128,-1,21
 0 409 0 409 9 418 c 128,-1,22
 18 427 18 427 31 427 c 2,23,-1
 969 427 l 2,12,13
1000 604 m 256,24,25
 1000 617 1000 617 991 626 c 128,-1,26
 982 635 982 635 969 635 c 2,27,-1
 250 635 l 2,28,29
 237 635 237 635 228 626 c 128,-1,30
 219 617 219 617 219 604 c 128,-1,31
 219 591 219 591 228 582 c 128,-1,32
 237 573 237 573 250 573 c 2,33,-1
 969 573 l 2,34,35
 982 573 982 573 991 582 c 128,-1,36
 1000 591 1000 591 1000 604 c 256,24,25
969 219 m 2,37,38
 982 219 982 219 991 209.5 c 128,-1,39
 1000 200 1000 200 1000 187.5 c 128,-1,40
 1000 175 1000 175 991 165.5 c 128,-1,41
 982 156 982 156 969 156 c 2,42,-1
 250 156 l 2,43,44
 237 156 237 156 228 165.5 c 128,-1,45
 219 175 219 175 219 187.5 c 128,-1,46
 219 200 219 200 228 209.5 c 128,-1,47
 237 219 237 219 250 219 c 2,48,-1
 969 219 l 2,37,38
EndSplineSet
EndChar

StartChar: ambulance_16
Encoding: 59979 59979 32
Width: 1000
GlyphClass: 1
Flags: W
LayerCount: 2
Fore
SplineSet
563 938 m 2,0,1
 537 937 537 937 518.5 919 c 128,-1,2
 500 901 500 901 500 875 c 1,3,-1
 188 875 l 2,4,5
 137 875 137 875 93.5 850 c 128,-1,6
 50 825 50 825 25 781.5 c 128,-1,7
 0 738 0 738 0 688 c 2,8,-1
 0 281 l 2,9,10
 0 247 0 247 17 218.5 c 128,-1,11
 34 190 34 190 62.5 173 c 128,-1,12
 91 156 91 156 125 156 c 2,13,-1
 138 156 l 1,14,15
 160 105 160 105 209.5 79.5 c 128,-1,16
 259 54 259 54 313 65.5 c 128,-1,17
 367 77 367 77 402 120 c 128,-1,18
 437 163 437 163 437 218.5 c 128,-1,19
 437 274 437 274 402 317 c 128,-1,20
 367 360 367 360 313 371.5 c 128,-1,21
 259 383 259 383 209.5 357.5 c 128,-1,22
 160 332 160 332 138 281 c 1,23,-1
 125 281 l 1,24,-1
 125 688 l 2,25,26
 125 713 125 713 143.5 731.5 c 128,-1,27
 162 750 162 750 188 750 c 2,28,-1
 679 750 l 2,29,30
 696 750 696 750 710 742 c 128,-1,31
 724 734 724 734 733 720 c 2,32,-1
 827 563 l 1,33,-1
 625 563 l 2,34,35
 599 562 599 562 581 544 c 128,-1,36
 563 526 563 526 562.5 500 c 128,-1,37
 562 474 562 474 580.5 455.5 c 128,-1,38
 599 437 599 437 625 438 c 2,39,-1
 875 438 l 1,40,-1
 875 281 l 1,41,-1
 862 281 l 1,42,43
 840 332 840 332 790.5 357.5 c 128,-1,44
 741 383 741 383 687 371.5 c 128,-1,45
 633 360 633 360 598 317 c 128,-1,46
 563 274 563 274 563 218.5 c 128,-1,47
 563 163 563 163 598 120 c 128,-1,48
 633 77 633 77 687 65.5 c 128,-1,49
 741 54 741 54 790.5 79.5 c 128,-1,50
 840 105 840 105 862 156 c 1,51,-1
 875 156 l 2,52,53
 909 156 909 156 937.5 173 c 128,-1,54
 966 190 966 190 983 218.5 c 128,-1,55
 1000 247 1000 247 1000 281 c 2,56,-1
 1000 483 l 2,57,58
 1000 517 1000 517 982 547 c 2,59,-1
 840 784 l 2,60,61
 816 824 816 824 775.5 848.5 c 128,-1,62
 735 873 735 873 687 875 c 1,63,-1
 687 875 l 1,64,65
 688 901 688 901 669.5 919.5 c 128,-1,66
 651 938 651 938 625 938 c 2,67,-1
 563 938 l 2,0,1
719 250 m 256,68,69
 732 250 732 250 741 241 c 128,-1,70
 750 232 750 232 750 219 c 128,-1,71
 750 206 750 206 741 197 c 128,-1,72
 732 188 732 188 719 188 c 128,-1,73
 706 188 706 188 696.5 197 c 128,-1,74
 687 206 687 206 687.5 219 c 128,-1,75
 688 232 688 232 697 241 c 128,-1,76
 706 250 706 250 719 250 c 256,68,69
313 219 m 256,77,78
 313 206 313 206 303.5 197 c 128,-1,79
 294 188 294 188 281 188 c 128,-1,80
 268 188 268 188 259 197 c 128,-1,81
 250 206 250 206 250 219 c 128,-1,82
 250 232 250 232 259 241 c 128,-1,83
 268 250 268 250 281 250 c 128,-1,84
 294 250 294 250 303.5 241 c 128,-1,85
 313 232 313 232 313 219 c 256,77,78
281 500 m 1,86,-1
 281 469 l 2,87,88
 281 443 281 443 299.5 424.5 c 128,-1,89
 318 406 318 406 344 406 c 128,-1,90
 370 406 370 406 388 424.5 c 128,-1,91
 406 443 406 443 406 469 c 2,92,-1
 406 500 l 1,93,-1
 438 500 l 2,94,95
 463 500 463 500 481.5 518.5 c 128,-1,96
 500 537 500 537 500 562.5 c 128,-1,97
 500 588 500 588 481.5 606.5 c 128,-1,98
 463 625 463 625 437 625 c 2,99,-1
 406 625 l 1,100,-1
 406 656 l 2,101,102
 406 682 406 682 388 700.5 c 128,-1,103
 370 719 370 719 344 719 c 128,-1,104
 318 719 318 719 299.5 700.5 c 128,-1,105
 281 682 281 682 281 656 c 2,106,-1
 281 625 l 1,107,-1
 250 625 l 2,108,109
 224 625 224 625 206 606.5 c 128,-1,110
 188 588 188 588 188 562.5 c 128,-1,111
 188 537 188 537 206 518.5 c 128,-1,112
 224 500 224 500 250 500 c 2,113,-1
 281 500 l 1,86,-1
EndSplineSet
EndChar

StartChar: ambulance_32
Encoding: 59980 59980 33
Width: 1000
GlyphClass: 1
Flags: W
LayerCount: 2
Fore
SplineSet
563 906 m 2,0,1
 537 906 537 906 518.5 888 c 128,-1,2
 500 870 500 870 500 844 c 1,3,-1
 156 844 l 2,4,5
 114 844 114 844 78 823 c 128,-1,6
 42 802 42 802 21 766 c 128,-1,7
 0 730 0 730 0 688 c 2,8,-1
 0 281 l 2,9,10
 0 242 0 242 27.5 215 c 128,-1,11
 55 188 55 188 94 188 c 2,12,-1
 160 188 l 1,13,14
 171 146 171 146 205 120 c 128,-1,15
 239 94 239 94 281.5 94 c 128,-1,16
 324 94 324 94 358 120 c 128,-1,17
 392 146 392 146 402 188 c 1,18,-1
 660 188 l 1,19,20
 671 146 671 146 705 120 c 128,-1,21
 739 94 739 94 781.5 94 c 128,-1,22
 824 94 824 94 858 120 c 128,-1,23
 892 146 892 146 902 188 c 1,24,-1
 906 188 l 2,25,26
 945 188 945 188 972.5 215 c 128,-1,27
 1000 242 1000 242 1000 281 c 2,28,-1
 1000 465 l 2,29,30
 1000 509 1000 509 978 546 c 2,31,-1
 844 768 l 2,32,33
 823 803 823 803 787.5 823.5 c 128,-1,34
 752 844 752 844 710 844 c 2,35,-1
 688 844 l 1,36,37
 688 870 688 870 669.5 888 c 128,-1,38
 651 906 651 906 625 906 c 2,39,-1
 563 906 l 2,0,1
781 344 m 256,40,41
 738 344 738 344 704.5 317.5 c 128,-1,42
 671 291 671 291 660 250 c 1,43,-1
 402 250 l 1,44,45
 392 291 392 291 358 317.5 c 128,-1,46
 324 344 324 344 281.5 344 c 128,-1,47
 239 344 239 344 205 317.5 c 128,-1,48
 171 291 171 291 160 250 c 1,49,-1
 94 250 l 2,50,51
 81 250 81 250 72 259 c 128,-1,52
 63 268 63 268 63 281 c 2,53,-1
 63 469 l 1,54,-1
 119 469 l 1,55,56
 143 427 143 427 183 402.5 c 128,-1,57
 223 378 223 378 270 375 c 128,-1,58
 317 372 317 372 360.5 392.5 c 128,-1,59
 404 413 404 413 431.5 450.5 c 128,-1,60
 459 488 459 488 466.5 534.5 c 128,-1,61
 474 581 474 581 457.5 626 c 128,-1,62
 441 671 441 671 406 702 c 128,-1,63
 371 733 371 733 325.5 744.5 c 128,-1,64
 280 756 280 756 233.5 744 c 128,-1,65
 187 732 187 732 153 699.5 c 128,-1,66
 119 667 119 667 103.5 622.5 c 128,-1,67
 88 578 88 578 96 531 c 1,68,-1
 63 531 l 1,69,-1
 63 688 l 2,70,71
 63 726 63 726 90 753.5 c 128,-1,72
 117 781 117 781 156 781 c 2,73,-1
 710 781 l 2,74,75
 735 781 735 781 756.5 769 c 128,-1,76
 778 757 778 757 791 736 c 2,77,-1
 914 531 l 1,78,-1
 531 531 l 2,79,80
 518 531 518 531 509 522 c 128,-1,81
 500 513 500 513 500 500 c 128,-1,82
 500 487 500 487 509 478 c 128,-1,83
 518 469 518 469 531 469 c 2,84,-1
 937 469 l 1,85,-1
 937 281 l 2,86,87
 937 268 937 268 928 259 c 128,-1,88
 919 250 919 250 906 250 c 2,89,-1
 902 250 l 1,90,91
 892 291 892 291 858 317.5 c 128,-1,92
 824 344 824 344 781 344 c 256,40,41
281 281 m 256,93,94
 307 281 307 281 325.5 263 c 128,-1,95
 344 245 344 245 344 219 c 128,-1,96
 344 193 344 193 325.5 174.5 c 128,-1,97
 307 156 307 156 281 156 c 128,-1,98
 255 156 255 156 237 174.5 c 128,-1,99
 219 193 219 193 219 219 c 128,-1,100
 219 245 219 245 237 263 c 128,-1,101
 255 281 255 281 281 281 c 256,93,94
781 281 m 256,102,103
 807 281 807 281 825.5 263 c 128,-1,104
 844 245 844 245 844 219 c 128,-1,105
 844 193 844 193 825.5 174.5 c 128,-1,106
 807 156 807 156 781 156 c 128,-1,107
 755 156 755 156 737 174.5 c 128,-1,108
 719 193 719 193 719 219 c 128,-1,109
 719 245 719 245 737 263 c 128,-1,110
 755 281 755 281 781 281 c 256,102,103
156 563 m 0,111,112
 156 596 156 596 173 625 c 128,-1,113
 190 654 190 654 218.5 670.5 c 128,-1,114
 247 687 247 687 281 687.5 c 128,-1,115
 315 688 315 688 344 671 c 128,-1,116
 373 654 373 654 389.5 625 c 128,-1,117
 406 596 406 596 406 562.5 c 128,-1,118
 406 529 406 529 389.5 500 c 128,-1,119
 373 471 373 471 344 454.5 c 128,-1,120
 315 438 315 438 281 437.5 c 128,-1,121
 247 437 247 437 218.5 454 c 128,-1,122
 190 471 190 471 173 500 c 128,-1,123
 156 529 156 529 156 563 c 0,111,112
250 531 m 1,124,-1
 250 500 l 2,125,126
 250 487 250 487 259 478 c 128,-1,127
 268 469 268 469 281 469 c 128,-1,128
 294 469 294 469 303.5 478 c 128,-1,129
 313 487 313 487 313 500 c 2,130,-1
 313 531 l 1,131,-1
 344 531 l 2,132,133
 357 531 357 531 366 540.5 c 128,-1,134
 375 550 375 550 375 562.5 c 128,-1,135
 375 575 375 575 366 584.5 c 128,-1,136
 357 594 357 594 344 594 c 2,137,-1
 313 594 l 1,138,-1
 313 625 l 2,139,140
 313 638 313 638 303.5 647 c 128,-1,141
 294 656 294 656 281 656 c 128,-1,142
 268 656 268 656 259 647 c 128,-1,143
 250 638 250 638 250 625 c 2,144,-1
 250 594 l 1,145,-1
 219 594 l 2,146,147
 206 594 206 594 197 584.5 c 128,-1,148
 188 575 188 575 188 562.5 c 128,-1,149
 188 550 188 550 197 540.5 c 128,-1,150
 206 531 206 531 219 531 c 2,151,-1
 250 531 l 1,124,-1
EndSplineSet
EndChar

StartChar: answer-all_16
Encoding: 59981 59981 34
Width: 1000
GlyphClass: 1
Flags: W
LayerCount: 2
Fore
SplineSet
575 831 m 2,0,1
 593 849 593 849 593 874.5 c 128,-1,2
 593 900 593 900 575 918.5 c 128,-1,3
 557 937 557 937 531 937 c 128,-1,4
 505 937 505 937 487 919 c 2,5,-1
 331 763 l 2,6,7
 313 745 313 745 313 719 c 128,-1,8
 313 693 313 693 331 675 c 2,9,-1
 487 518 l 2,10,11
 499 506 499 506 515 501.5 c 128,-1,12
 531 497 531 497 547.5 501.5 c 128,-1,13
 564 506 564 506 576 518 c 128,-1,14
 588 530 588 530 592.5 546 c 128,-1,15
 597 562 597 562 592.5 578.5 c 128,-1,16
 588 595 588 595 575 607 c 2,17,-1
 526 656 l 1,18,-1
 750 656 l 2,19,20
 784 656 784 656 812.5 639.5 c 128,-1,21
 841 623 841 623 858 594 c 128,-1,22
 875 565 875 565 875 531 c 0,23,24
 875 505 875 505 893.5 487 c 128,-1,25
 912 469 912 469 937.5 469 c 128,-1,26
 963 469 963 469 981.5 487 c 128,-1,27
 1000 505 1000 505 1000 531 c 0,28,29
 1000 599 1000 599 966.5 656.5 c 128,-1,30
 933 714 933 714 875.5 747.5 c 128,-1,31
 818 781 818 781 750 781 c 2,32,-1
 526 781 l 1,33,-1
 575 831 l 2,0,1
797 469 m 2,34,-1
 213 469 l 1,35,-1
 263 518 l 2,36,37
 275 530 275 530 279.5 546.5 c 128,-1,38
 284 563 284 563 280 579 c 128,-1,39
 276 595 276 595 264 607 c 128,-1,40
 252 619 252 619 235.5 623.5 c 128,-1,41
 219 628 219 628 202.5 623.5 c 128,-1,42
 186 619 186 619 175 607 c 2,43,-1
 18 450 l 2,44,45
 0 432 0 432 0 406 c 128,-1,46
 0 380 0 380 18 362 c 2,47,-1
 175 206 l 2,48,49
 193 188 193 188 218.5 188 c 128,-1,50
 244 188 244 188 262 206.5 c 128,-1,51
 280 225 280 225 280.5 250.5 c 128,-1,52
 281 276 281 276 263 294 c 2,53,-1
 213 344 l 1,54,-1
 797 344 l 2,55,56
 829 344 829 344 852 321 c 128,-1,57
 875 298 875 298 875 265.5 c 128,-1,58
 875 233 875 233 852 210 c 128,-1,59
 829 187 829 187 797 187 c 2,60,-1
 688 187 l 2,61,62
 662 188 662 188 643.5 169.5 c 128,-1,63
 625 151 625 151 625 125 c 128,-1,64
 625 99 625 99 643.5 81 c 128,-1,65
 662 63 662 63 688 63 c 2,66,-1
 797 63 l 2,67,68
 852 63 852 63 898.5 90 c 128,-1,69
 945 117 945 117 972.5 163.5 c 128,-1,70
 1000 210 1000 210 1000 265.5 c 128,-1,71
 1000 321 1000 321 972.5 367.5 c 128,-1,72
 945 414 945 414 898.5 441.5 c 128,-1,73
 852 469 852 469 797 469 c 2,34,-1
EndSplineSet
EndChar

StartChar: answer_16
Encoding: 59982 59982 35
Width: 1000
GlyphClass: 1
Flags: W
LayerCount: 2
Fore
SplineSet
357 893 m 2,0,1
 374 912 374 912 374 937.5 c 128,-1,2
 374 963 374 963 356 981 c 128,-1,3
 338 999 338 999 312.5 999 c 128,-1,4
 287 999 287 999 268 982 c 2,5,-1
 18 732 l 2,6,7
 0 713 0 713 0 687.5 c 128,-1,8
 0 662 0 662 18 643 c 2,9,-1
 268 393 l 2,10,11
 287 376 287 376 312.5 376 c 128,-1,12
 338 376 338 376 356 394 c 128,-1,13
 374 412 374 412 374 437.5 c 128,-1,14
 374 463 374 463 357 482 c 2,15,-1
 213 625 l 1,16,-1
 688 625 l 2,17,18
 738 625 738 625 781.5 600 c 128,-1,19
 825 575 825 575 850 531.5 c 128,-1,20
 875 488 875 488 875 437.5 c 128,-1,21
 875 387 875 387 850 343.5 c 128,-1,22
 825 300 825 300 781.5 275 c 128,-1,23
 738 250 738 250 688 250 c 2,24,-1
 625 250 l 2,25,26
 599 250 599 250 581 231.5 c 128,-1,27
 563 213 563 213 563 187.5 c 128,-1,28
 563 162 563 162 581 143.5 c 128,-1,29
 599 125 599 125 625 125 c 2,30,-1
 688 125 l 2,31,32
 772 125 772 125 845 168 c 0,33,34
 916 209 916 209 957 280 c 0,35,36
 1000 353 1000 353 1000 437.5 c 128,-1,37
 1000 522 1000 522 957 595 c 0,38,39
 916 666 916 666 845 707 c 0,40,41
 772 750 772 750 688 750 c 2,42,-1
 213 750 l 1,43,-1
 357 893 l 2,0,1
EndSplineSet
EndChar

StartChar: answer_20
Encoding: 59983 59983 36
Width: 1000
GlyphClass: 1
Flags: W
LayerCount: 2
Fore
SplineSet
285 915 m 2,0,1
 300 929 300 929 299.5 949.5 c 128,-1,2
 299 970 299 970 284.5 984.5 c 128,-1,3
 270 999 270 999 249.5 999.5 c 128,-1,4
 229 1000 229 1000 215 985 c 2,5,-1
 15 785 l 2,6,7
 0 771 0 771 0 750 c 128,-1,8
 0 729 0 729 15 715 c 2,9,-1
 215 515 l 2,10,11
 229 500 229 500 249.5 500.5 c 128,-1,12
 270 501 270 501 284.5 515.5 c 128,-1,13
 299 530 299 530 299.5 550.5 c 128,-1,14
 300 571 300 571 285 585 c 2,15,-1
 171 700 l 1,16,-1
 700 700 l 2,17,18
 754 700 754 700 800 673 c 128,-1,19
 846 646 846 646 873 600 c 128,-1,20
 900 554 900 554 900 500 c 128,-1,21
 900 446 900 446 873 400 c 128,-1,22
 846 354 846 354 800 327 c 128,-1,23
 754 300 754 300 700 300 c 2,24,-1
 629 300 l 2,25,26
 608 300 608 300 593.5 285.5 c 128,-1,27
 579 271 579 271 579 250 c 128,-1,28
 579 229 579 229 593.5 214.5 c 128,-1,29
 608 200 608 200 629 200 c 2,30,-1
 700 200 l 2,31,32
 781 200 781 200 851 241 c 0,33,34
 919 281 919 281 959 349 c 0,35,36
 1000 419 1000 419 1000 500 c 128,-1,37
 1000 581 1000 581 959 651 c 0,38,39
 919 719 919 719 851 759 c 0,40,41
 781 800 781 800 700 800 c 2,42,-1
 171 800 l 1,43,-1
 285 915 l 2,0,1
EndSplineSet
EndChar

StartChar: answer_32
Encoding: 59984 59984 37
Width: 1000
GlyphClass: 1
Flags: W
LayerCount: 2
Fore
SplineSet
272 853 m 2,0,1
 281 862 281 862 281 875 c 128,-1,2
 281 888 281 888 272 897 c 128,-1,3
 263 906 263 906 250 906 c 128,-1,4
 237 906 237 906 228 897 c 2,5,-1
 9 678 l 2,6,7
 0 669 0 669 0 656 c 128,-1,8
 0 643 0 643 9 634 c 2,9,-1
 228 415 l 2,10,11
 237 407 237 407 250 407 c 128,-1,12
 263 407 263 407 272 416 c 128,-1,13
 281 425 281 425 281 437.5 c 128,-1,14
 281 450 281 450 272 460 c 2,15,-1
 107 625 l 1,16,-1
 703 625 l 2,17,18
 767 625 767 625 820.5 593.5 c 128,-1,19
 874 562 874 562 906 508 c 128,-1,20
 938 454 938 454 938 390.5 c 128,-1,21
 938 327 938 327 906 273 c 128,-1,22
 874 219 874 219 820.5 187.5 c 128,-1,23
 767 156 767 156 703 156 c 2,24,-1
 634 156 l 2,25,26
 621 156 621 156 612 147 c 128,-1,27
 603 138 603 138 603 125 c 128,-1,28
 603 112 603 112 612 103 c 128,-1,29
 621 94 621 94 634 94 c 2,30,-1
 703 94 l 2,31,32
 784 94 784 94 853 134 c 0,33,34
 920 174 920 174 959 241 c 0,35,36
 1000 310 1000 310 1000 390.5 c 128,-1,37
 1000 471 1000 471 959 540 c 0,38,39
 920 608 920 608 853 647 c 0,40,41
 784 687 784 687 703 688 c 2,42,-1
 107 688 l 1,43,-1
 272 853 l 2,0,1
EndSplineSet
EndChar

StartChar: application_16
Encoding: 59985 59985 38
Width: 1000
GlyphClass: 1
Flags: W
LayerCount: 2
Fore
SplineSet
0 875 m 2,0,1
 0 909 0 909 17 937.5 c 128,-1,2
 34 966 34 966 62.5 983 c 128,-1,3
 91 1000 91 1000 125 1000 c 2,4,-1
 688 1000 l 2,5,6
 721 1000 721 1000 750 983 c 128,-1,7
 779 966 779 966 795.5 937.5 c 128,-1,8
 812 909 812 909 812 875 c 2,9,-1
 812 375 l 2,10,11
 812 349 812 349 794 331 c 128,-1,12
 776 313 776 313 750 313 c 128,-1,13
 724 313 724 313 705.5 331 c 128,-1,14
 687 349 687 349 687 375 c 2,15,-1
 687 875 l 1,16,-1
 125 875 l 1,17,-1
 125 125 l 1,18,-1
 500 125 l 2,19,20
 526 125 526 125 544.5 106.5 c 128,-1,21
 563 88 563 88 563 62.5 c 128,-1,22
 563 37 563 37 544.5 18.5 c 128,-1,23
 526 0 526 0 500 0 c 2,24,-1
 125 0 l 2,25,26
 91 0 91 0 62.5 17 c 128,-1,27
 34 34 34 34 17 62.5 c 128,-1,28
 0 91 0 91 0 125 c 2,29,-1
 0 875 l 2,0,1
975 363 m 1,30,31
 996 347 996 347 999.5 321.5 c 128,-1,32
 1003 296 1003 296 988 275 c 2,33,-1
 800 25 l 2,34,35
 783 2 783 2 754.5 0 c 128,-1,36
 726 -2 726 -2 706 18 c 2,37,-1
 581 143 l 2,38,39
 569 155 569 155 564 171.5 c 128,-1,40
 559 188 559 188 563.5 204 c 128,-1,41
 568 220 568 220 580 232 c 128,-1,42
 592 244 592 244 608.5 248.5 c 128,-1,43
 625 253 625 253 641 248.5 c 128,-1,44
 657 244 657 244 669 232 c 2,45,-1
 743 158 l 1,46,-1
 888 350 l 2,47,48
 903 371 903 371 928.5 374.5 c 128,-1,49
 954 378 954 378 975 362 c 1,50,-1
 975 363 l 1,30,31
188 313 m 0,51,52
 188 338 188 338 206 356.5 c 128,-1,53
 224 375 224 375 250 375 c 2,54,-1
 375 375 l 2,55,56
 401 375 401 375 419 356.5 c 128,-1,57
 437 338 437 338 437.5 312.5 c 128,-1,58
 438 287 438 287 419.5 268.5 c 128,-1,59
 401 250 401 250 375 250 c 2,60,-1
 250 250 l 2,61,62
 224 250 224 250 206 268.5 c 128,-1,63
 188 287 188 287 188 313 c 0,51,52
188 500 m 256,64,65
 188 526 188 526 206 544.5 c 128,-1,66
 224 563 224 563 250 563 c 2,67,-1
 563 563 l 2,68,69
 588 562 588 562 606.5 544 c 128,-1,70
 625 526 625 526 625 500 c 128,-1,71
 625 474 625 474 606.5 455.5 c 128,-1,72
 588 437 588 437 562 438 c 2,73,-1
 250 438 l 2,74,75
 224 437 224 437 206 455.5 c 128,-1,76
 188 474 188 474 188 500 c 256,64,65
188 688 m 0,77,78
 188 713 188 713 206 731.5 c 128,-1,79
 224 750 224 750 250 750 c 2,80,-1
 563 750 l 2,81,82
 588 750 588 750 606.5 731.5 c 128,-1,83
 625 713 625 713 625 687.5 c 128,-1,84
 625 662 625 662 606.5 643.5 c 128,-1,85
 588 625 588 625 562 625 c 2,86,-1
 250 625 l 2,87,88
 224 625 224 625 206 643.5 c 128,-1,89
 188 662 188 662 188 688 c 0,77,78
EndSplineSet
EndChar

StartChar: app_32
Encoding: 59986 59986 39
Width: 1000
GlyphClass: 1
Flags: W
LayerCount: 2
Fore
SplineSet
656 1000 m 2,0,-1
 250 1000 l 2,1,2
 216 1000 216 1000 187.5 983 c 128,-1,3
 159 966 159 966 142 937.5 c 128,-1,4
 125 909 125 909 125 875 c 2,5,-1
 125 859 l 2,6,7
 125 846 125 846 134 837 c 128,-1,8
 143 828 143 828 156 828 c 128,-1,9
 169 828 169 828 178.5 837 c 128,-1,10
 188 846 188 846 188 859 c 2,11,-1
 188 875 l 2,12,13
 188 901 188 901 206 919.5 c 128,-1,14
 224 938 224 938 250 938 c 2,15,-1
 322 938 l 2,16,17
 331 938 331 938 337 931 c 0,18,19
 362 906 362 906 397 906 c 2,20,-1
 508 906 l 2,21,22
 544 906 544 906 569 930 c 0,23,24
 577 937 577 937 588 937 c 2,25,-1
 656 937 l 2,26,27
 682 937 682 937 700.5 919 c 128,-1,28
 719 901 719 901 719 875 c 2,29,-1
 719 859 l 2,30,31
 719 846 719 846 728 837 c 128,-1,32
 737 828 737 828 750 828 c 128,-1,33
 763 828 763 828 772 837 c 128,-1,34
 781 846 781 846 781 859 c 2,35,-1
 781 875 l 2,36,37
 781 909 781 909 764.5 937.5 c 128,-1,38
 748 966 748 966 719 983 c 128,-1,39
 690 1000 690 1000 656 1000 c 2,0,-1
618 772 m 2,40,41
 643 766 643 766 656.5 744 c 128,-1,42
 670 722 670 722 663 696 c 2,43,-1
 647 632 l 2,44,45
 641 607 641 607 619 593.5 c 128,-1,46
 597 580 597 580 571 587 c 2,47,-1
 507 603 l 2,48,49
 482 609 482 609 468.5 631 c 128,-1,50
 455 653 455 653 462 679 c 2,51,-1
 478 743 l 2,52,53
 484 768 484 768 506 781.5 c 128,-1,54
 528 795 528 795 554 788 c 2,55,-1
 618 772 l 2,40,41
603 712 m 1,56,-1
 538 728 l 1,57,-1
 522 663 l 1,58,-1
 587 647 l 1,59,-1
 603 712 l 1,56,-1
188 219 m 2,60,-1
 188 750 l 2,61,62
 188 763 188 763 178.5 772 c 128,-1,63
 169 781 169 781 156 781 c 128,-1,64
 143 781 143 781 134 772 c 128,-1,65
 125 763 125 763 125 750 c 2,66,-1
 125 219 l 2,67,68
 125 185 125 185 142 156 c 128,-1,69
 159 127 159 127 187.5 110.5 c 128,-1,70
 216 94 216 94 250 94 c 2,71,-1
 515 94 l 1,72,-1
 568 14 l 2,73,74
 575 3 575 3 587.5 0.5 c 128,-1,75
 600 -2 600 -2 611 5 c 128,-1,76
 622 12 622 12 624.5 25 c 128,-1,77
 627 38 627 38 620 49 c 2,78,-1
 590 94 l 1,79,-1
 707 94 l 2,80,81
 716 94 716 94 724 99 c 128,-1,82
 732 104 732 104 735.5 113 c 128,-1,83
 739 122 739 122 737 131.5 c 128,-1,84
 735 141 735 141 728 147 c 2,85,-1
 644 229 l 2,86,87
 625 248 625 248 625 274 c 2,88,-1
 625 309 l 2,89,90
 625 355 625 355 594 391 c 2,91,-1
 546 446 l 2,92,93
 538 455 538 455 538 466.5 c 128,-1,94
 538 478 538 478 546 486.5 c 128,-1,95
 554 495 554 495 565.5 496 c 128,-1,96
 577 497 577 497 586 490 c 2,97,-1
 731 381 l 2,98,99
 738 376 738 376 747 375 c 128,-1,100
 756 374 756 374 764 378 c 128,-1,101
 772 382 772 382 776.5 389.5 c 128,-1,102
 781 397 781 397 781 406 c 2,103,-1
 781 487 l 1,104,-1
 803 465 l 2,105,106
 812 456 812 456 812 443 c 2,107,-1
 812 31 l 2,108,109
 813 18 813 18 822 9 c 128,-1,110
 831 0 831 0 844 0 c 128,-1,111
 857 0 857 0 866 9 c 128,-1,112
 875 18 875 18 875 31 c 2,113,-1
 875 443 l 2,114,115
 875 482 875 482 848 509 c 2,116,-1
 781 575 l 1,117,-1
 781 750 l 2,118,119
 781 763 781 763 772 772 c 128,-1,120
 763 781 763 781 750 781 c 128,-1,121
 737 781 737 781 728 772 c 128,-1,122
 719 763 719 763 719 750 c 2,123,-1
 719 469 l 1,124,-1
 624 540 l 2,125,126
 595 561 595 561 560 558 c 128,-1,127
 525 555 525 555 500.5 529 c 128,-1,128
 476 503 476 503 475.5 467.5 c 128,-1,129
 475 432 475 432 499 405 c 2,130,-1
 547 350 l 2,131,132
 563 332 563 332 562 309 c 2,133,-1
 562 274 l 2,134,135
 563 249 563 249 572.5 225.5 c 128,-1,136
 582 202 582 202 601 184 c 2,137,-1
 630 156 l 1,138,-1
 250 156 l 2,139,140
 224 156 224 156 206 174.5 c 128,-1,141
 188 193 188 193 188 219 c 2,60,-1
453 219 m 0,142,143
 473 219 473 219 486.5 232.5 c 128,-1,144
 500 246 500 246 500 265.5 c 128,-1,145
 500 285 500 285 486.5 299 c 128,-1,146
 473 313 473 313 453.5 313 c 128,-1,147
 434 313 434 313 420 299 c 128,-1,148
 406 285 406 285 406 265.5 c 128,-1,149
 406 246 406 246 420 232.5 c 128,-1,150
 434 219 434 219 453 219 c 0,142,143
375 563 m 2,151,-1
 313 563 l 2,152,153
 287 562 287 562 268.5 544 c 128,-1,154
 250 526 250 526 250 500 c 2,155,-1
 250 438 l 2,156,157
 250 412 250 412 268.5 393.5 c 128,-1,158
 287 375 287 375 313 375 c 2,159,-1
 375 375 l 2,160,161
 401 375 401 375 419.5 393.5 c 128,-1,162
 438 412 438 412 437 438 c 2,163,-1
 437 500 l 2,164,165
 438 526 438 526 419.5 544.5 c 128,-1,166
 401 563 401 563 375 563 c 2,151,-1
313 438 m 1,167,-1
 313 500 l 1,168,-1
 375 500 l 1,169,-1
 375 438 l 1,170,-1
 313 438 l 1,167,-1
313 781 m 2,171,-1
 375 781 l 2,172,173
 401 781 401 781 419 763 c 128,-1,174
 437 745 437 745 437 719 c 2,175,-1
 437 656 l 2,176,177
 438 630 438 630 419.5 612 c 128,-1,178
 401 594 401 594 375 594 c 2,179,-1
 313 594 l 2,180,181
 287 594 287 594 268.5 612 c 128,-1,182
 250 630 250 630 250 656 c 2,183,-1
 250 719 l 2,184,185
 250 745 250 745 268.5 763 c 128,-1,186
 287 781 287 781 313 781 c 2,171,-1
313 719 m 1,187,-1
 313 656 l 1,188,-1
 375 656 l 1,189,-1
 375 719 l 1,190,-1
 313 719 l 1,187,-1
EndSplineSet
EndChar

StartChar: archive_16
Encoding: 59987 59987 40
Width: 1000
GlyphClass: 1
Flags: W
LayerCount: 2
Fore
SplineSet
125 938 m 2,0,1
 91 938 91 938 62.5 921 c 128,-1,2
 34 904 34 904 17 875 c 128,-1,3
 0 846 0 846 0 812 c 2,4,-1
 0 750 l 2,5,6
 0 716 0 716 17 687.5 c 128,-1,7
 34 659 34 659 62.5 642 c 128,-1,8
 91 625 91 625 125 625 c 2,9,-1
 875 625 l 2,10,11
 909 625 909 625 937.5 642 c 128,-1,12
 966 659 966 659 983 687.5 c 128,-1,13
 1000 716 1000 716 1000 750 c 2,14,-1
 1000 813 l 2,15,16
 1000 846 1000 846 983 875 c 128,-1,17
 966 904 966 904 937.5 921 c 128,-1,18
 909 938 909 938 875 938 c 2,19,-1
 125 938 l 2,0,1
125 813 m 1,20,-1
 875 813 l 1,21,-1
 875 750 l 1,22,-1
 125 750 l 1,23,-1
 125 813 l 1,20,-1
125 563 m 256,24,25
 151 563 151 563 169 544.5 c 128,-1,26
 187 526 187 526 187 500 c 2,27,-1
 187 250 l 2,28,29
 187 224 187 224 205.5 206 c 128,-1,30
 224 188 224 188 250 188 c 2,31,-1
 750 188 l 2,32,33
 776 188 776 188 794.5 206 c 128,-1,34
 813 224 813 224 813 250 c 2,35,-1
 813 500 l 2,36,37
 812 526 812 526 830.5 544.5 c 128,-1,38
 849 563 849 563 875 562.5 c 128,-1,39
 901 562 901 562 919.5 544 c 128,-1,40
 938 526 938 526 938 500 c 2,41,-1
 938 250 l 2,42,43
 937 199 937 199 912 156 c 128,-1,44
 887 113 887 113 844 87.5 c 128,-1,45
 801 62 801 62 750 62 c 2,46,-1
 250 62 l 2,47,48
 199 63 199 63 156 88 c 128,-1,49
 113 113 113 113 87.5 156 c 128,-1,50
 62 199 62 199 62 250 c 2,51,-1
 62 500 l 2,52,53
 63 526 63 526 81 544.5 c 128,-1,54
 99 563 99 563 125 563 c 256,24,25
375 500 m 2,55,56
 349 500 349 500 331 481.5 c 128,-1,57
 313 463 313 463 313 437.5 c 128,-1,58
 313 412 313 412 331 393.5 c 128,-1,59
 349 375 349 375 375 375 c 2,60,-1
 625 375 l 2,61,62
 651 375 651 375 669 393.5 c 128,-1,63
 687 412 687 412 687.5 437.5 c 128,-1,64
 688 463 688 463 669.5 481.5 c 128,-1,65
 651 500 651 500 625 500 c 2,66,-1
 375 500 l 2,55,56
EndSplineSet
EndChar

StartChar: archive_20
Encoding: 59988 59988 41
Width: 1000
GlyphClass: 1
Flags: W
LayerCount: 2
Fore
SplineSet
100 925 m 2,0,1
 73 925 73 925 50 911.5 c 128,-1,2
 27 898 27 898 13.5 875 c 128,-1,3
 0 852 0 852 0 825 c 2,4,-1
 0 725 l 2,5,6
 0 698 0 698 13.5 675 c 128,-1,7
 27 652 27 652 50 638.5 c 128,-1,8
 73 625 73 625 100 625 c 2,9,-1
 900 625 l 2,10,11
 927 625 927 625 950 638.5 c 128,-1,12
 973 652 973 652 986.5 675 c 128,-1,13
 1000 698 1000 698 1000 725 c 2,14,-1
 1000 825 l 2,15,16
 1000 852 1000 852 986.5 875 c 128,-1,17
 973 898 973 898 950 911.5 c 128,-1,18
 927 925 927 925 900 925 c 2,19,-1
 100 925 l 2,0,1
100 825 m 1,20,-1
 900 825 l 1,21,-1
 900 725 l 1,22,-1
 100 725 l 1,23,-1
 100 825 l 1,20,-1
150 575 m 256,24,25
 171 575 171 575 185.5 560.5 c 128,-1,26
 200 546 200 546 200 525 c 2,27,-1
 200 225 l 2,28,29
 200 204 200 204 214.5 189.5 c 128,-1,30
 229 175 229 175 250 175 c 2,31,-1
 750 175 l 2,32,33
 771 175 771 175 785.5 189.5 c 128,-1,34
 800 204 800 204 800 225 c 2,35,-1
 800 525 l 2,36,37
 800 546 800 546 814.5 560.5 c 128,-1,38
 829 575 829 575 850 575 c 128,-1,39
 871 575 871 575 885.5 560.5 c 128,-1,40
 900 546 900 546 900 525 c 2,41,-1
 900 225 l 2,42,43
 900 184 900 184 880 149.5 c 128,-1,44
 860 115 860 115 825.5 95 c 128,-1,45
 791 75 791 75 750 75 c 2,46,-1
 250 75 l 2,47,48
 209 75 209 75 174.5 95 c 128,-1,49
 140 115 140 115 120 149.5 c 128,-1,50
 100 184 100 184 100 225 c 2,51,-1
 100 525 l 2,52,53
 100 546 100 546 114.5 560.5 c 128,-1,54
 129 575 129 575 150 575 c 256,24,25
400 525 m 2,55,56
 379 525 379 525 364.5 510.5 c 128,-1,57
 350 496 350 496 350 475 c 128,-1,58
 350 454 350 454 364.5 439.5 c 128,-1,59
 379 425 379 425 400 425 c 2,60,-1
 600 425 l 2,61,62
 621 425 621 425 635.5 439.5 c 128,-1,63
 650 454 650 454 650 475 c 128,-1,64
 650 496 650 496 635.5 510.5 c 128,-1,65
 621 525 621 525 600 525 c 2,66,-1
 400 525 l 2,55,56
EndSplineSet
EndChar

StartChar: archive_32
Encoding: 59989 59989 42
Width: 1000
GlyphClass: 1
Flags: W
LayerCount: 2
Fore
SplineSet
94 906 m 2,0,1
 55 906 55 906 27.5 878.5 c 128,-1,2
 0 851 0 851 0 813 c 2,3,-1
 0 750 l 2,4,5
 0 711 0 711 27.5 683.5 c 128,-1,6
 55 656 55 656 94 656 c 2,7,-1
 906 656 l 2,8,9
 945 656 945 656 972.5 683.5 c 128,-1,10
 1000 711 1000 711 1000 750 c 2,11,-1
 1000 813 l 2,12,13
 1000 851 1000 851 972.5 878.5 c 128,-1,14
 945 906 945 906 906 906 c 2,15,-1
 94 906 l 2,0,1
63 813 m 2,16,17
 63 825 63 825 72 834.5 c 128,-1,18
 81 844 81 844 94 844 c 2,19,-1
 906 844 l 2,20,21
 919 844 919 844 928.5 834.5 c 128,-1,22
 938 825 938 825 938 813 c 2,23,-1
 938 750 l 2,24,25
 938 737 938 737 928.5 728 c 128,-1,26
 919 719 919 719 906 719 c 2,27,-1
 94 719 l 2,28,29
 81 719 81 719 72 728 c 128,-1,30
 63 737 63 737 63 750 c 2,31,-1
 63 813 l 2,16,17
125 625 m 256,32,33
 138 625 138 625 147 616 c 128,-1,34
 156 607 156 607 156 594 c 2,35,-1
 156 219 l 2,36,37
 156 193 156 193 174.5 174.5 c 128,-1,38
 193 156 193 156 219 156 c 2,39,-1
 781 156 l 2,40,41
 807 156 807 156 825.5 174.5 c 128,-1,42
 844 193 844 193 844 219 c 2,43,-1
 844 594 l 2,44,45
 844 607 844 607 853 616 c 128,-1,46
 862 625 862 625 875 625 c 128,-1,47
 888 625 888 625 897 616 c 128,-1,48
 906 607 906 607 906 594 c 2,49,-1
 906 219 l 2,50,51
 906 185 906 185 889.5 156 c 128,-1,52
 873 127 873 127 844 110.5 c 128,-1,53
 815 94 815 94 781 94 c 2,54,-1
 219 94 l 2,55,56
 185 94 185 94 156 110.5 c 128,-1,57
 127 127 127 127 110.5 156 c 128,-1,58
 94 185 94 185 94 219 c 2,59,-1
 94 594 l 2,60,61
 94 607 94 607 103 616 c 128,-1,62
 112 625 112 625 125 625 c 256,32,33
375 563 m 2,63,64
 362 562 362 562 353 553 c 128,-1,65
 344 544 344 544 344 531 c 128,-1,66
 344 518 344 518 353 509 c 128,-1,67
 362 500 362 500 375 500 c 2,68,-1
 625 500 l 2,69,70
 638 500 638 500 647 509 c 128,-1,71
 656 518 656 518 656 531 c 128,-1,72
 656 544 656 544 647 553.5 c 128,-1,73
 638 563 638 563 625 563 c 2,74,-1
 375 563 l 2,63,64
EndSplineSet
EndChar

StartChar: area_16
Encoding: 59990 59990 43
Width: 1000
GlyphClass: 1
Flags: W
LayerCount: 2
Fore
SplineSet
188 813 m 2,0,1
 188 838 188 838 206 856.5 c 128,-1,2
 224 875 224 875 250 875 c 2,3,-1
 438 875 l 2,4,5
 463 875 463 875 481.5 893.5 c 128,-1,6
 500 912 500 912 500 937.5 c 128,-1,7
 500 963 500 963 481.5 981.5 c 128,-1,8
 463 1000 463 1000 437 1000 c 2,9,-1
 250 1000 l 2,10,11
 199 1000 199 1000 156 975 c 128,-1,12
 113 950 113 950 87.5 906.5 c 128,-1,13
 62 863 62 863 62 813 c 2,14,-1
 62 188 l 2,15,16
 63 137 63 137 88 93.5 c 128,-1,17
 113 50 113 50 156 25 c 128,-1,18
 199 0 199 0 250 0 c 2,19,-1
 617 0 l 2,20,21
 666 0 666 0 709 24.5 c 128,-1,22
 752 49 752 49 778 91 c 2,23,-1
 911 313 l 2,24,25
 938 358 938 358 938 410 c 2,26,-1
 938 813 l 2,27,28
 938 863 938 863 912.5 906.5 c 128,-1,29
 887 950 887 950 844 975 c 128,-1,30
 801 1000 801 1000 750 1000 c 2,31,-1
 625 1000 l 2,32,33
 599 1000 599 1000 581 981.5 c 128,-1,34
 563 963 563 963 563 937 c 2,35,-1
 563 644 l 1,36,-1
 467 500 l 1,37,-1
 313 500 l 2,38,39
 287 500 287 500 268.5 481.5 c 128,-1,40
 250 463 250 463 250 437.5 c 128,-1,41
 250 412 250 412 268.5 393.5 c 128,-1,42
 287 375 287 375 313 375 c 2,43,-1
 438 375 l 1,44,-1
 438 250 l 2,45,46
 437 224 437 224 455.5 206 c 128,-1,47
 474 188 474 188 500 188 c 128,-1,48
 526 188 526 188 544.5 206 c 128,-1,49
 563 224 563 224 563 250 c 2,50,-1
 563 419 l 1,51,-1
 667 575 l 2,52,53
 688 606 688 606 688 644 c 2,54,-1
 688 875 l 1,55,-1
 750 875 l 2,56,57
 776 875 776 875 794.5 856.5 c 128,-1,58
 813 838 813 838 813 812 c 2,59,-1
 813 410 l 2,60,61
 812 392 812 392 804 377 c 2,62,-1
 670 155 l 2,63,64
 662 141 662 141 647.5 133 c 128,-1,65
 633 125 633 125 617 125 c 2,66,-1
 250 125 l 2,67,68
 224 125 224 125 206 143.5 c 128,-1,69
 188 162 188 162 188 188 c 2,70,-1
 188 813 l 2,0,1
375 625 m 256,71,72
 401 625 401 625 419 643.5 c 128,-1,73
 437 662 437 662 437.5 687.5 c 128,-1,74
 438 713 438 713 419.5 731.5 c 128,-1,75
 401 750 401 750 375 750 c 128,-1,76
 349 750 349 750 331 731.5 c 128,-1,77
 313 713 313 713 313 687.5 c 128,-1,78
 313 662 313 662 331 643.5 c 128,-1,79
 349 625 349 625 375 625 c 256,71,72
EndSplineSet
EndChar

StartChar: area_20
Encoding: 59991 59991 44
Width: 1000
GlyphClass: 1
Flags: W
LayerCount: 2
Fore
SplineSet
200 850 m 2,0,1
 200 871 200 871 214.5 885.5 c 128,-1,2
 229 900 229 900 250 900 c 2,3,-1
 450 900 l 2,4,5
 471 900 471 900 485.5 914.5 c 128,-1,6
 500 929 500 929 500 950 c 128,-1,7
 500 971 500 971 485.5 985.5 c 128,-1,8
 471 1000 471 1000 450 1000 c 2,9,-1
 250 1000 l 2,10,11
 209 1000 209 1000 174.5 980 c 128,-1,12
 140 960 140 960 120 925.5 c 128,-1,13
 100 891 100 891 100 850 c 2,14,-1
 100 150 l 2,15,16
 100 109 100 109 120 74.5 c 128,-1,17
 140 40 140 40 174.5 20 c 128,-1,18
 209 0 209 0 250 0 c 2,19,-1
 597 0 l 2,20,21
 634 0 634 0 667 18 c 128,-1,22
 700 36 700 36 721 67 c 2,23,-1
 875 297 l 2,24,25
 900 335 900 335 900 380 c 2,26,-1
 900 850 l 2,27,28
 900 891 900 891 880 925.5 c 128,-1,29
 860 960 860 960 825.5 980 c 128,-1,30
 791 1000 791 1000 750 1000 c 2,31,-1
 600 1000 l 2,32,33
 579 1000 579 1000 564.5 985.5 c 128,-1,34
 550 971 550 971 550 950 c 2,35,-1
 550 662 l 1,36,-1
 469 500 l 1,37,-1
 300 500 l 2,38,39
 279 500 279 500 264.5 485.5 c 128,-1,40
 250 471 250 471 250 450 c 128,-1,41
 250 429 250 429 264.5 414.5 c 128,-1,42
 279 400 279 400 300 400 c 2,43,-1
 450 400 l 1,44,-1
 450 200 l 2,45,46
 450 179 450 179 464.5 164.5 c 128,-1,47
 479 150 479 150 500 150 c 128,-1,48
 521 150 521 150 535.5 164.5 c 128,-1,49
 550 179 550 179 550 200 c 2,50,-1
 550 438 l 1,51,-1
 639 617 l 2,52,53
 650 638 650 638 650 662 c 2,54,-1
 650 900 l 1,55,-1
 750 900 l 2,56,57
 771 900 771 900 785.5 885.5 c 128,-1,58
 800 871 800 871 800 850 c 2,59,-1
 800 380 l 2,60,61
 800 365 800 365 792 353 c 2,62,-1
 638 122 l 2,63,64
 631 112 631 112 620 106 c 128,-1,65
 609 100 609 100 596 100 c 2,66,-1
 250 100 l 2,67,68
 229 100 229 100 214.5 114.5 c 128,-1,69
 200 129 200 129 200 150 c 2,70,-1
 200 850 l 2,0,1
400 650 m 256,71,72
 421 650 421 650 435.5 664.5 c 128,-1,73
 450 679 450 679 450 700 c 128,-1,74
 450 721 450 721 435.5 735.5 c 128,-1,75
 421 750 421 750 400 750 c 128,-1,76
 379 750 379 750 364.5 735.5 c 128,-1,77
 350 721 350 721 350 700 c 128,-1,78
 350 679 350 679 364.5 664.5 c 128,-1,79
 379 650 379 650 400 650 c 256,71,72
EndSplineSet
EndChar

StartChar: area_32
Encoding: 59992 59992 45
Width: 1000
GlyphClass: 1
Flags: W
LayerCount: 2
Fore
SplineSet
750 1000 m 2,0,-1
 250 1000 l 2,1,2
 208 1000 208 1000 172 979 c 128,-1,3
 136 958 136 958 115 922 c 128,-1,4
 94 886 94 886 94 844 c 2,5,-1
 94 156 l 2,6,7
 94 114 94 114 115 78 c 128,-1,8
 136 42 136 42 172 21 c 128,-1,9
 208 0 208 0 250 0 c 2,10,-1
 565 0 l 2,11,12
 601 0 601 0 633 15.5 c 128,-1,13
 665 31 665 31 687 59 c 2,14,-1
 872 290 l 2,15,16
 906 333 906 333 906 388 c 2,17,-1
 906 844 l 2,18,19
 906 886 906 886 885 922 c 128,-1,20
 864 958 864 958 828 979 c 128,-1,21
 792 1000 792 1000 750 1000 c 2,0,-1
156 156 m 2,22,-1
 156 844 l 2,23,24
 156 883 156 883 183.5 910 c 128,-1,25
 211 937 211 937 250 937 c 2,26,-1
 750 937 l 2,27,28
 789 938 789 938 816.5 910.5 c 128,-1,29
 844 883 844 883 844 844 c 2,30,-1
 844 388 l 2,31,32
 844 355 844 355 823 329 c 2,33,-1
 638 98 l 2,34,35
 625 81 625 81 605.5 71.5 c 128,-1,36
 586 62 586 62 565 62 c 2,37,-1
 250 62 l 2,38,39
 211 63 211 63 183.5 90 c 128,-1,40
 156 117 156 117 156 156 c 2,22,-1
594 625 m 1,41,-1
 594 875 l 2,42,43
 594 888 594 888 584.5 897 c 128,-1,44
 575 906 575 906 562.5 906 c 128,-1,45
 550 906 550 906 540.5 897 c 128,-1,46
 531 888 531 888 531 875 c 2,47,-1
 531 607 l 1,48,-1
 425 500 l 1,49,-1
 219 500 l 2,50,51
 206 500 206 500 197 491 c 128,-1,52
 188 482 188 482 188 469 c 128,-1,53
 188 456 188 456 197 446.5 c 128,-1,54
 206 437 206 437 219 437 c 2,55,-1
 406 437 l 1,56,-1
 406 125 l 2,57,58
 406 112 406 112 415.5 103 c 128,-1,59
 425 94 425 94 437.5 94 c 128,-1,60
 450 94 450 94 459.5 103 c 128,-1,61
 469 112 469 112 469 125 c 2,62,-1
 469 456 l 1,63,-1
 575 563 l 1,64,-1
 781 563 l 2,65,66
 794 562 794 562 803.5 571.5 c 128,-1,67
 813 581 813 581 813 594 c 128,-1,68
 813 607 813 607 803.5 616 c 128,-1,69
 794 625 794 625 781 625 c 2,70,-1
 594 625 l 1,41,-1
313 281 m 256,71,72
 313 268 313 268 303.5 259 c 128,-1,73
 294 250 294 250 281 250 c 128,-1,74
 268 250 268 250 259 259 c 128,-1,75
 250 268 250 268 250 281 c 128,-1,76
 250 294 250 294 259 303.5 c 128,-1,77
 268 313 268 313 281 313 c 128,-1,78
 294 313 294 313 303.5 303.5 c 128,-1,79
 313 294 313 294 313 281 c 256,71,72
594 359 m 0,80,81
 594 340 594 340 607.5 326.5 c 128,-1,82
 621 313 621 313 640.5 313 c 128,-1,83
 660 313 660 313 673.5 326.5 c 128,-1,84
 687 340 687 340 687.5 359.5 c 128,-1,85
 688 379 688 379 674 392.5 c 128,-1,86
 660 406 660 406 640.5 406 c 128,-1,87
 621 406 621 406 607.5 392.5 c 128,-1,88
 594 379 594 379 594 359 c 0,80,81
719 750 m 256,89,90
 706 750 706 750 697 759 c 128,-1,91
 688 768 688 768 688 781 c 128,-1,92
 688 794 688 794 697 803.5 c 128,-1,93
 706 813 706 813 719 813 c 128,-1,94
 732 813 732 813 741 803.5 c 128,-1,95
 750 794 750 794 750 781 c 128,-1,96
 750 768 750 768 741 759 c 128,-1,97
 732 750 732 750 719 750 c 256,89,90
344 813 m 1,98,99
 305 813 305 813 277.5 785.5 c 128,-1,100
 250 758 250 758 250 719 c 128,-1,101
 250 680 250 680 277.5 652.5 c 128,-1,102
 305 625 305 625 344 625 c 128,-1,103
 383 625 383 625 410.5 652.5 c 128,-1,104
 438 680 438 680 437.5 719 c 128,-1,105
 437 758 437 758 410 785.5 c 128,-1,106
 383 813 383 813 344 812 c 1,107,-1
 344 813 l 1,98,99
313 719 m 256,108,109
 313 732 313 732 322 741 c 128,-1,110
 331 750 331 750 344 750 c 128,-1,111
 357 750 357 750 366 741 c 128,-1,112
 375 732 375 732 375 719 c 128,-1,113
 375 706 375 706 366 697 c 128,-1,114
 357 688 357 688 344 688 c 128,-1,115
 331 688 331 688 322 697 c 128,-1,116
 313 706 313 706 313 719 c 256,108,109
EndSplineSet
EndChar

StartChar: area_56
Encoding: 59993 59993 46
Width: 1000
GlyphClass: 1
Flags: W
LayerCount: 2
Fore
SplineSet
777 1000 m 2,0,-1
 223 1000 l 2,1,2
 187 1000 187 1000 156 982 c 128,-1,3
 125 964 125 964 107 933 c 128,-1,4
 89 902 89 902 89 866 c 2,5,-1
 89 134 l 2,6,7
 89 98 89 98 107 67 c 128,-1,8
 125 36 125 36 156 18 c 128,-1,9
 187 0 187 0 223 0 c 2,10,-1
 582 0 l 2,11,12
 613 0 613 0 640.5 13.5 c 128,-1,13
 668 27 668 27 687 52 c 2,14,-1
 883 303 l 2,15,16
 911 339 911 339 911 385 c 2,17,-1
 911 866 l 2,18,19
 911 902 911 902 893 933 c 128,-1,20
 875 964 875 964 844 982 c 128,-1,21
 813 1000 813 1000 777 1000 c 2,0,-1
143 134 m 2,22,-1
 143 866 l 2,23,24
 143 899 143 899 166.5 922.5 c 128,-1,25
 190 946 190 946 223 946 c 2,26,-1
 777 946 l 2,27,28
 810 946 810 946 833.5 922.5 c 128,-1,29
 857 899 857 899 857 866 c 2,30,-1
 857 385 l 2,31,32
 857 357 857 357 840 336 c 2,33,-1
 645 85 l 2,34,35
 634 70 634 70 617 62 c 128,-1,36
 600 54 600 54 582 54 c 2,37,-1
 223 54 l 2,38,39
 190 54 190 54 166.5 77.5 c 128,-1,40
 143 101 143 101 143 134 c 2,22,-1
589 625 m 1,41,-1
 589 902 l 2,42,43
 589 913 589 913 581.5 921 c 128,-1,44
 574 929 574 929 562.5 929 c 128,-1,45
 551 929 551 929 543.5 921 c 128,-1,46
 536 913 536 913 536 902 c 2,47,-1
 536 609 l 1,48,-1
 426 500 l 1,49,-1
 188 500 l 2,50,51
 176 500 176 500 168.5 492 c 128,-1,52
 161 484 161 484 161 473 c 128,-1,53
 161 462 161 462 168.5 454 c 128,-1,54
 176 446 176 446 188 446 c 2,55,-1
 411 446 l 1,56,-1
 411 98 l 2,57,58
 411 87 411 87 418.5 79 c 128,-1,59
 426 71 426 71 437.5 71 c 128,-1,60
 449 71 449 71 456.5 79 c 128,-1,61
 464 87 464 87 464 98 c 2,62,-1
 464 462 l 1,63,-1
 574 571 l 1,64,-1
 813 571 l 2,65,66
 824 571 824 571 831.5 579 c 128,-1,67
 839 587 839 587 839 598 c 128,-1,68
 839 609 839 609 831.5 617 c 128,-1,69
 824 625 824 625 812 625 c 2,70,-1
 589 625 l 1,41,-1
652 438 m 1,71,72
 681 437 681 437 702 416.5 c 128,-1,73
 723 396 723 396 723 366 c 128,-1,74
 723 336 723 336 702 315.5 c 128,-1,75
 681 295 681 295 651.5 295 c 128,-1,76
 622 295 622 295 601 315.5 c 128,-1,77
 580 336 580 336 580 366 c 128,-1,78
 580 396 580 396 601 416.5 c 128,-1,79
 622 437 622 437 652 437 c 1,80,-1
 652 438 l 1,71,72
634 366 m 0,81,82
 634 356 634 356 643 350.5 c 128,-1,83
 652 345 652 345 661 350.5 c 128,-1,84
 670 356 670 356 670 366 c 0,85,86
 670 373 670 373 664.5 378.5 c 128,-1,87
 659 384 659 384 651.5 384 c 128,-1,88
 644 384 644 384 639 378.5 c 128,-1,89
 634 373 634 373 634 366 c 0,81,82
259 250 m 256,90,91
 270 250 270 250 278 258 c 128,-1,92
 286 266 286 266 286 277 c 128,-1,93
 286 288 286 288 278 296 c 128,-1,94
 270 304 270 304 259 304 c 128,-1,95
 248 304 248 304 240 296 c 128,-1,96
 232 288 232 288 232 277 c 128,-1,97
 232 266 232 266 240 258 c 128,-1,98
 248 250 248 250 259 250 c 256,90,91
705 768 m 0,99,100
 721 768 721 768 728.5 781.5 c 128,-1,101
 736 795 736 795 728.5 808 c 128,-1,102
 721 821 721 821 705 821 c 0,103,104
 694 821 694 821 686.5 813.5 c 128,-1,105
 679 806 679 806 679 795 c 128,-1,106
 679 784 679 784 686.5 776 c 128,-1,107
 694 768 694 768 705 768 c 0,99,100
339 830 m 0,108,109
 313 830 313 830 290 817 c 128,-1,110
 267 804 267 804 254 781.5 c 128,-1,111
 241 759 241 759 241 732 c 128,-1,112
 241 705 241 705 254 682.5 c 128,-1,113
 267 660 267 660 290 647 c 128,-1,114
 313 634 313 634 339.5 634 c 128,-1,115
 366 634 366 634 388.5 647 c 128,-1,116
 411 660 411 660 424 682.5 c 128,-1,117
 437 705 437 705 437.5 732 c 128,-1,118
 438 759 438 759 424.5 781.5 c 128,-1,119
 411 804 411 804 388.5 817 c 128,-1,120
 366 830 366 830 339 830 c 0,108,109
295 732 m 0,121,122
 295 751 295 751 308 764 c 128,-1,123
 321 777 321 777 339.5 777 c 128,-1,124
 358 777 358 777 371 764 c 128,-1,125
 384 751 384 751 384 732.5 c 128,-1,126
 384 714 384 714 371 701 c 128,-1,127
 358 688 358 688 339.5 688 c 128,-1,128
 321 688 321 688 308 701 c 128,-1,129
 295 714 295 714 295 732 c 0,121,122
EndSplineSet
EndChar

StartChar: arrow-bold-down_12
Encoding: 59923 59923 47
Width: 1500
GlyphClass: 1
Flags: W
LayerCount: 2
Fore
SplineSet
1435 424 m 2,0,1
 1469 448 1469 448 1486 486.5 c 128,-1,2
 1503 525 1503 525 1499 566.5 c 128,-1,3
 1495 608 1495 608 1471 642 c 128,-1,4
 1447 676 1447 676 1408.5 693.5 c 128,-1,5
 1370 711 1370 711 1328.5 707 c 128,-1,6
 1287 703 1287 703 1253 679 c 2,7,-1
 840 384 l 2,8,9
 800 355 800 355 749.5 355 c 128,-1,10
 699 355 699 355 659 384 c 2,11,-1
 247 678 l 2,12,13
 213 703 213 703 171.5 707 c 128,-1,14
 130 711 130 711 92 693.5 c 128,-1,15
 54 676 54 676 29.5 642 c 128,-1,16
 5 608 5 608 1 566.5 c 128,-1,17
 -3 525 -3 525 14 487 c 128,-1,18
 31 449 31 449 66 424 c 2,19,-1
 586 53 l 2,20,21
 634 18 634 18 691.5 6 c 128,-1,22
 749 -6 749 -6 806.5 6 c 128,-1,23
 864 18 864 18 913 52 c 2,24,-1
 1435 424 l 2,0,1
EndSplineSet
EndChar

StartChar: arrow-bold-down_16
Encoding: 59924 59924 48
Width: 2000
GlyphClass: 1
Flags: W
LayerCount: 2
Fore
SplineSet
1917 603 m 2,0,1
 1962 636 1962 636 1983.5 686.5 c 128,-1,2
 2005 737 2005 737 1998.5 791.5 c 128,-1,3
 1992 846 1992 846 1958.5 891 c 128,-1,4
 1925 936 1925 936 1874.5 957.5 c 128,-1,5
 1824 979 1824 979 1769.5 972.5 c 128,-1,6
 1715 966 1715 966 1670 933 c 2,7,-1
 1123 525 l 2,8,9
 1068 484 1068 484 1000 484 c 128,-1,10
 932 484 932 484 877 525 c 2,11,-1
 330 933 l 2,12,13
 285 964 285 964 231.5 968.5 c 128,-1,14
 178 973 178 973 129 952 c 128,-1,15
 80 931 80 931 47 887 c 128,-1,16
 14 843 14 843 7.5 790 c 128,-1,17
 1 737 1 737 20.5 687 c 128,-1,18
 40 637 40 637 83 603 c 2,19,-1
 802 66 l 2,20,21
 860 22 860 22 930 7.5 c 128,-1,22
 1000 -7 1000 -7 1070 7.5 c 128,-1,23
 1140 22 1140 22 1198 66 c 2,24,-1
 1917 603 l 2,0,1
EndSplineSet
EndChar

StartChar: arrow-bold-down_20
Encoding: 59925 59925 49
Width: 1666
GlyphClass: 1
Flags: W
LayerCount: 2
Fore
SplineSet
1600 513 m 2,0,1
 1636 539 1636 539 1653.5 580 c 128,-1,2
 1671 621 1671 621 1665.5 665.5 c 128,-1,3
 1660 710 1660 710 1633.5 746 c 128,-1,4
 1607 782 1607 782 1565.5 799.5 c 128,-1,5
 1524 817 1524 817 1480 811.5 c 128,-1,6
 1436 806 1436 806 1400 779 c 2,7,-1
 933 429 l 2,8,9
 889 396 889 396 833.5 396 c 128,-1,10
 778 396 778 396 733 429 c 2,11,-1
 267 779 l 2,12,13
 230 806 230 806 186 811 c 128,-1,14
 142 816 142 816 101 799 c 128,-1,15
 60 782 60 782 33 746 c 128,-1,16
 6 710 6 710 1 665.5 c 128,-1,17
 -4 621 -4 621 13 580.5 c 128,-1,18
 30 540 30 540 67 513 c 2,19,-1
 683 50 l 2,20,21
 727 17 727 17 780 5.5 c 128,-1,22
 833 -6 833 -6 886 5.5 c 128,-1,23
 939 17 939 17 983 50 c 2,24,-1
 1600 513 l 2,0,1
EndSplineSet
EndChar

StartChar: arrow-bold-down_24
Encoding: 59926 59926 50
Width: 2000
GlyphClass: 1
Flags: W
LayerCount: 2
Fore
SplineSet
1924 621 m 2,0,1
 1965 651 1965 651 1984.5 697 c 128,-1,2
 2004 743 2004 743 1998.5 792.5 c 128,-1,3
 1993 842 1993 842 1962.5 883 c 128,-1,4
 1932 924 1932 924 1886.5 943.5 c 128,-1,5
 1841 963 1841 963 1791 957.5 c 128,-1,6
 1741 952 1741 952 1701 921 c 2,7,-1
 1112 484 l 2,8,9
 1062 447 1062 447 1000 447 c 128,-1,10
 938 447 938 447 888 484 c 2,11,-1
 299 921 l 2,12,13
 259 950 259 950 210 955 c 128,-1,14
 161 960 161 960 115.5 940.5 c 128,-1,15
 70 921 70 921 40 880.5 c 128,-1,16
 10 840 10 840 4.5 791 c 128,-1,17
 -1 742 -1 742 17.5 696.5 c 128,-1,18
 36 651 36 651 76 621 c 2,19,-1
 838 54 l 2,20,21
 886 18 886 18 943 6 c 128,-1,22
 1000 -6 1000 -6 1057 6 c 128,-1,23
 1114 18 1114 18 1162 53 c 2,24,-1
 1924 621 l 2,0,1
EndSplineSet
EndChar

StartChar: arrow-bold-down_32
Encoding: 59927 59927 51
Width: 2285
GlyphClass: 1
Flags: W
LayerCount: 2
Fore
SplineSet
2142 678 m 2,0,1
 2181 706 2181 706 2200 750 c 128,-1,2
 2219 794 2219 794 2214 842 c 128,-1,3
 2209 890 2209 890 2180.5 928.5 c 128,-1,4
 2152 967 2152 967 2107.5 986 c 128,-1,5
 2063 1005 2063 1005 2015.5 999.5 c 128,-1,6
 1968 994 1968 994 1930 965 c 2,7,-1
 1249 462 l 2,8,9
 1202 427 1202 427 1143 427 c 128,-1,10
 1084 427 1084 427 1037 462 c 2,11,-1
 356 965 l 2,12,13
 317 993 317 993 270 998 c 128,-1,14
 223 1003 223 1003 179.5 984.5 c 128,-1,15
 136 966 136 966 107.5 927 c 128,-1,16
 79 888 79 888 73.5 841 c 128,-1,17
 68 794 68 794 86.5 750.5 c 128,-1,18
 105 707 105 707 144 678 c 2,19,-1
 994 49 l 2,20,21
 1038 17 1038 17 1090.5 5.5 c 128,-1,22
 1143 -6 1143 -6 1195.5 5.5 c 128,-1,23
 1248 17 1248 17 1291 49 c 2,24,-1
 2142 678 l 2,0,1
EndSplineSet
EndChar

StartChar: arrow-bold-down_8
Encoding: 60750 60750 52
Width: 2000
GlyphClass: 1
Flags: W
LayerCount: 2
Fore
SplineSet
1001 543 m 1,0,-1
 1613 957 l 2,1,2
 1654 985 1654 985 1702.5 994.5 c 128,-1,3
 1751 1004 1751 1004 1799.5 994.5 c 128,-1,4
 1848 985 1848 985 1889 958 c 128,-1,5
 1930 931 1930 931 1957 889 c 0,6,7
 1995 833 1995 833 1999.5 767 c 128,-1,8
 2004 701 2004 701 1975 641.5 c 128,-1,9
 1946 582 1946 582 1891 544 c 2,10,-1
 1149 43 l 2,11,12
 1115 19 1115 19 1075 8.5 c 128,-1,13
 1035 -2 1035 -2 994 1 c 1,14,15
 916 -1 916 -1 851 43 c 2,16,-1
 110 545 l 2,17,18
 53 582 53 582 24.5 642 c 128,-1,19
 -4 702 -4 702 0.5 768 c 128,-1,20
 5 834 5 834 43 891 c 0,21,22
 70 931 70 931 111 958.5 c 128,-1,23
 152 986 152 986 200.5 995.5 c 128,-1,24
 249 1005 249 1005 297.5 995 c 128,-1,25
 346 985 346 985 387 958 c 2,26,-1
 1001 543 l 1,0,-1
EndSplineSet
EndChar

StartChar: arrow-bold-left_8
Encoding: 60751 60751 53
Width: 500
GlyphClass: 1
Flags: W
LayerCount: 2
Fore
SplineSet
271 500 m 1,0,-1
 479 194 l 2,1,2
 492 173 492 173 497 149 c 128,-1,3
 502 125 502 125 497.5 100.5 c 128,-1,4
 493 76 493 76 479 55.5 c 128,-1,5
 465 35 465 35 445 21 c 0,6,7
 417 2 417 2 384 0 c 128,-1,8
 351 -2 351 -2 321 12.5 c 128,-1,9
 291 27 291 27 272 55 c 2,10,-1
 21 425 l 2,11,12
 -3 461 -3 461 0 503 c 0,13,14
 -1 542 -1 542 21 575 c 2,15,-1
 272 945 l 2,16,17
 291 973 291 973 321 987.5 c 128,-1,18
 351 1002 351 1002 384 1000 c 128,-1,19
 417 998 417 998 445 979 c 0,20,21
 466 965 466 965 479.5 944.5 c 128,-1,22
 493 924 493 924 497.5 899.5 c 128,-1,23
 502 875 502 875 497.5 851 c 128,-1,24
 493 827 493 827 479 806 c 2,25,-1
 271 500 l 1,0,-1
EndSplineSet
EndChar

StartChar: arrow-bold-right_12
Encoding: 59928 59928 54
Width: 666
GlyphClass: 1
Flags: W
LayerCount: 2
Fore
SplineSet
384 956 m 2,0,1
 368 979 368 979 342.5 991 c 128,-1,2
 317 1003 317 1003 289 1000.5 c 128,-1,3
 261 998 261 998 238 981.5 c 128,-1,4
 215 965 215 965 203.5 939.5 c 128,-1,5
 192 914 192 914 195 886 c 128,-1,6
 198 858 198 858 214 835 c 2,7,-1
 410 560 l 2,8,9
 430 533 430 533 430 499.5 c 128,-1,10
 430 466 430 466 410 439 c 2,11,-1
 214 165 l 2,12,13
 198 142 198 142 195.5 114.5 c 128,-1,14
 193 87 193 87 204 61.5 c 128,-1,15
 215 36 215 36 238.5 19.5 c 128,-1,16
 262 3 262 3 289.5 0.5 c 128,-1,17
 317 -2 317 -2 342 9.5 c 128,-1,18
 367 21 367 21 384 44 c 2,19,-1
 632 390 l 2,20,21
 667 439 667 439 667 499.5 c 128,-1,22
 667 560 667 560 632 609 c 2,23,-1
 384 956 l 2,0,1
EndSplineSet
EndChar

StartChar: arrow-bold-right_16
Encoding: 59929 59929 55
Width: 500
GlyphClass: 1
Flags: W
LayerCount: 2
Fore
SplineSet
199 959 m 2,0,1
 182 981 182 981 156.5 991.5 c 128,-1,2
 131 1002 131 1002 104 999 c 128,-1,3
 77 996 77 996 54.5 979.5 c 128,-1,4
 32 963 32 963 21.5 937.5 c 128,-1,5
 11 912 11 912 14 885 c 128,-1,6
 17 858 17 858 34 835 c 2,7,-1
 238 562 l 2,8,9
 258 534 258 534 258 500 c 128,-1,10
 258 466 258 466 238 438 c 2,11,-1
 34 165 l 2,12,13
 10 131 10 131 16.5 89.5 c 128,-1,14
 23 48 23 48 56.5 23 c 128,-1,15
 90 -2 90 -2 131.5 3.5 c 128,-1,16
 173 9 173 9 199 41 c 2,17,-1
 467 401 l 2,18,19
 500 445 500 445 500 500 c 128,-1,20
 500 555 500 555 467 599 c 2,21,-1
 199 959 l 2,0,1
EndSplineSet
EndChar

StartChar: arrow-bold-right_20
Encoding: 59930 59930 56
Width: 600
GlyphClass: 1
Flags: W
LayerCount: 2
Fore
SplineSet
293 960 m 2,0,1
 276 982 276 982 251.5 992 c 128,-1,2
 227 1002 227 1002 200.5 999 c 128,-1,3
 174 996 174 996 152.5 980 c 128,-1,4
 131 964 131 964 120.5 939.5 c 128,-1,5
 110 915 110 915 113 888.5 c 128,-1,6
 116 862 116 862 133 840 c 2,7,-1
 343 560 l 2,8,9
 362 533 362 533 362.5 500 c 128,-1,10
 363 467 363 467 343 440 c 2,11,-1
 133 160 l 2,12,13
 116 138 116 138 113 111.5 c 128,-1,14
 110 85 110 85 120.5 60.5 c 128,-1,15
 131 36 131 36 152.5 20 c 128,-1,16
 174 4 174 4 200.5 1 c 128,-1,17
 227 -2 227 -2 251.5 8 c 128,-1,18
 276 18 276 18 292 40 c 2,19,-1
 570 410 l 2,20,21
 600 450 600 450 600 500 c 128,-1,22
 600 550 600 550 570 590 c 2,23,-1
 293 960 l 2,0,1
EndSplineSet
EndChar

StartChar: arrow-bold-right_24
Encoding: 59931 59931 57
Width: 500
GlyphClass: 1
Flags: W
LayerCount: 2
Fore
SplineSet
190 962 m 2,0,1
 167 993 167 993 128.5 999 c 128,-1,2
 90 1005 90 1005 58.5 981.5 c 128,-1,3
 27 958 27 958 21.5 919.5 c 128,-1,4
 16 881 16 881 39 850 c 2,5,-1
 258 556 l 2,6,7
 277 531 277 531 277 500 c 128,-1,8
 277 469 277 469 258 444 c 2,9,-1
 39 150 l 2,10,11
 17 119 17 119 23 81 c 128,-1,12
 29 43 29 43 59.5 20 c 128,-1,13
 90 -3 90 -3 128 2.5 c 128,-1,14
 166 8 166 8 190 38 c 2,15,-1
 473 419 l 2,16,17
 500 455 500 455 500 500 c 128,-1,18
 500 545 500 545 473 581 c 2,19,-1
 190 962 l 2,0,1
EndSplineSet
EndChar

StartChar: arrow-bold-right_32
Encoding: 59932 59932 58
Width: 437
GlyphClass: 1
Flags: W
LayerCount: 2
Fore
SplineSet
141 937 m 2,0,1
 129 954 129 954 109.5 962.5 c 128,-1,2
 90 971 90 971 69 968.5 c 128,-1,3
 48 966 48 966 31 953.5 c 128,-1,4
 14 941 14 941 6 922 c 128,-1,5
 -2 903 -2 903 0.5 882 c 128,-1,6
 3 861 3 861 15 844 c 2,7,-1
 235 546 l 2,8,9
 251 526 251 526 251 500 c 128,-1,10
 251 474 251 474 236 454 c 2,11,-1
 15 156 l 2,12,13
 -4 130 -4 130 1 98 c 128,-1,14
 6 66 6 66 32 47 c 128,-1,15
 58 28 58 28 90 32.5 c 128,-1,16
 122 37 122 37 141 63 c 2,17,-1
 416 435 l 2,18,19
 437 464 437 464 437 500 c 128,-1,20
 437 536 437 536 416 565 c 2,21,-1
 141 937 l 2,0,1
EndSplineSet
EndChar

StartChar: arrow-bold-right_8
Encoding: 60749 60749 59
Width: 500
GlyphClass: 1
Flags: W
LayerCount: 2
Fore
SplineSet
229 500 m 1,0,-1
 22 807 l 2,1,2
 8 827 8 827 3 851 c 128,-1,3
 -2 875 -2 875 2.5 899.5 c 128,-1,4
 7 924 7 924 21 944.5 c 128,-1,5
 35 965 35 965 55 979 c 0,6,7
 83 998 83 998 116 1000 c 128,-1,8
 149 1002 149 1002 179 987.5 c 128,-1,9
 209 973 209 973 228 945 c 2,10,-1
 479 575 l 2,11,12
 503 539 503 539 500 497 c 0,13,14
 501 458 501 458 479 425 c 2,15,-1
 228 55 l 2,16,17
 209 27 209 27 179 12.5 c 128,-1,18
 149 -2 149 -2 116 0 c 128,-1,19
 83 2 83 2 55 21 c 0,20,21
 34 35 34 35 20.5 55.5 c 128,-1,22
 7 76 7 76 2.5 100.5 c 128,-1,23
 -2 125 -2 125 2.5 149 c 128,-1,24
 7 173 7 173 21 194 c 2,25,-1
 229 500 l 1,0,-1
EndSplineSet
EndChar

StartChar: arrow-bold-up_12
Encoding: 59933 59933 60
Width: 1500
GlyphClass: 1
Flags: W
LayerCount: 2
Fore
SplineSet
66 576 m 2,0,1
 31 552 31 552 13.5 513.5 c 128,-1,2
 -4 475 -4 475 0 433 c 128,-1,3
 4 391 4 391 28.5 357 c 128,-1,4
 53 323 53 323 91 305.5 c 128,-1,5
 129 288 129 288 171 292.5 c 128,-1,6
 213 297 213 297 247 321 c 2,7,-1
 660 616 l 2,8,9
 700 645 700 645 750.5 645 c 128,-1,10
 801 645 801 645 841 616 c 2,11,-1
 1253 322 l 2,12,13
 1287 297 1287 297 1328.5 293 c 128,-1,14
 1370 289 1370 289 1408 306.5 c 128,-1,15
 1446 324 1446 324 1470.5 358 c 128,-1,16
 1495 392 1495 392 1499 433.5 c 128,-1,17
 1503 475 1503 475 1486 513 c 128,-1,18
 1469 551 1469 551 1435 576 c 2,19,-1
 915 948 l 2,20,21
 866 982 866 982 808.5 994 c 128,-1,22
 751 1006 751 1006 693.5 994 c 128,-1,23
 636 982 636 982 587 948 c 2,24,-1
 66 576 l 2,0,1
EndSplineSet
EndChar

StartChar: arrow-bold-up_16
Encoding: 59934 59934 61
Width: 2000
GlyphClass: 1
Flags: W
LayerCount: 2
Fore
SplineSet
83 398 m 2,0,1
 38 364 38 364 16.5 313.5 c 128,-1,2
 -5 263 -5 263 1.5 208.5 c 128,-1,3
 8 154 8 154 41.5 109 c 128,-1,4
 75 64 75 64 125.5 42.5 c 128,-1,5
 176 21 176 21 230.5 27.5 c 128,-1,6
 285 34 285 34 330 67 c 2,7,-1
 877 476 l 2,8,9
 932 516 932 516 1000 516 c 128,-1,10
 1068 516 1068 516 1123 476 c 2,11,-1
 1670 67 l 2,12,13
 1715 36 1715 36 1769 30.5 c 128,-1,14
 1823 25 1823 25 1872.5 46.5 c 128,-1,15
 1922 68 1922 68 1954.5 112 c 128,-1,16
 1987 156 1987 156 1993.5 209.5 c 128,-1,17
 2000 263 2000 263 1980 313.5 c 128,-1,18
 1960 364 1960 364 1917 398 c 2,19,-1
 1198 934 l 2,20,21
 1140 978 1140 978 1070 993 c 128,-1,22
 1000 1008 1000 1008 930 993 c 128,-1,23
 860 978 860 978 802 934 c 2,24,-1
 83 398 l 2,0,1
EndSplineSet
EndChar

StartChar: arrow-bold-up_20
Encoding: 59935 59935 62
Width: 1666
GlyphClass: 1
Flags: W
LayerCount: 2
Fore
SplineSet
67 488 m 2,0,1
 31 461 31 461 13.5 420 c 128,-1,2
 -4 379 -4 379 1.5 334.5 c 128,-1,3
 7 290 7 290 33.5 254 c 128,-1,4
 60 218 60 218 101 200.5 c 128,-1,5
 142 183 142 183 186.5 188.5 c 128,-1,6
 231 194 231 194 267 221 c 2,7,-1
 733 571 l 2,8,9
 778 604 778 604 833.5 604 c 128,-1,10
 889 604 889 604 933 571 c 2,11,-1
 1400 221 l 2,12,13
 1436 194 1436 194 1480 189 c 128,-1,14
 1524 184 1524 184 1565 201 c 128,-1,15
 1606 218 1606 218 1633 254 c 128,-1,16
 1660 290 1660 290 1665.5 334.5 c 128,-1,17
 1671 379 1671 379 1653.5 419.5 c 128,-1,18
 1636 460 1636 460 1600 487 c 2,19,-1
 983 950 l 2,20,21
 939 983 939 983 886 994.5 c 128,-1,22
 833 1006 833 1006 780 994.5 c 128,-1,23
 727 983 727 983 683 950 c 2,24,-1
 67 488 l 2,0,1
EndSplineSet
EndChar

StartChar: arrow-bold-up_24
Encoding: 59936 59936 63
Width: 2000
GlyphClass: 1
Flags: W
LayerCount: 2
Fore
SplineSet
76 380 m 2,0,1
 35 349 35 349 15.5 303 c 128,-1,2
 -4 257 -4 257 1.5 207.5 c 128,-1,3
 7 158 7 158 37.5 117 c 128,-1,4
 68 76 68 76 113.5 56.5 c 128,-1,5
 159 37 159 37 209 42.5 c 128,-1,6
 259 48 259 48 299 79 c 2,7,-1
 888 516 l 2,8,9
 938 553 938 553 1000 553 c 128,-1,10
 1062 553 1062 553 1112 516 c 2,11,-1
 1701 79 l 2,12,13
 1741 50 1741 50 1790 45 c 128,-1,14
 1839 40 1839 40 1884.5 59.5 c 128,-1,15
 1930 79 1930 79 1960 119.5 c 128,-1,16
 1990 160 1990 160 1995.5 209 c 128,-1,17
 2001 258 2001 258 1982.5 303.5 c 128,-1,18
 1964 349 1964 349 1924 380 c 2,19,-1
 1162 947 l 2,20,21
 1114 982 1114 982 1057 994 c 128,-1,22
 1000 1006 1000 1006 943 994 c 128,-1,23
 886 982 886 982 839 946 c 2,24,-1
 76 380 l 2,0,1
EndSplineSet
EndChar

StartChar: arrow-bold-up_32
Encoding: 59937 59937 64
Width: 2285
GlyphClass: 1
Flags: W
LayerCount: 2
Fore
SplineSet
106 72 m 0,0,1
 78 111 78 111 72.5 158.5 c 128,-1,2
 67 206 67 206 86 249.5 c 128,-1,3
 105 293 105 293 144 322 c 2,4,-1
 994 951 l 2,5,6
 1038 983 1038 983 1090.5 994.5 c 128,-1,7
 1143 1006 1143 1006 1195.5 994.5 c 128,-1,8
 1248 983 1248 983 1291 951 c 2,9,-1
 2142 322 l 2,10,11
 2181 294 2181 294 2200 250 c 128,-1,12
 2219 206 2219 206 2214 158 c 128,-1,13
 2209 110 2209 110 2180.5 71.5 c 128,-1,14
 2152 33 2152 33 2107.5 14 c 128,-1,15
 2063 -5 2063 -5 2015.5 0.5 c 128,-1,16
 1968 6 1968 6 1930 35 c 2,17,-1
 1249 538 l 2,18,19
 1202 573 1202 573 1143 573 c 128,-1,20
 1084 573 1084 573 1037 538 c 2,21,-1
 356 35 l 2,22,23
 328 14 328 14 293.5 5.5 c 128,-1,24
 259 -3 259 -3 223.5 2 c 128,-1,25
 188 7 188 7 158 25.5 c 128,-1,26
 128 44 128 44 106 72 c 0,0,1
EndSplineSet
EndChar

StartChar: arrow-bold-up_8
Encoding: 60752 60752 65
Width: 2000
GlyphClass: 1
Flags: W
LayerCount: 2
Fore
SplineSet
1000 458 m 1,0,-1
 387 43 l 2,1,2
 346 15 346 15 297.5 5.5 c 128,-1,3
 249 -4 249 -4 200.5 5.5 c 128,-1,4
 152 15 152 15 111 42 c 128,-1,5
 70 69 70 69 43 111 c 0,6,7
 5 167 5 167 0.5 233 c 128,-1,8
 -4 299 -4 299 25 358.5 c 128,-1,9
 54 418 54 418 110 456 c 2,10,-1
 851 958 l 2,11,12
 885 981 885 981 925 991.5 c 128,-1,13
 965 1002 965 1002 1006 1000 c 0,14,15
 1084 1001 1084 1001 1149 957 c 2,16,-1
 1891 455 l 2,17,18
 1946 417 1946 417 1974.5 357.5 c 128,-1,19
 2003 298 2003 298 1999 232 c 128,-1,20
 1995 166 1995 166 1958 110 c 0,21,22
 1930 69 1930 69 1889 41.5 c 128,-1,23
 1848 14 1848 14 1799.5 4.5 c 128,-1,24
 1751 -5 1751 -5 1702.5 5 c 128,-1,25
 1654 15 1654 15 1613 43 c 2,26,-1
 1000 458 l 1,0,-1
EndSplineSet
EndChar

StartChar: arrow-down_12
Encoding: 59938 59938 66
Width: 2000
GlyphClass: 1
Flags: W
LayerCount: 2
Fore
SplineSet
1744 807 m 2,0,1
 1782 832 1782 832 1826.5 834 c 128,-1,2
 1871 836 1871 836 1911 815.5 c 128,-1,3
 1951 795 1951 795 1975.5 757 c 128,-1,4
 2000 719 2000 719 2001.5 674 c 128,-1,5
 2003 629 2003 629 1982 589.5 c 128,-1,6
 1961 550 1961 550 1923 526 c 2,7,-1
 1179 52 l 2,8,9
 1097 0 1097 0 1000 0 c 128,-1,10
 903 0 903 0 821 52 c 2,11,-1
 77 526 l 2,12,13
 40 551 40 551 20 590 c 128,-1,14
 0 629 0 629 2 673 c 128,-1,15
 4 717 4 717 28 755 c 128,-1,16
 52 793 52 793 91 813 c 128,-1,17
 130 833 130 833 174 832 c 128,-1,18
 218 831 218 831 256 807 c 2,19,-1
 911 391 l 2,20,21
 951 364 951 364 1000 364 c 128,-1,22
 1049 364 1049 364 1090 391 c 2,23,-1
 1744 807 l 2,0,1
EndSplineSet
EndChar

StartChar: arrow-down_16
Encoding: 59939 59939 67
Width: 2666
GlyphClass: 1
Flags: W
LayerCount: 2
Fore
SplineSet
2326 973 m 2,0,1
 2364 998 2364 998 2408.5 1000 c 128,-1,2
 2453 1002 2453 1002 2492.5 981.5 c 128,-1,3
 2532 961 2532 961 2556.5 923 c 128,-1,4
 2581 885 2581 885 2583 841 c 128,-1,5
 2585 797 2585 797 2565 757.5 c 128,-1,6
 2545 718 2545 718 2507 693 c 2,7,-1
 1514 53 l 2,8,9
 1431 0 1431 0 1333 0 c 128,-1,10
 1235 0 1235 0 1153 53 c 2,11,-1
 160 693 l 2,12,13
 124 718 124 718 105.5 757 c 128,-1,14
 87 796 87 796 89 839.5 c 128,-1,15
 91 883 91 883 115 920 c 128,-1,16
 139 957 139 957 177.5 977 c 128,-1,17
 216 997 216 997 259 996.5 c 128,-1,18
 302 996 302 996 340 973 c 2,19,-1
 1244 391 l 2,20,21
 1285 365 1285 365 1333.5 365 c 128,-1,22
 1382 365 1382 365 1423 391 c 2,23,-1
 2326 973 l 2,0,1
EndSplineSet
EndChar

StartChar: arrow-down_20
Encoding: 59940 59940 68
Width: 2500
GlyphClass: 1
Flags: W
LayerCount: 2
Fore
SplineSet
2304 978 m 2,0,1
 2332 997 2332 997 2365 999.5 c 128,-1,2
 2398 1002 2398 1002 2428.5 988 c 128,-1,3
 2459 974 2459 974 2478 946 c 128,-1,4
 2497 918 2497 918 2499.5 885 c 128,-1,5
 2502 852 2502 852 2488 821.5 c 128,-1,6
 2474 791 2474 791 2446 772 c 2,7,-1
 1392 44 l 2,8,9
 1328 0 1328 0 1250 0 c 128,-1,10
 1172 0 1172 0 1108 44 c 2,11,-1
 54 772 l 2,12,13
 26 791 26 791 12 821.5 c 128,-1,14
 -2 852 -2 852 0.5 885 c 128,-1,15
 3 918 3 918 22 946 c 128,-1,16
 41 974 41 974 71.5 988 c 128,-1,17
 102 1002 102 1002 135 999.5 c 128,-1,18
 168 997 168 997 196 978 c 2,19,-1
 1181 298 l 2,20,21
 1212 277 1212 277 1250 277 c 128,-1,22
 1288 277 1288 277 1319 298 c 2,23,-1
 2304 978 l 2,0,1
EndSplineSet
EndChar

StartChar: arrow-down_32
Encoding: 59941 59941 69
Width: 2666
GlyphClass: 1
Flags: W
LayerCount: 2
Fore
SplineSet
2536 986 m 2,0,1
 2555 998 2555 998 2577 999.5 c 128,-1,2
 2599 1001 2599 1001 2619.5 991.5 c 128,-1,3
 2640 982 2640 982 2652.5 963.5 c 128,-1,4
 2665 945 2665 945 2666.5 922.5 c 128,-1,5
 2668 900 2668 900 2658.5 880 c 128,-1,6
 2649 860 2649 860 2630 848 c 2,7,-1
 1427 29 l 2,8,9
 1385 0 1385 0 1333.5 0 c 128,-1,10
 1282 0 1282 0 1240 29 c 2,11,-1
 37 848 l 2,12,13
 18 860 18 860 8.5 880 c 128,-1,14
 -1 900 -1 900 0.5 922.5 c 128,-1,15
 2 945 2 945 14.5 963.5 c 128,-1,16
 27 982 27 982 47 991.5 c 128,-1,17
 67 1001 67 1001 89.5 999.5 c 128,-1,18
 112 998 112 998 130 986 c 2,19,-1
 1289 197 l 2,20,21
 1309 184 1309 184 1333.5 184 c 128,-1,22
 1358 184 1358 184 1378 197 c 2,23,-1
 2536 986 l 2,0,1
EndSplineSet
EndChar

StartChar: arrow-down_6
Encoding: 60747 60747 70
Width: 2000
GlyphClass: 1
Flags: W
LayerCount: 2
Fore
SplineSet
1112 38 m 2,0,1
 1063 0 1063 0 1000 0 c 128,-1,2
 937 0 937 0 888 38 c 2,3,-1
 71 672 l 2,4,5
 32 702 32 702 13.5 747.5 c 128,-1,6
 -5 793 -5 793 1.5 841.5 c 128,-1,7
 8 890 8 890 38.5 929 c 128,-1,8
 69 968 69 968 114 986.5 c 128,-1,9
 159 1005 159 1005 207.5 998.5 c 128,-1,10
 256 992 256 992 296 962 c 2,11,-1
 1000 415 l 1,12,-1
 1704 962 l 2,13,14
 1744 992 1744 992 1792.5 998.5 c 128,-1,15
 1841 1005 1841 1005 1886 986.5 c 128,-1,16
 1931 968 1931 968 1961.5 929 c 128,-1,17
 1992 890 1992 890 1998.5 841.5 c 128,-1,18
 2005 793 2005 793 1986.5 747.5 c 128,-1,19
 1968 702 1968 702 1929 672 c 2,20,-1
 1112 38 l 2,0,1
EndSplineSet
EndChar

StartChar: arrow-down_8
Encoding: 59942 59942 71
Width: 2000
GlyphClass: 1
Flags: W
LayerCount: 2
Fore
SplineSet
1000 543 m 1,0,-1
 1613 957 l 2,1,2
 1669 995 1669 995 1735 999 c 128,-1,3
 1801 1003 1801 1003 1860.5 974.5 c 128,-1,4
 1920 946 1920 946 1957.5 890 c 128,-1,5
 1995 834 1995 834 1999.5 767.5 c 128,-1,6
 2004 701 2004 701 1975 641.5 c 128,-1,7
 1946 582 1946 582 1891 544 c 2,8,-1
 1149 43 l 2,9,10
 1114 19 1114 19 1074.5 8.5 c 128,-1,11
 1035 -2 1035 -2 994 1 c 1,12,13
 916 -1 916 -1 851 43 c 2,14,-1
 109 545 l 2,15,16
 54 582 54 582 25 642 c 128,-1,17
 -4 702 -4 702 0.5 768 c 128,-1,18
 5 834 5 834 42.5 890 c 128,-1,19
 80 946 80 946 139.5 975 c 128,-1,20
 199 1004 199 1004 265 999.5 c 128,-1,21
 331 995 331 995 387 957 c 2,22,-1
 1000 543 l 1,0,-1
EndSplineSet
EndChar

StartChar: arrow-left_12
Encoding: 59943 59943 72
Width: 500
GlyphClass: 1
Flags: W
LayerCount: 2
Fore
SplineSet
404 872 m 2,0,1
 416 891 416 891 417 913.5 c 128,-1,2
 418 936 418 936 408 956 c 128,-1,3
 398 976 398 976 379 988 c 128,-1,4
 360 1000 360 1000 337.5 1001 c 128,-1,5
 315 1002 315 1002 295 991.5 c 128,-1,6
 275 981 275 981 263 961 c 2,7,-1
 26 590 l 2,8,9
 0 549 0 549 0 500 c 128,-1,10
 0 451 0 451 26 410 c 2,11,-1
 263 39 l 2,12,13
 282 10 282 10 315.5 2.5 c 128,-1,14
 349 -5 349 -5 377.5 13.5 c 128,-1,15
 406 32 406 32 414 65.5 c 128,-1,16
 422 99 422 99 404 128 c 2,17,-1
 195 455 l 2,18,19
 182 476 182 476 182 500 c 128,-1,20
 182 524 182 524 195 545 c 2,21,-1
 404 872 l 2,0,1
EndSplineSet
EndChar

StartChar: arrow-left_16
Encoding: 59944 59944 73
Width: 375
GlyphClass: 1
Flags: W
LayerCount: 2
Fore
SplineSet
365 872 m 2,0,1
 374 886 374 886 375.5 903 c 128,-1,2
 377 920 377 920 369 935.5 c 128,-1,3
 361 951 361 951 347 960 c 128,-1,4
 333 969 333 969 316 969.5 c 128,-1,5
 299 970 299 970 284 962 c 128,-1,6
 269 954 269 954 260 940 c 2,7,-1
 20 568 l 2,8,9
 0 537 0 537 0 500 c 128,-1,10
 0 463 0 463 20 432 c 2,11,-1
 260 60 l 2,12,13
 274 38 274 38 299.5 32.5 c 128,-1,14
 325 27 325 27 346.5 41 c 128,-1,15
 368 55 368 55 373.5 80.5 c 128,-1,16
 379 106 379 106 365 128 c 2,17,-1
 147 466 l 2,18,19
 137 482 137 482 137 500 c 128,-1,20
 137 518 137 518 147 534 c 2,21,-1
 365 872 l 2,0,1
EndSplineSet
EndChar

StartChar: arrow-left_20
Encoding: 59945 59945 74
Width: 400
GlyphClass: 1
Flags: W
LayerCount: 2
Fore
SplineSet
391 922 m 2,0,1
 403 939 403 939 399 959 c 128,-1,2
 395 979 395 979 378 991 c 128,-1,3
 361 1003 361 1003 341 999 c 128,-1,4
 321 995 321 995 309 978 c 2,5,-1
 18 557 l 2,6,7
 0 531 0 531 0 500 c 128,-1,8
 0 469 0 469 18 443 c 2,9,-1
 309 22 l 2,10,11
 321 5 321 5 341 1 c 128,-1,12
 361 -3 361 -3 378 9 c 128,-1,13
 395 21 395 21 399 41 c 128,-1,14
 403 61 403 61 391 78 c 2,15,-1
 119 472 l 2,16,17
 111 485 111 485 111 500 c 128,-1,18
 111 515 111 515 119 528 c 2,19,-1
 391 922 l 2,0,1
EndSplineSet
EndChar

StartChar: arrow-left_32
Encoding: 59946 59946 75
Width: 375
GlyphClass: 1
Flags: W
LayerCount: 2
Fore
SplineSet
370 951 m 2,0,1
 377 962 377 962 374.5 974.5 c 128,-1,2
 372 987 372 987 361.5 994.5 c 128,-1,3
 351 1002 351 1002 338 999.5 c 128,-1,4
 325 997 325 997 318 986 c 2,5,-1
 11 535 l 2,6,7
 0 519 0 519 0 500 c 128,-1,8
 0 481 0 481 11 465 c 2,9,-1
 318 14 l 2,10,11
 325 3 325 3 338 0.5 c 128,-1,12
 351 -2 351 -2 361.5 5.5 c 128,-1,13
 372 13 372 13 374.5 25.5 c 128,-1,14
 377 38 377 38 370 49 c 2,15,-1
 74 483 l 2,16,17
 69 491 69 491 69 500 c 128,-1,18
 69 509 69 509 74 517 c 2,19,-1
 370 951 l 2,0,1
EndSplineSet
EndChar

StartChar: arrow-left_6
Encoding: 60753 60753 76
Width: 500
GlyphClass: 1
Flags: W
LayerCount: 2
Fore
SplineSet
481 556 m 2,0,1
 500 531 500 531 500 500 c 128,-1,2
 500 469 500 469 481 444 c 2,3,-1
 164 36 l 2,4,5
 141 5 141 5 103.5 0.5 c 128,-1,6
 66 -4 66 -4 35.5 19 c 128,-1,7
 5 42 5 42 0.5 80 c 128,-1,8
 -4 118 -4 118 19 148 c 2,9,-1
 292 500 l 1,10,-1
 19 852 l 2,11,12
 -4 882 -4 882 0.5 920 c 128,-1,13
 5 958 5 958 35.5 981 c 128,-1,14
 66 1004 66 1004 103.5 999.5 c 128,-1,15
 141 995 141 995 164 965 c 2,16,-1
 481 556 l 2,0,1
EndSplineSet
EndChar

StartChar: arrow-left_8
Encoding: 59947 59947 77
Width: 500
GlyphClass: 1
Flags: W
LayerCount: 2
Fore
SplineSet
271 500 m 1,0,-1
 478 194 l 2,1,2
 497 166 497 166 499.5 133 c 128,-1,3
 502 100 502 100 487.5 70 c 128,-1,4
 473 40 473 40 445 21 c 128,-1,5
 417 2 417 2 384 0 c 128,-1,6
 351 -2 351 -2 321 12.5 c 128,-1,7
 291 27 291 27 272 55 c 2,8,-1
 21 425 l 2,9,10
 -3 461 -3 461 0 503 c 0,11,12
 0 542 0 542 22 575 c 2,13,-1
 272 945 l 2,14,15
 291 973 291 973 321 987.5 c 128,-1,16
 351 1002 351 1002 384 1000 c 128,-1,17
 417 998 417 998 445 979 c 128,-1,18
 473 960 473 960 487.5 930 c 128,-1,19
 502 900 502 900 500 867 c 128,-1,20
 498 834 498 834 479 806 c 2,21,-1
 271 500 l 1,0,-1
EndSplineSet
EndChar

StartChar: arrow-right_12
Encoding: 59948 59948 78
Width: 500
GlyphClass: 1
Flags: W
LayerCount: 2
Fore
SplineSet
96 872 m 2,0,1
 84 891 84 891 83 913.5 c 128,-1,2
 82 936 82 936 92 956 c 128,-1,3
 102 976 102 976 121 988 c 128,-1,4
 140 1000 140 1000 162.5 1001 c 128,-1,5
 185 1002 185 1002 205 991.5 c 128,-1,6
 225 981 225 981 237 961 c 2,7,-1
 474 590 l 2,8,9
 500 549 500 549 500 500 c 128,-1,10
 500 451 500 451 474 410 c 2,11,-1
 237 39 l 2,12,13
 218 10 218 10 184.5 2.5 c 128,-1,14
 151 -5 151 -5 122.5 13.5 c 128,-1,15
 94 32 94 32 86 65.5 c 128,-1,16
 78 99 78 99 96 128 c 2,17,-1
 305 455 l 2,18,19
 318 476 318 476 318 500 c 128,-1,20
 318 524 318 524 305 545 c 2,21,-1
 96 872 l 2,0,1
EndSplineSet
EndChar

StartChar: arrow-right_16
Encoding: 59949 59949 79
Width: 375
GlyphClass: 1
Flags: W
LayerCount: 2
Fore
SplineSet
10 872 m 2,0,1
 1 886 1 886 -0.5 903 c 128,-1,2
 -2 920 -2 920 6 935.5 c 128,-1,3
 14 951 14 951 28 960 c 128,-1,4
 42 969 42 969 59 969.5 c 128,-1,5
 76 970 76 970 91 962 c 128,-1,6
 106 954 106 954 115 940 c 2,7,-1
 355 568 l 2,8,9
 375 537 375 537 375 500 c 128,-1,10
 375 463 375 463 355 432 c 2,11,-1
 115 60 l 2,12,13
 101 39 101 39 76 33.5 c 128,-1,14
 51 28 51 28 29.5 42 c 128,-1,15
 8 56 8 56 2.5 81 c 128,-1,16
 -3 106 -3 106 10 128 c 2,17,-1
 228 466 l 2,18,19
 238 482 238 482 238 500 c 128,-1,20
 238 518 238 518 228 534 c 2,21,-1
 10 872 l 2,0,1
EndSplineSet
EndChar

StartChar: arrow-right_20
Encoding: 59950 59950 80
Width: 400
GlyphClass: 1
Flags: W
LayerCount: 2
Fore
SplineSet
9 922 m 2,0,1
 1 933 1 933 0 946 c 128,-1,2
 -1 959 -1 959 5 971.5 c 128,-1,3
 11 984 11 984 22 991.5 c 128,-1,4
 33 999 33 999 46 1000 c 128,-1,5
 59 1001 59 1001 71.5 995 c 128,-1,6
 84 989 84 989 91 978 c 2,7,-1
 382 557 l 2,8,9
 400 531 400 531 400 500 c 128,-1,10
 400 469 400 469 382 443 c 2,11,-1
 91 22 l 2,12,13
 79 5 79 5 59 1 c 128,-1,14
 39 -3 39 -3 22 9 c 128,-1,15
 5 21 5 21 1 41 c 128,-1,16
 -3 61 -3 61 9 78 c 2,17,-1
 281 472 l 2,18,19
 289 485 289 485 289 500 c 128,-1,20
 289 515 289 515 281 528 c 2,21,-1
 9 922 l 2,0,1
EndSplineSet
EndChar

StartChar: arrow-right_32
Encoding: 59951 59951 81
Width: 375
GlyphClass: 1
Flags: W
LayerCount: 2
Fore
SplineSet
5 951 m 2,0,1
 -2 962 -2 962 0.5 974.5 c 128,-1,2
 3 987 3 987 13.5 994.5 c 128,-1,3
 24 1002 24 1002 37 999.5 c 128,-1,4
 50 997 50 997 57 986 c 2,5,-1
 364 535 l 2,6,7
 375 519 375 519 375 500 c 128,-1,8
 375 481 375 481 364 465 c 2,9,-1
 57 14 l 2,10,11
 50 3 50 3 37 0.5 c 128,-1,12
 24 -2 24 -2 13.5 5.5 c 128,-1,13
 3 13 3 13 0.5 25.5 c 128,-1,14
 -2 38 -2 38 5 49 c 2,15,-1
 301 483 l 2,16,17
 306 491 306 491 306 500 c 128,-1,18
 306 509 306 509 301 517 c 2,19,-1
 5 951 l 2,0,1
EndSplineSet
EndChar

StartChar: arrow-right_8
Encoding: 59952 59952 82
Width: 500
GlyphClass: 1
Flags: W
LayerCount: 2
Fore
SplineSet
229 500 m 1,0,-1
 22 806 l 2,1,2
 3 834 3 834 0.5 867 c 128,-1,3
 -2 900 -2 900 12.5 930 c 128,-1,4
 27 960 27 960 55 979 c 128,-1,5
 83 998 83 998 116 1000 c 128,-1,6
 149 1002 149 1002 179 987.5 c 128,-1,7
 209 973 209 973 228 945 c 2,8,-1
 479 575 l 2,9,10
 503 539 503 539 500 497 c 0,11,12
 500 458 500 458 478 425 c 2,13,-1
 228 55 l 2,14,15
 209 27 209 27 179 12.5 c 128,-1,16
 149 -2 149 -2 116 0 c 128,-1,17
 83 2 83 2 55 21 c 128,-1,18
 27 40 27 40 12.5 70 c 128,-1,19
 -2 100 -2 100 0 133 c 128,-1,20
 2 166 2 166 21 194 c 2,21,-1
 229 500 l 1,0,-1
EndSplineSet
EndChar

StartChar: arrow-tail-down-left_20
Encoding: 60754 60754 83
Width: 1000
GlyphClass: 1
Flags: W
LayerCount: 2
Fore
SplineSet
700 125 m 2,0,1
 731 125 731 125 753 147 c 128,-1,2
 775 169 775 169 775 200 c 128,-1,3
 775 231 775 231 753 253 c 128,-1,4
 731 275 731 275 700 275 c 2,5,-1
 381 275 l 1,6,-1
 853 747 l 2,7,8
 874 769 874 769 874 799.5 c 128,-1,9
 874 830 874 830 852 852 c 128,-1,10
 830 874 830 874 799.5 874 c 128,-1,11
 769 874 769 874 747 853 c 2,12,-1
 275 381 l 1,13,-1
 275 700 l 2,14,15
 275 731 275 731 253 753 c 128,-1,16
 231 775 231 775 200 775 c 128,-1,17
 169 775 169 775 147 753 c 128,-1,18
 125 731 125 731 125 700 c 2,19,-1
 125 250 l 2,20,21
 125 216 125 216 142 187.5 c 128,-1,22
 159 159 159 159 187.5 142 c 128,-1,23
 216 125 216 125 250 125 c 2,24,-1
 700 125 l 2,0,1
EndSplineSet
EndChar

StartChar: arrow-tail-down-left_24
Encoding: 59953 59953 84
Width: 1000
GlyphClass: 1
Flags: W
LayerCount: 2
Fore
SplineSet
423 305 m 1,0,-1
 680 305 l 2,1,2
 714 305 714 305 738.5 280.5 c 128,-1,3
 763 256 763 256 763 221.5 c 128,-1,4
 763 187 763 187 738.5 162.5 c 128,-1,5
 714 138 714 138 680 138 c 2,6,-1
 263 138 l 2,7,8
 229 138 229 138 200.5 155 c 128,-1,9
 172 172 172 172 155 200.5 c 128,-1,10
 138 229 138 229 138 263 c 2,11,-1
 138 680 l 2,12,13
 138 702 138 702 149.5 721.5 c 128,-1,14
 161 741 161 741 180 752 c 128,-1,15
 199 763 199 763 221.5 763 c 128,-1,16
 244 763 244 763 263.5 752 c 128,-1,17
 283 741 283 741 294 721.5 c 128,-1,18
 305 702 305 702 305 680 c 2,19,-1
 305 423 l 1,20,-1
 720 837 l 2,21,22
 744 862 744 862 778.5 862 c 128,-1,23
 813 862 813 862 837.5 837.5 c 128,-1,24
 862 813 862 813 862 778.5 c 128,-1,25
 862 744 862 744 837 719 c 2,26,-1
 423 305 l 1,0,-1
EndSplineSet
EndChar

StartChar: arrow-tail-down-right_20
Encoding: 60755 60755 85
Width: 1000
GlyphClass: 1
Flags: W
LayerCount: 2
Fore
SplineSet
875 700 m 2,0,1
 875 731 875 731 853 753 c 128,-1,2
 831 775 831 775 800 775 c 128,-1,3
 769 775 769 775 747 753 c 128,-1,4
 725 731 725 731 725 700 c 2,5,-1
 725 381 l 1,6,-1
 253 853 l 2,7,8
 239 868 239 868 219.5 873.5 c 128,-1,9
 200 879 200 879 180 873.5 c 128,-1,10
 160 868 160 868 146 854 c 128,-1,11
 132 840 132 840 126.5 820 c 128,-1,12
 121 800 121 800 126.5 780.5 c 128,-1,13
 132 761 132 761 147 747 c 2,14,-1
 619 275 l 1,15,-1
 300 275 l 2,16,17
 269 275 269 275 247 253 c 128,-1,18
 225 231 225 231 225 200 c 128,-1,19
 225 169 225 169 247 147 c 128,-1,20
 269 125 269 125 300 125 c 2,21,-1
 750 125 l 2,22,23
 784 125 784 125 812.5 142 c 128,-1,24
 841 159 841 159 858 187.5 c 128,-1,25
 875 216 875 216 875 250 c 2,26,-1
 875 700 l 2,0,1
EndSplineSet
EndChar

StartChar: arrow-tail-down-right_24
Encoding: 59954 59954 86
Width: 1000
GlyphClass: 1
Flags: W
LayerCount: 2
Fore
SplineSet
695 423 m 1,0,-1
 695 680 l 2,1,2
 695 714 695 714 719.5 738.5 c 128,-1,3
 744 763 744 763 778.5 763 c 128,-1,4
 813 763 813 763 837.5 738.5 c 128,-1,5
 862 714 862 714 862 680 c 2,6,-1
 862 263 l 2,7,8
 862 229 862 229 845 200.5 c 128,-1,9
 828 172 828 172 799.5 155 c 128,-1,10
 771 138 771 138 737 138 c 2,11,-1
 320 138 l 2,12,13
 286 138 286 138 261.5 162.5 c 128,-1,14
 237 187 237 187 237 221.5 c 128,-1,15
 237 256 237 256 261.5 280.5 c 128,-1,16
 286 305 286 305 320 305 c 2,17,-1
 577 305 l 1,18,-1
 163 719 l 2,19,20
 138 744 138 744 138 778.5 c 128,-1,21
 138 813 138 813 162.5 837.5 c 128,-1,22
 187 862 187 862 221.5 862 c 128,-1,23
 256 862 256 862 281 837 c 2,24,-1
 695 423 l 1,0,-1
EndSplineSet
EndChar

StartChar: arrow-tail-down_20
Encoding: 60756 60756 87
Width: 1000
GlyphClass: 1
Flags: W
LayerCount: 2
Fore
SplineSet
871 353 m 1,0,1
 887 365 887 365 895 383.5 c 128,-1,2
 903 402 903 402 900 422 c 128,-1,3
 897 442 897 442 885 458 c 128,-1,4
 873 474 873 474 854 481.5 c 128,-1,5
 835 489 835 489 815 486.5 c 128,-1,6
 795 484 795 484 779 471 c 2,7,-1
 575 314 l 1,8,-1
 575 825 l 2,9,10
 575 856 575 856 553 878 c 128,-1,11
 531 900 531 900 500 900 c 128,-1,12
 469 900 469 900 447 878 c 128,-1,13
 425 856 425 856 425 825 c 2,14,-1
 425 314 l 1,15,-1
 221 471 l 2,16,17
 196 490 196 490 165.5 486 c 128,-1,18
 135 482 135 482 116 457.5 c 128,-1,19
 97 433 97 433 101 402 c 128,-1,20
 105 371 105 371 129 352 c 2,21,-1
 424 126 l 2,22,23
 457 100 457 100 500 100 c 128,-1,24
 543 100 543 100 576 126 c 2,25,-1
 871 352 l 1,26,-1
 871 353 l 1,0,1
EndSplineSet
EndChar

StartChar: arrow-tail-down_24
Encoding: 59955 59955 88
Width: 1000
GlyphClass: 1
Flags: W
LayerCount: 2
Fore
SplineSet
583 833 m 2,0,1
 583 856 583 856 572 875 c 128,-1,2
 561 894 561 894 541.5 905.5 c 128,-1,3
 522 917 522 917 500 917 c 128,-1,4
 478 917 478 917 458.5 905.5 c 128,-1,5
 439 894 439 894 428 875 c 128,-1,6
 417 856 417 856 417 833 c 2,7,-1
 417 292 l 1,8,-1
 217 442 l 2,9,10
 189 462 189 462 155 457.5 c 128,-1,11
 121 453 121 453 100 425 c 128,-1,12
 79 397 79 397 84 363 c 128,-1,13
 89 329 89 329 117 308 c 2,14,-1
 425 77 l 2,15,16
 458 52 458 52 500 52 c 128,-1,17
 542 52 542 52 575 77 c 2,18,-1
 883 308 l 2,19,20
 911 329 911 329 916 363 c 128,-1,21
 921 397 921 397 900 425 c 128,-1,22
 879 453 879 453 845 457.5 c 128,-1,23
 811 462 811 462 783 442 c 2,24,-1
 583 292 l 1,25,-1
 583 833 l 2,0,1
EndSplineSet
EndChar

StartChar: arrow-tail-left_20
Encoding: 60757 60757 89
Width: 1000
GlyphClass: 1
Flags: W
LayerCount: 2
Fore
SplineSet
353 129 m 1,0,1
 365 113 365 113 383.5 105 c 128,-1,2
 402 97 402 97 422 100 c 128,-1,3
 442 103 442 103 458 115 c 128,-1,4
 474 127 474 127 481.5 146 c 128,-1,5
 489 165 489 165 486.5 185 c 128,-1,6
 484 205 484 205 471 221 c 2,7,-1
 314 425 l 1,8,-1
 825 425 l 2,9,10
 856 425 856 425 878 447 c 128,-1,11
 900 469 900 469 900 500 c 128,-1,12
 900 531 900 531 878 553 c 128,-1,13
 856 575 856 575 825 575 c 2,14,-1
 314 575 l 1,15,-1
 471 779 l 2,16,17
 490 804 490 804 486 834.5 c 128,-1,18
 482 865 482 865 457.5 884 c 128,-1,19
 433 903 433 903 402 899 c 128,-1,20
 371 895 371 895 352 871 c 2,21,-1
 126 576 l 2,22,23
 100 543 100 543 100 500 c 128,-1,24
 100 457 100 457 126 424 c 2,25,-1
 352 129 l 1,26,-1
 353 129 l 1,0,1
EndSplineSet
EndChar

StartChar: arrow-tail-left_24
Encoding: 59956 59956 90
Width: 1000
GlyphClass: 1
Flags: W
LayerCount: 2
Fore
SplineSet
308 883 m 2,0,1
 329 911 329 911 363 916 c 128,-1,2
 397 921 397 921 425 900 c 128,-1,3
 453 879 453 879 457.5 845 c 128,-1,4
 462 811 462 811 442 783 c 2,5,-1
 292 583 l 1,6,-1
 875 583 l 2,7,8
 910 583 910 583 934 559 c 128,-1,9
 958 535 958 535 958 500 c 128,-1,10
 958 465 958 465 934 441 c 128,-1,11
 910 417 910 417 875 417 c 2,12,-1
 292 417 l 1,13,-1
 442 217 l 2,14,15
 455 199 455 199 457.5 176.5 c 128,-1,16
 460 154 460 154 451.5 133.5 c 128,-1,17
 443 113 443 113 425 100 c 128,-1,18
 407 87 407 87 385 84 c 128,-1,19
 363 81 363 81 342.5 90 c 128,-1,20
 322 99 322 99 308 117 c 2,21,-1
 77 425 l 2,22,23
 52 458 52 458 52 500 c 128,-1,24
 52 542 52 542 77 575 c 2,25,-1
 308 883 l 2,0,1
EndSplineSet
EndChar

StartChar: arrow-tail-right_20
Encoding: 60758 60758 91
Width: 1000
GlyphClass: 1
Flags: W
LayerCount: 2
Fore
SplineSet
648 871 m 2,0,1
 635 887 635 887 616.5 895 c 128,-1,2
 598 903 598 903 577.5 900.5 c 128,-1,3
 557 898 557 898 541 885.5 c 128,-1,4
 525 873 525 873 517.5 854 c 128,-1,5
 510 835 510 835 513 815 c 128,-1,6
 516 795 516 795 529 779 c 2,7,-1
 686 575 l 1,8,-1
 175 575 l 2,9,10
 144 575 144 575 122 553 c 128,-1,11
 100 531 100 531 100 500 c 128,-1,12
 100 469 100 469 122 447 c 128,-1,13
 144 425 144 425 175 425 c 2,14,-1
 686 425 l 1,15,-1
 529 221 l 2,16,17
 510 196 510 196 514 165.5 c 128,-1,18
 518 135 518 135 542.5 116 c 128,-1,19
 567 97 567 97 598 101 c 128,-1,20
 629 105 629 105 648 129 c 2,21,-1
 874 424 l 2,22,23
 900 457 900 457 900 500 c 128,-1,24
 900 543 900 543 874 576 c 2,25,-1
 648 871 l 2,0,1
EndSplineSet
EndChar

StartChar: arrow-tail-right_24
Encoding: 59957 59957 92
Width: 1000
GlyphClass: 1
Flags: W
LayerCount: 2
Fore
SplineSet
692 117 m 2,0,1
 678 99 678 99 657.5 90 c 128,-1,2
 637 81 637 81 615 84 c 128,-1,3
 593 87 593 87 575 100 c 128,-1,4
 557 113 557 113 548.5 133.5 c 128,-1,5
 540 154 540 154 542.5 176.5 c 128,-1,6
 545 199 545 199 558 217 c 2,7,-1
 708 417 l 1,8,-1
 125 417 l 2,9,10
 103 417 103 417 83.5 428 c 128,-1,11
 64 439 64 439 53 458.5 c 128,-1,12
 42 478 42 478 42 500 c 128,-1,13
 42 522 42 522 53 541.5 c 128,-1,14
 64 561 64 561 83.5 572 c 128,-1,15
 103 583 103 583 125 583 c 2,16,-1
 708 583 l 1,17,-1
 558 783 l 2,18,19
 538 811 538 811 542.5 845 c 128,-1,20
 547 879 547 879 575 900 c 128,-1,21
 603 921 603 921 637 916 c 128,-1,22
 671 911 671 911 692 883 c 2,23,-1
 923 575 l 2,24,25
 948 542 948 542 948 500 c 128,-1,26
 948 458 948 458 923 425 c 2,27,-1
 692 117 l 2,0,1
EndSplineSet
EndChar

StartChar: arrow-tail-up-left_20
Encoding: 60759 60759 93
Width: 1000
GlyphClass: 1
Flags: W
LayerCount: 2
Fore
SplineSet
125 300 m 2,0,1
 125 269 125 269 147 247 c 128,-1,2
 169 225 169 225 200 225 c 128,-1,3
 231 225 231 225 253 247 c 128,-1,4
 275 269 275 269 275 300 c 2,5,-1
 275 619 l 1,6,-1
 747 147 l 2,7,8
 769 126 769 126 799.5 126 c 128,-1,9
 830 126 830 126 852 148 c 128,-1,10
 874 170 874 170 874 200.5 c 128,-1,11
 874 231 874 231 853 253 c 2,12,-1
 381 725 l 1,13,-1
 700 725 l 2,14,15
 731 725 731 725 753 747 c 128,-1,16
 775 769 775 769 775 800 c 128,-1,17
 775 831 775 831 753 853 c 128,-1,18
 731 875 731 875 700 875 c 2,19,-1
 250 875 l 2,20,21
 216 875 216 875 187.5 858 c 128,-1,22
 159 841 159 841 142 812.5 c 128,-1,23
 125 784 125 784 125 750 c 2,24,-1
 125 300 l 2,0,1
EndSplineSet
EndChar

StartChar: arrow-tail-up-left_24
Encoding: 59958 59958 94
Width: 1000
GlyphClass: 1
Flags: W
LayerCount: 2
Fore
SplineSet
305 577 m 1,0,-1
 305 320 l 2,1,2
 305 286 305 286 280.5 261.5 c 128,-1,3
 256 237 256 237 221.5 237 c 128,-1,4
 187 237 187 237 162.5 261.5 c 128,-1,5
 138 286 138 286 138 320 c 2,6,-1
 138 737 l 2,7,8
 138 771 138 771 155 799.5 c 128,-1,9
 172 828 172 828 200.5 845 c 128,-1,10
 229 862 229 862 263 862 c 2,11,-1
 680 862 l 2,12,13
 714 862 714 862 738.5 837.5 c 128,-1,14
 763 813 763 813 763 778.5 c 128,-1,15
 763 744 763 744 738.5 719.5 c 128,-1,16
 714 695 714 695 680 695 c 2,17,-1
 423 695 l 1,18,-1
 837 281 l 2,19,20
 853 265 853 265 859 243.5 c 128,-1,21
 865 222 865 222 859 200 c 128,-1,22
 853 178 853 178 837.5 162.5 c 128,-1,23
 822 147 822 147 800 141 c 128,-1,24
 778 135 778 135 756.5 141 c 128,-1,25
 735 147 735 147 719 163 c 2,26,-1
 305 577 l 1,0,-1
EndSplineSet
EndChar

StartChar: arrow-tail-up-right_20
Encoding: 60760 60760 95
Width: 1000
GlyphClass: 1
Flags: W
LayerCount: 2
Fore
SplineSet
300 875 m 2,0,1
 269 875 269 875 247 853 c 128,-1,2
 225 831 225 831 225 800 c 128,-1,3
 225 769 225 769 247 747 c 128,-1,4
 269 725 269 725 300 725 c 2,5,-1
 619 725 l 1,6,-1
 147 253 l 2,7,8
 126 231 126 231 126 200.5 c 128,-1,9
 126 170 126 170 148 148 c 128,-1,10
 170 126 170 126 200.5 126 c 128,-1,11
 231 126 231 126 253 147 c 2,12,-1
 725 619 l 1,13,-1
 725 300 l 2,14,15
 725 269 725 269 747 247 c 128,-1,16
 769 225 769 225 800 225 c 128,-1,17
 831 225 831 225 853 247 c 128,-1,18
 875 269 875 269 875 300 c 2,19,-1
 875 750 l 2,20,21
 875 784 875 784 858 812.5 c 128,-1,22
 841 841 841 841 812.5 858 c 128,-1,23
 784 875 784 875 750 875 c 2,24,-1
 300 875 l 2,0,1
EndSplineSet
EndChar

StartChar: arrow-tail-up-right_24
Encoding: 59959 59959 96
Width: 1000
GlyphClass: 1
Flags: W
LayerCount: 2
Fore
SplineSet
577 695 m 1,0,-1
 320 695 l 2,1,2
 286 695 286 695 261.5 719.5 c 128,-1,3
 237 744 237 744 237 778.5 c 128,-1,4
 237 813 237 813 261.5 837.5 c 128,-1,5
 286 862 286 862 320 862 c 2,6,-1
 737 862 l 2,7,8
 771 862 771 862 799.5 845 c 128,-1,9
 828 828 828 828 845 799.5 c 128,-1,10
 862 771 862 771 862 737 c 2,11,-1
 862 320 l 2,12,13
 862 286 862 286 837.5 261.5 c 128,-1,14
 813 237 813 237 778.5 237 c 128,-1,15
 744 237 744 237 719.5 261.5 c 128,-1,16
 695 286 695 286 695 320 c 2,17,-1
 695 577 l 1,18,-1
 281 163 l 2,19,20
 256 138 256 138 221.5 138 c 128,-1,21
 187 138 187 138 162.5 162.5 c 128,-1,22
 138 187 138 187 138 221.5 c 128,-1,23
 138 256 138 256 163 281 c 2,24,-1
 577 695 l 1,0,-1
EndSplineSet
EndChar

StartChar: arrow-tail-up_20
Encoding: 60761 60761 97
Width: 1000
GlyphClass: 1
Flags: W
LayerCount: 2
Fore
SplineSet
129 648 m 2,0,1
 113 635 113 635 105 616.5 c 128,-1,2
 97 598 97 598 99.5 577.5 c 128,-1,3
 102 557 102 557 114.5 541 c 128,-1,4
 127 525 127 525 146 517.5 c 128,-1,5
 165 510 165 510 185 513 c 128,-1,6
 205 516 205 516 221 529 c 2,7,-1
 425 686 l 1,8,-1
 425 175 l 2,9,10
 425 144 425 144 447 122 c 128,-1,11
 469 100 469 100 500 100 c 128,-1,12
 531 100 531 100 553 122 c 128,-1,13
 575 144 575 144 575 175 c 2,14,-1
 575 686 l 1,15,-1
 779 529 l 2,16,17
 804 510 804 510 834.5 514 c 128,-1,18
 865 518 865 518 884 542.5 c 128,-1,19
 903 567 903 567 899 598 c 128,-1,20
 895 629 895 629 871 648 c 2,21,-1
 576 874 l 2,22,23
 543 900 543 900 500 900 c 128,-1,24
 457 900 457 900 424 874 c 2,25,-1
 129 648 l 2,0,1
EndSplineSet
EndChar

StartChar: arrow-tail-up_24
Encoding: 59960 59960 98
Width: 1000
GlyphClass: 1
Flags: W
LayerCount: 2
Fore
SplineSet
417 135 m 2,0,1
 417 113 417 113 428 93.5 c 128,-1,2
 439 74 439 74 458.5 63 c 128,-1,3
 478 52 478 52 500 52 c 128,-1,4
 522 52 522 52 541.5 63 c 128,-1,5
 561 74 561 74 572 93.5 c 128,-1,6
 583 113 583 113 583 135 c 2,7,-1
 583 677 l 1,8,-1
 783 527 l 2,9,10
 811 506 811 506 845 511 c 128,-1,11
 879 516 879 516 900 543.5 c 128,-1,12
 921 571 921 571 916 605.5 c 128,-1,13
 911 640 911 640 883 660 c 2,14,-1
 575 892 l 2,15,16
 542 917 542 917 500 917 c 128,-1,17
 458 917 458 917 425 892 c 2,18,-1
 117 660 l 2,19,20
 89 640 89 640 84 605.5 c 128,-1,21
 79 571 79 571 100 543.5 c 128,-1,22
 121 516 121 516 155 511 c 128,-1,23
 189 506 189 506 217 527 c 2,24,-1
 417 677 l 1,25,-1
 417 135 l 2,0,1
EndSplineSet
EndChar

StartChar: arrow-up_12
Encoding: 59961 59961 99
Width: 2000
GlyphClass: 1
Flags: W
LayerCount: 2
Fore
SplineSet
256 193 m 2,0,1
 218 168 218 168 173.5 166 c 128,-1,2
 129 164 129 164 89 184.5 c 128,-1,3
 49 205 49 205 24.5 243 c 128,-1,4
 0 281 0 281 -1.5 326 c 128,-1,5
 -3 371 -3 371 18 410.5 c 128,-1,6
 39 450 39 450 77 474 c 2,7,-1
 821 948 l 2,8,9
 903 1000 903 1000 1000 1000 c 128,-1,10
 1097 1000 1097 1000 1179 948 c 2,11,-1
 1923 474 l 2,12,13
 1960 449 1960 449 1980 410 c 128,-1,14
 2000 371 2000 371 1998 327 c 128,-1,15
 1996 283 1996 283 1972 245 c 128,-1,16
 1948 207 1948 207 1909 187 c 128,-1,17
 1870 167 1870 167 1826 168 c 128,-1,18
 1782 169 1782 169 1744 193 c 2,19,-1
 1089 610 l 2,20,21
 1049 636 1049 636 1000 636 c 128,-1,22
 951 636 951 636 910 609 c 2,23,-1
 256 193 l 2,0,1
EndSplineSet
EndChar

StartChar: arrow-up_16
Encoding: 59962 59962 100
Width: 2666
GlyphClass: 1
Flags: W
LayerCount: 2
Fore
SplineSet
340 27 m 2,0,1
 303 1 303 1 258 -1.5 c 128,-1,2
 213 -4 213 -4 172.5 16.5 c 128,-1,3
 132 37 132 37 107.5 75 c 128,-1,4
 83 113 83 113 81 158 c 128,-1,5
 79 203 79 203 100 243 c 128,-1,6
 121 283 121 283 160 307 c 2,7,-1
 1153 947 l 2,8,9
 1235 1000 1235 1000 1333 1000 c 128,-1,10
 1431 1000 1431 1000 1514 947 c 2,11,-1
 2507 307 l 2,12,13
 2545 282 2545 282 2565 242.5 c 128,-1,14
 2585 203 2585 203 2583 159 c 128,-1,15
 2581 115 2581 115 2556.5 77 c 128,-1,16
 2532 39 2532 39 2492.5 18.5 c 128,-1,17
 2453 -2 2453 -2 2408.5 0 c 128,-1,18
 2364 2 2364 2 2326 27 c 2,19,-1
 1423 609 l 2,20,21
 1382 635 1382 635 1333.5 635 c 128,-1,22
 1285 635 1285 635 1244 609 c 2,23,-1
 340 27 l 2,0,1
EndSplineSet
EndChar

StartChar: arrow-up_20
Encoding: 59963 59963 101
Width: 2500
GlyphClass: 1
Flags: W
LayerCount: 2
Fore
SplineSet
196 22 m 2,0,1
 168 3 168 3 135 0.5 c 128,-1,2
 102 -2 102 -2 71.5 12 c 128,-1,3
 41 26 41 26 22 54 c 128,-1,4
 3 82 3 82 0.5 115 c 128,-1,5
 -2 148 -2 148 12 178.5 c 128,-1,6
 26 209 26 209 54 228 c 2,7,-1
 1108 956 l 2,8,9
 1172 1000 1172 1000 1250 1000 c 128,-1,10
 1328 1000 1328 1000 1392 956 c 2,11,-1
 2446 228 l 2,12,13
 2474 209 2474 209 2488 178.5 c 128,-1,14
 2502 148 2502 148 2499.5 115 c 128,-1,15
 2497 82 2497 82 2478 54 c 128,-1,16
 2459 26 2459 26 2428.5 12 c 128,-1,17
 2398 -2 2398 -2 2365 0.5 c 128,-1,18
 2332 3 2332 3 2304 22 c 2,19,-1
 1320 702 l 2,20,21
 1288 723 1288 723 1250 723 c 128,-1,22
 1212 723 1212 723 1181 702 c 2,23,-1
 196 22 l 2,0,1
EndSplineSet
EndChar

StartChar: arrow-up_32
Encoding: 59964 59964 102
Width: 2666
GlyphClass: 1
Flags: W
LayerCount: 2
Fore
SplineSet
130 14 m 2,0,1
 112 2 112 2 89.5 0.5 c 128,-1,2
 67 -1 67 -1 47 8.5 c 128,-1,3
 27 18 27 18 14.5 36.5 c 128,-1,4
 2 55 2 55 0.5 77.5 c 128,-1,5
 -1 100 -1 100 8.5 120 c 128,-1,6
 18 140 18 140 36 152 c 2,7,-1
 1240 971 l 2,8,9
 1282 1000 1282 1000 1333.5 1000 c 128,-1,10
 1385 1000 1385 1000 1427 971 c 2,11,-1
 2630 152 l 2,12,13
 2649 140 2649 140 2658.5 119.5 c 128,-1,14
 2668 99 2668 99 2666.5 77 c 128,-1,15
 2665 55 2665 55 2652.5 36.5 c 128,-1,16
 2640 18 2640 18 2619.5 8 c 128,-1,17
 2599 -2 2599 -2 2577 0 c 128,-1,18
 2555 2 2555 2 2536 14 c 2,19,-1
 1378 803 l 2,20,21
 1358 816 1358 816 1333.5 816 c 128,-1,22
 1309 816 1309 816 1289 803 c 2,23,-1
 130 14 l 2,0,1
EndSplineSet
EndChar

StartChar: arrow-up_6
Encoding: 60748 60748 103
Width: 2000
GlyphClass: 1
Flags: W
LayerCount: 2
Fore
SplineSet
888 962 m 2,0,1
 937 1000 937 1000 1000 1000 c 128,-1,2
 1063 1000 1063 1000 1112 962 c 2,3,-1
 1929 328 l 2,4,5
 1968 298 1968 298 1986.5 252.5 c 128,-1,6
 2005 207 2005 207 1998.5 158.5 c 128,-1,7
 1992 110 1992 110 1961.5 71 c 128,-1,8
 1931 32 1931 32 1886 13.5 c 128,-1,9
 1841 -5 1841 -5 1792.5 1.5 c 128,-1,10
 1744 8 1744 8 1704 38 c 2,11,-1
 1000 585 l 1,12,-1
 296 38 l 2,13,14
 256 8 256 8 207.5 1.5 c 128,-1,15
 159 -5 159 -5 114 13.5 c 128,-1,16
 69 32 69 32 38.5 71 c 128,-1,17
 8 110 8 110 1.5 158.5 c 128,-1,18
 -5 207 -5 207 13.5 252.5 c 128,-1,19
 32 298 32 298 71 328 c 2,20,-1
 888 962 l 2,0,1
EndSplineSet
EndChar

StartChar: arrow-up_8
Encoding: 59965 59965 104
Width: 2000
GlyphClass: 1
Flags: W
LayerCount: 2
Fore
SplineSet
1000 457 m 1,0,-1
 387 43 l 2,1,2
 331 5 331 5 265 1 c 128,-1,3
 199 -3 199 -3 139.5 25.5 c 128,-1,4
 80 54 80 54 42.5 110 c 128,-1,5
 5 166 5 166 0.5 232.5 c 128,-1,6
 -4 299 -4 299 25 358.5 c 128,-1,7
 54 418 54 418 109 456 c 2,8,-1
 851 957 l 2,9,10
 886 981 886 981 925.5 991.5 c 128,-1,11
 965 1002 965 1002 1006 999 c 1,12,13
 1084 1001 1084 1001 1149 957 c 2,14,-1
 1891 455 l 2,15,16
 1946 418 1946 418 1975 358 c 128,-1,17
 2004 298 2004 298 1999.5 232 c 128,-1,18
 1995 166 1995 166 1957.5 110 c 128,-1,19
 1920 54 1920 54 1860.5 25 c 128,-1,20
 1801 -4 1801 -4 1735 0.5 c 128,-1,21
 1669 5 1669 5 1613 43 c 2,22,-1
 1000 457 l 1,0,-1
EndSplineSet
EndChar

StartChar: art_16
Encoding: 59994 59994 105
Width: 1000
GlyphClass: 1
Flags: W
LayerCount: 2
Fore
SplineSet
379 852 m 0,0,1
 399 885 399 885 390.5 923 c 128,-1,2
 382 961 382 961 349 981 c 0,3,4
 327 995 327 995 266 999 c 128,-1,5
 205 1003 205 1003 152 995 c 0,6,7
 93 985 93 985 80 965 c 0,8,9
 70 949 70 949 79 938 c 0,10,11
 86 931 86 931 115 916 c 0,12,13
 151 897 151 897 173 882 c 0,14,15
 213 856 213 856 249 822 c 1,16,17
 282 802 282 802 320 810.5 c 128,-1,18
 358 819 358 819 379 852 c 0,0,1
533 785 m 1,19,-1
 514 814 l 2,20,21
 500 836 500 836 475 841.5 c 128,-1,22
 450 847 450 847 428 833 c 128,-1,23
 406 819 406 819 400.5 793.5 c 128,-1,24
 395 768 395 768 409 746 c 2,25,-1
 635 395 l 1,26,27
 613 375 613 375 606 350.5 c 128,-1,28
 599 326 599 326 610 309 c 0,29,30
 624 286 624 286 658 284.5 c 128,-1,31
 692 283 692 283 726 304 c 128,-1,32
 760 325 760 325 774 356 c 128,-1,33
 788 387 788 387 774 410 c 2,34,-1
 608 668 l 1,35,36
 697 670 697 670 772 622 c 0,37,38
 821 590 821 590 849 547 c 0,39,40
 875 506 875 506 875 469 c 0,41,42
 875 390 875 390 819 313 c 0,43,44
 768 242 768 242 683 189 c 0,45,46
 645 164 645 164 606 149 c 0,47,48
 569 134 569 134 538 128 c 1,49,-1
 537 128 l 2,50,51
 522 125 522 125 514 125 c 0,52,53
 500 124 500 124 490 128 c 1,54,55
 479 145 479 145 478 170 c 0,56,57
 478 189 478 189 486 232 c 1,58,-1
 486 235 l 1,59,60
 496 288 496 288 493 317 c 0,61,62
 488 379 488 379 442 416 c 0,63,64
 408 444 408 444 368 451 c 0,65,66
 333 457 333 457 295 448 c 0,67,68
 266 441 266 441 234 423 c 0,69,70
 215 413 215 413 184 393 c 2,71,-1
 178 389 l 2,72,73
 151 371 151 371 141 366 c 0,74,75
 134 362 134 362 129 360 c 1,76,77
 122 377 122 377 129 401 c 0,78,79
 137 430 137 430 164 466 c 0,80,81
 197 508 197 508 248 545 c 0,82,83
 300 582 300 582 359 604 c 0,84,85
 374 610 374 610 385 623 c 128,-1,86
 396 636 396 636 398.5 652.5 c 128,-1,87
 401 669 401 669 395 684.5 c 128,-1,88
 389 700 389 700 376.5 711 c 128,-1,89
 364 722 364 722 347.5 724.5 c 128,-1,90
 331 727 331 727 315 721 c 0,91,92
 241 694 241 694 175 646.5 c 128,-1,93
 109 599 109 599 65 542 c 0,94,95
 17 481 17 481 4 418 c 0,96,97
 -12 342 -12 342 30 281 c 0,98,99
 55 245 55 245 93 235 c 0,100,101
 125 226 125 226 162 239 c 0,102,103
 181 245 181 245 206 259 c 0,104,105
 221 267 221 267 246 284 c 2,106,-1
 255 290 l 2,107,108
 277 305 277 305 289 311 c 0,109,110
 309 322 309 322 326 327 c 0,111,112
 360 335 360 335 366 308 c 0,113,114
 369 292 369 292 362 254 c 2,115,-1
 361 249 l 2,116,117
 351 195 351 195 353 161 c 0,118,119
 356 100 356 100 389 54 c 0,120,121
 417 15 417 15 470 4 c 0,122,123
 509 -4 509 -4 559 5 c 0,124,125
 604 13 604 13 653 33 c 128,-1,126
 702 53 702 53 749 83 c 0,127,128
 785 105 785 105 817 132 c 1,129,-1
 885 28 l 2,130,131
 899 7 899 7 924.5 1.5 c 128,-1,132
 950 -4 950 -4 971.5 10 c 128,-1,133
 993 24 993 24 998.5 49.5 c 128,-1,134
 1004 75 1004 75 990 97 c 2,135,-1
 907 222 l 1,136,137
 951 277 951 277 974 336 c 0,138,139
 1000 401 1000 401 1000 469 c 0,140,141
 1000 544 1000 544 954 615 c 0,142,143
 911 681 911 681 840 727 c 0,144,145
 774 769 774 769 698 785 c 0,146,147
 615 802 615 802 533 785 c 1,19,-1
EndSplineSet
EndChar

StartChar: art_32
Encoding: 59995 59995 106
Width: 1000
GlyphClass: 1
Flags: W
LayerCount: 2
Fore
SplineSet
78 965 m 0,0,1
 67 959 67 959 63.5 947 c 128,-1,2
 60 935 60 935 65 924 c 128,-1,3
 70 913 70 913 82 909 c 0,4,5
 99 902 99 902 115 890 c 0,6,7
 126 882 126 882 146 865 c 2,8,-1
 167 847 l 2,9,10
 195 824 195 824 221 812 c 0,11,12
 256 797 256 797 297 797 c 0,13,14
 355 797 355 797 383 830 c 0,15,16
 398 847 398 847 400.5 867.5 c 128,-1,17
 403 888 403 888 397 908 c 0,18,19
 384 947 384 947 345 973 c 0,20,21
 303 1000 303 1000 250 1000 c 0,22,23
 146 1000 146 1000 78 965 c 0,0,1
207 895 m 0,24,25
 201 900 201 900 191 908 c 1,26,-1
 191 909 l 1,27,28
 175 922 175 922 167 929 c 1,29,30
 206 938 206 938 250 938 c 0,31,32
 285 938 285 938 310 921 c 0,33,34
 331 907 331 907 337 889.5 c 128,-1,35
 343 872 343 872 327 865 c 0,36,37
 316 859 316 859 297 859 c 0,38,39
 269 859 269 859 246 869 c 0,40,41
 228 877 228 877 207 895 c 0,24,25
811 761 m 0,42,43
 743 782 743 782 660 782 c 0,44,45
 585 782 585 782 516 765 c 1,46,47
 492 796 492 796 453 800 c 128,-1,48
 414 804 414 804 384 780 c 0,49,50
 363 764 363 764 353 740 c 128,-1,51
 343 716 343 716 346.5 690.5 c 128,-1,52
 350 665 350 665 368 644 c 2,53,-1
 620 345 l 2,54,55
 626 337 626 337 635 331 c 1,56,57
 613 320 613 320 594 318 c 0,58,59
 584 318 584 318 581 320 c 128,-1,60
 578 322 578 322 582 330 c 128,-1,61
 586 338 586 338 585.5 346.5 c 128,-1,62
 585 355 585 355 580 362 c 128,-1,63
 575 369 575 369 567.5 372.5 c 128,-1,64
 560 376 560 376 552 375.5 c 128,-1,65
 544 375 544 375 537 370.5 c 128,-1,66
 530 366 530 366 526 358 c 0,67,68
 517 341 517 341 516 324 c 0,69,70
 515 303 515 303 525 286 c 0,71,72
 537 267 537 267 560 260 c 0,73,74
 578 254 578 254 600 256 c 0,75,76
 641 260 641 260 683 286.5 c 128,-1,77
 725 313 725 313 746 349 c 0,78,79
 757 368 757 368 759 387 c 0,80,81
 762 410 762 410 751 429 c 1,82,-1
 749 431 l 2,83,84
 746 436 746 436 743 440 c 2,85,-1
 555 710 l 1,86,87
 613 721 613 721 673 719 c 0,88,89
 739 718 739 718 792 701 c 0,90,91
 859 680 859 680 897 633 c 0,92,93
 938 584 938 584 938 516 c 0,94,95
 938 430 938 430 877 333 c 0,96,97
 820 242 820 242 729 169 c 0,98,99
 641 98 641 98 560 75 c 0,100,101
 521 63 521 63 492 65.5 c 128,-1,102
 463 68 463 68 445 83 c 0,103,104
 421 103 421 103 418 131 c 0,105,106
 417 146 417 146 420 167 c 0,107,108
 423 181 423 181 430 210 c 0,109,110
 439 245 439 245 441 264 c 0,111,112
 445 297 445 297 440 324 c 0,113,114
 433 357 433 357 411 383 c 0,115,116
 373 429 373 429 304 417 c 0,117,118
 280 412 280 412 250 401 c 0,119,120
 230 393 230 393 197 378 c 2,121,-1
 181 371 l 2,122,123
 132 347 132 347 105 341 c 0,124,125
 77 333 77 333 69 343 c 0,126,127
 58 356 58 356 66 381 c 0,128,129
 76 413 76 413 111.5 453.5 c 128,-1,130
 147 494 147 494 199.5 534 c 128,-1,131
 252 574 252 574 311 605 c 0,132,133
 322 610 322 610 326 622.5 c 128,-1,134
 330 635 330 635 324 646.5 c 128,-1,135
 318 658 318 658 306 662 c 128,-1,136
 294 666 294 666 282 660 c 0,137,138
 219 627 219 627 161.5 583.5 c 128,-1,139
 104 540 104 540 64 494 c 0,140,141
 20 444 20 444 6 400 c 0,142,143
 -2 374 -2 374 1 351 c 0,144,145
 3 325 3 325 20 304 c 0,146,147
 53 263 53 263 121 280 c 0,148,149
 150 288 150 288 213 317 c 2,150,-1
 223 321 l 2,151,152
 285 350 285 350 315 355 c 0,153,154
 333 358 333 358 344.5 355 c 128,-1,155
 356 352 356 352 363 343 c 0,156,157
 381 321 381 321 380 289 c 0,158,159
 380 269 380 269 367 216 c 1,160,-1
 367 215 l 1,161,162
 360 188 360 188 358 172 c 0,163,164
 354 147 354 147 356 126 c 0,165,166
 361 71 361 71 406 35 c 0,167,168
 438 8 438 8 486 4 c 0,169,170
 528 0 528 0 577.5 14.5 c 128,-1,171
 627 29 627 29 680 59.5 c 128,-1,172
 733 90 733 90 783 133 c 1,173,-1
 871 26 l 2,174,175
 890 4 890 4 919 1.5 c 128,-1,176
 948 -1 948 -1 971 17 c 128,-1,177
 994 35 994 35 998 64 c 128,-1,178
 1002 93 1002 93 985 117 c 2,179,-1
 889 242 l 1,180,181
 912 270 912 270 930 300 c 0,182,183
 963 353 963 353 981 405 c 0,184,185
 1000 462 1000 462 1000 516 c 0,186,187
 1000 604 1000 604 948 670 c 0,188,189
 897 734 897 734 811 761 c 0,42,43
933 64 m 0,190,191
 930 62 930 62 926 62.5 c 128,-1,192
 922 63 922 63 919 66 c 2,193,-1
 829 175 l 1,194,-1
 847 194 l 1,195,-1
 935 79 l 2,196,197
 938 76 938 76 937.5 71.5 c 128,-1,198
 937 67 937 67 933 64 c 0,190,191
422 731 m 0,199,200
 433 739 433 739 446.5 737.5 c 128,-1,201
 460 736 460 736 468 725 c 2,202,-1
 692 404 l 2,203,204
 696 399 696 399 695 393 c 128,-1,205
 694 387 694 387 689 383 c 128,-1,206
 684 379 684 379 677.5 380 c 128,-1,207
 671 381 671 381 667 385 c 2,208,-1
 415 685 l 2,209,210
 406 695 406 695 408.5 708.5 c 128,-1,211
 411 722 411 722 422 731 c 0,199,200
EndSplineSet
EndChar

StartChar: attach_16
Encoding: 59996 59996 107
Width: 1000
GlyphClass: 1
Flags: W
LayerCount: 2
Fore
SplineSet
349 569 m 1,0,-1
 164 385 l 2,1,2
 137 354 137 354 128 314.5 c 128,-1,3
 119 275 119 275 130.5 236 c 128,-1,4
 142 197 142 197 171.5 168.5 c 128,-1,5
 201 140 201 140 240.5 129.5 c 128,-1,6
 280 119 280 119 319.5 129 c 128,-1,7
 359 139 359 139 389 168 c 2,8,-1
 831 610 l 2,9,10
 861 642 861 642 870.5 683 c 128,-1,11
 880 724 880 724 868 764 c 128,-1,12
 856 804 856 804 825 833 c 0,13,14
 796 860 796 860 758 870 c 128,-1,15
 720 880 720 880 682 871 c 128,-1,16
 644 862 644 862 614 835 c 2,17,-1
 561 781 l 1,18,-1
 560 782 l 1,19,20
 549 768 549 768 532.5 761.5 c 128,-1,21
 516 755 516 755 498.5 758.5 c 128,-1,22
 481 762 481 762 468 774.5 c 128,-1,23
 455 787 455 787 450.5 804 c 128,-1,24
 446 821 446 821 451 838.5 c 128,-1,25
 456 856 456 856 470 867 c 2,26,-1
 513 911 l 2,27,28
 521 919 521 919 528 926 c 2,29,-1
 534 931 l 2,30,31
 587 978 587 978 655.5 993 c 128,-1,32
 724 1008 724 1008 791.5 990.5 c 128,-1,33
 859 973 859 973 910.5 925 c 128,-1,34
 962 877 962 877 984.5 812 c 128,-1,35
 1007 747 1007 747 997.5 678.5 c 128,-1,36
 988 610 988 610 946 554 c 0,37,38
 917 519 917 519 915 517 c 2,39,-1
 463 65 l 1,40,41
 400 13 400 13 318.5 2.5 c 128,-1,42
 237 -8 237 -8 162 27 c 0,43,44
 106 53 106 53 66 100.5 c 128,-1,45
 26 148 26 148 10 208 c 128,-1,46
 -6 268 -6 268 4.5 329.5 c 128,-1,47
 15 391 15 391 51 442 c 2,48,-1
 74 471 l 1,49,-1
 261 658 l 2,50,51
 297 695 297 695 346.5 708 c 128,-1,52
 396 721 396 721 445.5 707 c 128,-1,53
 495 693 495 693 530.5 655.5 c 128,-1,54
 566 618 566 618 577 567.5 c 128,-1,55
 588 517 588 517 572.5 468 c 128,-1,56
 557 419 557 419 518 385 c 2,57,-1
 407 275 l 2,58,59
 396 262 396 262 380 256 c 128,-1,60
 364 250 364 250 347 253.5 c 128,-1,61
 330 257 330 257 317.5 268.5 c 128,-1,62
 305 280 305 280 300 296.5 c 128,-1,63
 295 313 295 313 298.5 329.5 c 128,-1,64
 302 346 302 346 314 358 c 1,65,-1
 314 358 l 1,66,-1
 444 488 l 2,67,68
 459 508 459 508 457 532.5 c 128,-1,69
 455 557 455 557 436.5 573.5 c 128,-1,70
 418 590 418 590 393 589.5 c 128,-1,71
 368 589 368 589 351 571 c 2,72,-1
 349 569 l 1,73,-1
 349 569 l 1,0,-1
EndSplineSet
EndChar

StartChar: attach_20
Encoding: 59997 59997 108
Width: 1000
GlyphClass: 1
Flags: W
LayerCount: 2
Fore
SplineSet
542 921 m 2,0,1
 594 971 594 971 662.5 988 c 128,-1,2
 731 1005 731 1005 799 987 c 128,-1,3
 867 969 867 969 918 918 c 128,-1,4
 969 867 969 867 987 799 c 128,-1,5
 1005 731 1005 731 988 662.5 c 128,-1,6
 971 594 971 594 921 542 c 2,7,-1
 458 79 l 2,8,9
 407 26 407 26 337 6.5 c 128,-1,10
 267 -13 267 -13 197 5.5 c 128,-1,11
 127 24 127 24 75.5 75.5 c 128,-1,12
 24 127 24 127 5.5 197 c 128,-1,13
 -13 267 -13 267 7 337 c 128,-1,14
 27 407 27 407 79 458 c 2,15,-1
 292 671 l 2,16,17
 327 707 327 707 375.5 721 c 128,-1,18
 424 735 424 735 473 722 c 128,-1,19
 522 709 522 709 558 673.5 c 128,-1,20
 594 638 594 638 606.5 588.5 c 128,-1,21
 619 539 619 539 605.5 490.5 c 128,-1,22
 592 442 592 442 555 407 c 2,23,-1
 381 233 l 2,24,25
 366 218 366 218 345.5 218.5 c 128,-1,26
 325 219 325 219 310.5 233.5 c 128,-1,27
 296 248 296 248 296 268.5 c 128,-1,28
 296 289 296 289 310 303 c 2,29,-1
 485 477 l 2,30,31
 502 494 502 494 508.5 516.5 c 128,-1,32
 515 539 515 539 509 562 c 128,-1,33
 503 585 503 585 486 601.5 c 128,-1,34
 469 618 469 618 446.5 624 c 128,-1,35
 424 630 424 630 401 623.5 c 128,-1,36
 378 617 378 617 362 600 c 2,37,-1
 149 388 l 2,38,39
 117 356 117 356 105 312 c 128,-1,40
 93 268 93 268 105 224.5 c 128,-1,41
 117 181 117 181 149 149 c 128,-1,42
 181 117 181 117 224.5 105 c 128,-1,43
 268 93 268 93 312 105 c 128,-1,44
 356 117 356 117 388 149 c 2,45,-1
 851 612 l 2,46,47
 884 645 884 645 895 688.5 c 128,-1,48
 906 732 906 732 895 775.5 c 128,-1,49
 884 819 884 819 851.5 851.5 c 128,-1,50
 819 884 819 884 775.5 895 c 128,-1,51
 732 906 732 906 688.5 895 c 128,-1,52
 645 884 645 884 612 851 c 2,53,-1
 574 813 l 2,54,55
 559 799 559 799 539 799 c 128,-1,56
 519 799 519 799 504.5 813.5 c 128,-1,57
 490 828 490 828 490 848 c 128,-1,58
 490 868 490 868 504 883 c 2,59,-1
 542 921 l 2,0,1
EndSplineSet
EndChar

StartChar: attach_32
Encoding: 59998 59998 109
Width: 1000
GlyphClass: 1
Flags: W
LayerCount: 2
Fore
SplineSet
557 924 m 2,0,1
 607 974 607 974 674 991.5 c 128,-1,2
 741 1009 741 1009 807.5 991.5 c 128,-1,3
 874 974 874 974 924 924 c 0,4,5
 961 888 961 888 980.5 840 c 128,-1,6
 1000 792 1000 792 1000 740.5 c 128,-1,7
 1000 689 1000 689 980.5 641.5 c 128,-1,8
 961 594 961 594 924 557 c 2,9,-1
 442 76 l 2,10,11
 394 25 394 25 326 6 c 128,-1,12
 258 -13 258 -13 190 5 c 128,-1,13
 122 23 122 23 72.5 72.5 c 128,-1,14
 23 122 23 122 5 190 c 128,-1,15
 -13 258 -13 258 6 326 c 128,-1,16
 25 394 25 394 76 442 c 2,17,-1
 297 663 l 2,18,19
 330 697 330 697 375.5 710 c 128,-1,20
 421 723 421 723 466.5 711 c 128,-1,21
 512 699 512 699 545.5 665.5 c 128,-1,22
 579 632 579 632 591 586.5 c 128,-1,23
 603 541 603 541 590 495.5 c 128,-1,24
 577 450 577 450 543 417 c 2,25,-1
 362 236 l 2,26,27
 353 228 353 228 340 228 c 128,-1,28
 327 228 327 228 317.5 237.5 c 128,-1,29
 308 247 308 247 308 260 c 128,-1,30
 308 273 308 273 317 282 c 2,31,-1
 498 463 l 2,32,33
 519 484 519 484 526.5 512 c 128,-1,34
 534 540 534 540 526.5 568.5 c 128,-1,35
 519 597 519 597 498 618 c 128,-1,36
 477 639 477 639 449 646.5 c 128,-1,37
 421 654 421 654 392.5 646.5 c 128,-1,38
 364 639 364 639 343 618 c 2,39,-1
 122 397 l 2,40,41
 84 360 84 360 70 309.5 c 128,-1,42
 56 259 56 259 69.5 208 c 128,-1,43
 83 157 83 157 120 120 c 128,-1,44
 157 83 157 83 208 69.5 c 128,-1,45
 259 56 259 56 309.5 70 c 128,-1,46
 360 84 360 84 397 121 c 2,47,-1
 878 603 l 2,48,49
 915 641 915 641 927 690.5 c 128,-1,50
 939 740 939 740 926 789.5 c 128,-1,51
 913 839 913 839 876 876 c 128,-1,52
 839 913 839 913 789.5 926 c 128,-1,53
 740 939 740 939 690.5 927 c 128,-1,54
 641 915 641 915 603 879 c 2,55,-1
 563 838 l 2,56,57
 553 830 553 830 540 830 c 128,-1,58
 527 830 527 830 518 839 c 128,-1,59
 509 848 509 848 508.5 861 c 128,-1,60
 508 874 508 874 517 884 c 2,61,-1
 557 924 l 2,0,1
EndSplineSet
EndChar

StartChar: attestation_32
Encoding: 59999 59999 110
Width: 1000
GlyphClass: 1
Flags: W
LayerCount: 2
Fore
SplineSet
514 974 m 2,0,-1
 404 999 l 2,1,2
 391 1002 391 1002 377 999 c 2,3,-1
 268 974 l 2,4,5
 246 969 246 969 232.5 952 c 128,-1,6
 219 935 219 935 219 912 c 2,7,-1
 219 874 l 2,8,9
 219 859 219 859 226 845 c 128,-1,10
 233 831 233 831 246 822.5 c 128,-1,11
 259 814 259 814 274.5 812 c 128,-1,12
 290 810 290 810 304 816 c 2,13,-1
 332 827 l 1,14,-1
 433 813 l 2,15,16
 446 811 446 811 456 819 c 128,-1,17
 466 827 466 827 468 839.5 c 128,-1,18
 470 852 470 852 462.5 862.5 c 128,-1,19
 455 873 455 873 442 875 c 2,20,-1
 341 889 l 2,21,22
 324 891 324 891 309 885 c 2,23,-1
 281 874 l 1,24,-1
 281 912 l 1,25,-1
 391 937 l 1,26,-1
 500 912 l 1,27,-1
 500 828 l 2,28,29
 500 773 500 773 486 731 c 0,30,31
 475 697 475 697 455 675 c 0,32,33
 439 657 439 657 419 648 c 0,34,35
 404 641 404 641 390 641 c 128,-1,36
 376 641 376 641 358 649 c 0,37,38
 336 661 336 661 319 684 c 0,39,40
 298 713 298 713 288 757 c 0,41,42
 285 769 285 769 274.5 776 c 128,-1,43
 264 783 264 783 251.5 780 c 128,-1,44
 239 777 239 777 232 766.5 c 128,-1,45
 225 756 225 756 227 743 c 0,46,47
 239 686 239 686 269 646 c 0,48,49
 294 612 294 612 330 594 c 0,50,51
 360 578 360 578 391 578 c 0,52,53
 417 578 417 578 445 591 c 0,54,55
 477 606 477 606 502 634 c 0,56,57
 530 666 530 666 546 712 c 0,58,59
 562 763 562 763 562 828 c 2,60,-1
 562 912 l 2,61,62
 563 934 563 934 549 951.5 c 128,-1,63
 535 969 535 969 514 974 c 2,0,-1
238 543 m 2,64,65
 254 563 254 563 278.5 566.5 c 128,-1,66
 303 570 303 570 324 555 c 2,67,-1
 391 507 l 1,68,-1
 458 555 l 2,69,70
 478 570 478 570 502.5 566.5 c 128,-1,71
 527 563 527 563 543 543 c 2,72,-1
 587 488 l 2,73,74
 595 478 595 478 593.5 465 c 128,-1,75
 592 452 592 452 582 444 c 128,-1,76
 572 436 572 436 559 437.5 c 128,-1,77
 546 439 546 439 538 449 c 2,78,-1
 494 504 l 1,79,-1
 427 456 l 2,80,81
 411 445 411 445 391 445 c 128,-1,82
 371 445 371 445 354 456 c 2,83,-1
 287 504 l 1,84,-1
 243 449 l 2,85,86
 236 441 236 441 226 438 c 2,87,-1
 160 424 l 2,88,89
 134 418 134 418 115 399.5 c 128,-1,90
 96 381 96 381 90 355 c 2,91,-1
 65 258 l 2,92,93
 62 243 62 243 71 231 c 128,-1,94
 80 219 80 219 96 219 c 2,95,-1
 219 219 l 2,96,97
 232 219 232 219 241 209.5 c 128,-1,98
 250 200 250 200 250 187.5 c 128,-1,99
 250 175 250 175 241 165.5 c 128,-1,100
 232 156 232 156 219 156 c 2,101,-1
 94 156 l 2,102,103
 68 156 68 156 46.5 169 c 128,-1,104
 25 182 25 182 12.5 203.5 c 128,-1,105
 0 225 0 225 0 250 c 0,106,107
 0 261 0 261 3 273 c 2,108,-1
 27 370 l 2,109,110
 38 413 38 413 70.5 444 c 128,-1,111
 103 475 103 475 147 485 c 2,112,-1
 201 497 l 1,113,-1
 238 543 l 2,64,65
141 328 m 2,114,115
 128 328 128 328 118.5 319 c 128,-1,116
 109 310 109 310 109 297 c 128,-1,117
 109 284 109 284 118.5 275 c 128,-1,118
 128 266 128 266 141 266 c 2,119,-1
 203 266 l 2,120,121
 216 266 216 266 225 275 c 128,-1,122
 234 284 234 284 234 297 c 128,-1,123
 234 310 234 310 225 319 c 128,-1,124
 216 328 216 328 203 328 c 2,125,-1
 141 328 l 2,114,115
330 136 m 1,126,-1
 375 385 l 2,127,128
 377 398 377 398 369.5 408.5 c 128,-1,129
 362 419 362 419 349 421.5 c 128,-1,130
 336 424 336 424 325.5 416.5 c 128,-1,131
 315 409 315 409 313 396 c 2,132,-1
 266 130 l 2,133,134
 263 114 263 114 275 103 c 2,135,-1
 369 9 l 2,136,137
 378 0 378 0 391 0 c 128,-1,138
 404 0 404 0 413 9 c 2,139,-1
 506 103 l 2,140,141
 518 114 518 114 515 130 c 2,142,-1
 468 396 l 2,143,144
 466 409 466 409 455.5 416.5 c 128,-1,145
 445 424 445 424 432 421.5 c 128,-1,146
 419 419 419 419 411.5 408.5 c 128,-1,147
 404 398 404 398 407 385 c 2,148,-1
 451 136 l 1,149,-1
 391 75 l 1,150,-1
 330 136 l 1,126,-1
918 468 m 1,151,152
 953 464 953 464 976.5 437 c 128,-1,153
 1000 410 1000 410 1000 375 c 2,154,-1
 1000 94 l 2,155,156
 1000 55 1000 55 972.5 27.5 c 128,-1,157
 945 0 945 0 906 0 c 2,158,-1
 688 0 l 2,159,160
 649 0 649 0 621.5 27.5 c 128,-1,161
 594 55 594 55 594 94 c 2,162,-1
 594 375 l 2,163,164
 594 410 594 410 617.5 437 c 128,-1,165
 641 464 641 464 676 468 c 1,166,167
 686 510 686 510 720 536 c 128,-1,168
 754 562 754 562 797 562 c 128,-1,169
 840 562 840 562 874 536 c 128,-1,170
 908 510 908 510 918 468 c 1,151,152
656 375 m 2,171,-1
 656 94 l 2,172,173
 656 81 656 81 665.5 72 c 128,-1,174
 675 63 675 63 687 63 c 2,175,-1
 906 63 l 2,176,177
 919 63 919 63 928.5 72 c 128,-1,178
 938 81 938 81 938 94 c 2,179,-1
 938 375 l 2,180,181
 938 388 938 388 928.5 397 c 128,-1,182
 919 406 919 406 906 406 c 2,183,-1
 891 406 l 2,184,185
 878 406 878 406 868.5 415.5 c 128,-1,186
 859 425 859 425 859 438 c 0,187,188
 859 463 859 463 841 481.5 c 128,-1,189
 823 500 823 500 797 500 c 128,-1,190
 771 500 771 500 752.5 481.5 c 128,-1,191
 734 463 734 463 734 437 c 0,192,193
 734 425 734 425 725 415.5 c 128,-1,194
 716 406 716 406 703 406 c 2,195,-1
 688 406 l 2,196,197
 675 406 675 406 665.5 397 c 128,-1,198
 656 388 656 388 656 375 c 2,171,-1
797 406 m 256,199,200
 810 406 810 406 819 415.5 c 128,-1,201
 828 425 828 425 828 437.5 c 128,-1,202
 828 450 828 450 819 459.5 c 128,-1,203
 810 469 810 469 797 469 c 128,-1,204
 784 469 784 469 775 459.5 c 128,-1,205
 766 450 766 450 766 437.5 c 128,-1,206
 766 425 766 425 775 415.5 c 128,-1,207
 784 406 784 406 797 406 c 256,199,200
894 322 m 0,208,209
 904 314 904 314 906 301 c 128,-1,210
 908 288 908 288 900 278 c 2,211,-1
 806 153 l 2,212,213
 798 142 798 142 783.5 141 c 128,-1,214
 769 140 769 140 759 150 c 2,215,-1
 697 212 l 2,216,217
 688 221 688 221 688 234 c 128,-1,218
 688 247 688 247 697 256 c 128,-1,219
 706 265 706 265 719 265 c 128,-1,220
 732 265 732 265 741 256 c 2,221,-1
 778 219 l 1,222,-1
 850 316 l 2,223,224
 858 326 858 326 870.5 328 c 128,-1,225
 883 330 883 330 894 322 c 0,208,209
EndSplineSet
EndChar

StartChar: attestation_56
Encoding: 60000 60000 111
Width: 1000
GlyphClass: 1
Flags: W
LayerCount: 2
Fore
SplineSet
277 917 m 1,0,-1
 277 858 l 1,1,-1
 296 870 l 2,2,3
 322 887 322 887 353 883 c 2,4,-1
 460 866 l 2,5,6
 475 863 475 863 480.5 848.5 c 128,-1,7
 486 834 486 834 476 822 c 128,-1,8
 466 810 466 810 451 813 c 2,9,-1
 345 830 l 2,10,11
 334 831 334 831 326 826 c 2,12,-1
 292 804 l 2,13,14
 278 794 278 794 261.5 796.5 c 128,-1,15
 245 799 245 799 234 811.5 c 128,-1,16
 223 824 223 824 223 841 c 2,17,-1
 223 924 l 2,18,19
 223 939 223 939 232.5 951 c 128,-1,20
 242 963 242 963 257 967 c 2,21,-1
 382 999 l 2,22,23
 393 1001 393 1001 404 999 c 2,24,-1
 529 967 l 2,25,26
 544 963 544 963 553.5 951 c 128,-1,27
 563 939 563 939 562 924 c 2,28,-1
 562 830 l 2,29,30
 563 745 563 745 533 684 c 0,31,32
 508 633 508 633 466 604 c 0,33,34
 429 580 429 580 393 580 c 0,35,36
 364 580 364 580 334 596 c 0,37,38
 299 615 299 615 274 649 c 0,39,40
 245 688 245 688 233 744 c 0,41,42
 230 755 230 755 236 764.5 c 128,-1,43
 242 774 242 774 253 776.5 c 128,-1,44
 264 779 264 779 273.5 772.5 c 128,-1,45
 283 766 283 766 285 756 c 0,46,47
 295 711 295 711 317 681 c 0,48,49
 335 656 335 656 359 644 c 0,50,51
 377 634 377 634 393 634 c 0,52,53
 412 634 412 634 436 649 c 0,54,55
 467 669 467 669 485 708 c 0,56,57
 509 757 509 757 509 830 c 2,58,-1
 509 917 l 1,59,-1
 393 946 l 1,60,-1
 277 917 l 1,0,-1
246 548 m 2,61,62
 256 562 256 562 273 565 c 128,-1,63
 290 568 290 568 305 559 c 2,64,-1
 393 505 l 1,65,-1
 481 559 l 2,66,67
 496 568 496 568 513 565 c 128,-1,68
 530 562 530 562 540 548 c 2,69,-1
 584 489 l 2,70,71
 591 480 591 480 589 469 c 128,-1,72
 587 458 587 458 578.5 451.5 c 128,-1,73
 570 445 570 445 559 446.5 c 128,-1,74
 548 448 548 448 541 457 c 2,75,-1
 502 509 l 1,76,-1
 416 456 l 2,77,78
 406 450 406 450 393 450 c 128,-1,79
 380 450 380 450 369 456 c 2,80,-1
 284 509 l 1,81,-1
 245 457 l 2,82,83
 239 450 239 450 230 447 c 2,84,-1
 127 422 l 2,85,86
 115 419 115 419 106.5 410.5 c 128,-1,87
 98 402 98 402 95 390 c 2,88,-1
 55 248 l 2,89,90
 52 235 52 235 60 224.5 c 128,-1,91
 68 214 68 214 81 214 c 2,92,-1
 223 214 l 2,93,94
 239 214 239 214 246.5 200.5 c 128,-1,95
 254 187 254 187 246.5 174 c 128,-1,96
 239 161 239 161 223 161 c 2,97,-1
 81 161 l 2,98,99
 47 161 47 161 23.5 184.5 c 128,-1,100
 0 208 0 208 0 241 c 0,101,102
 0 250 0 250 4 263 c 2,103,-1
 43 405 l 2,104,105
 51 430 51 430 69.5 448.5 c 128,-1,106
 88 467 88 467 114 474 c 2,107,-1
 208 497 l 1,108,-1
 246 548 l 2,61,62
143 330 m 2,109,110
 132 330 132 330 124 322.5 c 128,-1,111
 116 315 116 315 116 303.5 c 128,-1,112
 116 292 116 292 124 284.5 c 128,-1,113
 132 277 132 277 143 277 c 2,114,-1
 214 277 l 2,115,116
 225 277 225 277 233 284.5 c 128,-1,117
 241 292 241 292 241 303.5 c 128,-1,118
 241 315 241 315 233 322.5 c 128,-1,119
 225 330 225 330 214 330 c 2,120,-1
 143 330 l 2,109,110
374 388 m 2,121,-1
 324 133 l 1,122,-1
 393 58 l 1,123,-1
 462 133 l 1,124,-1
 411 388 l 2,125,126
 409 398 409 398 415 407.5 c 128,-1,127
 421 417 421 417 432 419 c 128,-1,128
 443 421 443 421 452.5 415 c 128,-1,129
 462 409 462 409 464 398 c 2,130,-1
 516 139 l 2,131,132
 520 117 520 117 505 100 c 2,133,-1
 426 14 l 2,134,135
 412 0 412 0 392.5 0 c 128,-1,136
 373 0 373 0 360 14 c 2,137,-1
 281 100 l 2,138,139
 266 117 266 117 270 139 c 2,140,-1
 322 398 l 2,141,142
 324 409 324 409 333.5 415 c 128,-1,143
 343 421 343 421 353.5 419 c 128,-1,144
 364 417 364 417 370.5 407.5 c 128,-1,145
 377 398 377 398 374 388 c 2,121,-1
920 464 m 2,146,-1
 909 464 l 1,147,148
 903 503 903 503 873 528 c 128,-1,149
 843 553 843 553 803.5 553 c 128,-1,150
 764 553 764 553 734 528 c 128,-1,151
 704 503 704 503 698 464 c 1,152,-1
 688 464 l 2,153,154
 654 464 654 464 630.5 440.5 c 128,-1,155
 607 417 607 417 607 384 c 2,156,-1
 607 80 l 2,157,158
 607 47 607 47 630.5 23.5 c 128,-1,159
 654 0 654 0 687 0 c 2,160,-1
 920 0 l 2,161,162
 953 0 953 0 976.5 23.5 c 128,-1,163
 1000 47 1000 47 1000 80 c 2,164,-1
 1000 384 l 2,165,166
 1000 417 1000 417 976.5 440.5 c 128,-1,167
 953 464 953 464 920 464 c 2,146,-1
661 80 m 2,168,-1
 661 384 l 2,169,170
 661 395 661 395 668.5 403 c 128,-1,171
 676 411 676 411 688 411 c 2,172,-1
 723 411 l 2,173,174
 734 411 734 411 742 418.5 c 128,-1,175
 750 426 750 426 750 438 c 2,176,-1
 750 446 l 2,177,178
 750 469 750 469 765.5 484.5 c 128,-1,179
 781 500 781 500 803.5 500 c 128,-1,180
 826 500 826 500 841.5 484.5 c 128,-1,181
 857 469 857 469 857 446 c 2,182,-1
 857 438 l 2,183,184
 857 426 857 426 865 418.5 c 128,-1,185
 873 411 873 411 884 411 c 2,186,-1
 920 411 l 2,187,188
 931 411 931 411 938.5 403 c 128,-1,189
 946 395 946 395 946 384 c 2,190,-1
 946 80 l 2,191,192
 946 69 946 69 938.5 61.5 c 128,-1,193
 931 54 931 54 920 54 c 2,194,-1
 688 54 l 2,195,196
 676 54 676 54 668.5 61.5 c 128,-1,197
 661 69 661 69 661 80 c 2,168,-1
804 473 m 256,198,199
 791 473 791 473 781.5 464 c 128,-1,200
 772 455 772 455 772 442 c 128,-1,201
 772 429 772 429 781.5 420 c 128,-1,202
 791 411 791 411 804 411 c 128,-1,203
 817 411 817 411 826 420 c 128,-1,204
 835 429 835 429 835 442 c 128,-1,205
 835 455 835 455 826 464 c 128,-1,206
 817 473 817 473 804 473 c 256,198,199
903 276 m 2,207,208
 910 284 910 284 910 294.5 c 128,-1,209
 910 305 910 305 902.5 313 c 128,-1,210
 895 321 895 321 884 321 c 128,-1,211
 873 321 873 321 865 314 c 2,212,-1
 777 225 l 1,213,-1
 742 260 l 2,214,215
 734 267 734 267 723 267 c 128,-1,216
 712 267 712 267 704.5 259.5 c 128,-1,217
 697 252 697 252 697 241 c 128,-1,218
 697 230 697 230 704 222 c 2,219,-1
 758 169 l 2,220,221
 766 161 766 161 777 161 c 128,-1,222
 788 161 788 161 796 169 c 2,223,-1
 903 276 l 2,207,208
EndSplineSet
EndChar

StartChar: attractions_32
Encoding: 60001 60001 112
Width: 1000
GlyphClass: 1
Flags: W
LayerCount: 2
Fore
SplineSet
524 988 m 2,0,1
 515 1000 515 1000 500 1000 c 128,-1,2
 485 1000 485 1000 476 988 c 2,3,-1
 226 676 l 2,4,5
 219 667 219 667 219 656 c 2,6,-1
 219 594 l 1,7,-1
 125 594 l 2,8,9
 99 594 99 594 81 575.5 c 128,-1,10
 63 557 63 557 63 531 c 2,11,-1
 63 429 l 2,12,13
 63 415 63 415 69 402 c 2,14,-1
 144 246 l 1,15,-1
 144 63 l 2,16,17
 144 37 144 37 162 18.5 c 128,-1,18
 180 0 180 0 206 0 c 2,19,-1
 406 0 l 2,20,21
 419 0 419 0 428.5 9 c 128,-1,22
 438 18 438 18 438 31 c 2,23,-1
 438 112 l 2,24,25
 438 122 438 122 443 136 c 128,-1,26
 448 150 448 150 458 162 c 0,27,28
 478 188 478 188 500 188 c 0,29,30
 510 188 510 188 520.5 181 c 128,-1,31
 531 174 531 174 541.5 161 c 128,-1,32
 552 148 552 148 557.5 134.5 c 128,-1,33
 563 121 563 121 563 112 c 2,34,-1
 563 31 l 2,35,36
 563 18 563 18 572 9 c 128,-1,37
 581 0 581 0 594 0 c 2,38,-1
 794 0 l 2,39,40
 820 0 820 0 838 18.5 c 128,-1,41
 856 37 856 37 856 63 c 2,42,-1
 856 246 l 1,43,-1
 931 402 l 2,44,45
 937 415 937 415 938 429 c 2,46,-1
 938 531 l 2,47,48
 937 557 937 557 919 575.5 c 128,-1,49
 901 594 901 594 875 594 c 2,50,-1
 781 594 l 1,51,-1
 781 656 l 2,52,53
 781 668 781 668 774 676 c 2,54,-1
 524 988 l 2,0,1
794 246 m 2,55,-1
 794 63 l 1,56,-1
 625 63 l 1,57,-1
 625 94 l 1,58,-1
 719 94 l 2,59,60
 732 94 732 94 741 103 c 128,-1,61
 750 112 750 112 750 125 c 128,-1,62
 750 138 750 138 741 147 c 128,-1,63
 732 156 732 156 719 156 c 2,64,-1
 616 156 l 1,65,66
 606 180 606 180 591 199 c 0,67,68
 574 221 574 221 553 234 c 0,69,70
 527 250 527 250 500 250 c 128,-1,71
 473 250 473 250 448 235 c 0,72,73
 426 223 426 223 410 202.5 c 128,-1,74
 394 182 394 182 384.5 158 c 128,-1,75
 375 134 375 134 375 112 c 2,76,-1
 375 63 l 1,77,-1
 206 63 l 1,78,-1
 206 94 l 1,79,-1
 313 94 l 2,80,81
 325 94 325 94 334.5 103 c 128,-1,82
 344 112 344 112 344 125 c 128,-1,83
 344 138 344 138 334.5 147 c 128,-1,84
 325 156 325 156 312 156 c 2,85,-1
 206 156 l 1,86,-1
 206 246 l 2,87,88
 206 260 206 260 200 273 c 2,89,-1
 125 429 l 1,90,-1
 125 531 l 1,91,-1
 219 531 l 1,92,93
 219 518 219 518 228 509 c 128,-1,94
 237 500 237 500 250 500 c 128,-1,95
 263 500 263 500 272 509 c 128,-1,96
 281 518 281 518 281 531 c 1,97,-1
 344 531 l 1,98,99
 344 518 344 518 353 509 c 128,-1,100
 362 500 362 500 375 500 c 128,-1,101
 388 500 388 500 397 509 c 128,-1,102
 406 518 406 518 406 531 c 1,103,-1
 469 531 l 1,104,105
 469 518 469 518 478 509 c 128,-1,106
 487 500 487 500 500 500 c 128,-1,107
 513 500 513 500 522 509 c 128,-1,108
 531 518 531 518 531 531 c 1,109,-1
 594 531 l 1,110,111
 594 518 594 518 603 509 c 128,-1,112
 612 500 612 500 625 500 c 128,-1,113
 638 500 638 500 647 509 c 128,-1,114
 656 518 656 518 656 531 c 2,115,-1
 656 563 l 2,116,117
 656 575 656 575 647 584.5 c 128,-1,118
 638 594 638 594 625 594 c 2,119,-1
 281 594 l 1,120,-1
 281 625 l 1,121,-1
 719 625 l 1,122,-1
 719 531 l 2,123,124
 719 518 719 518 728 509 c 128,-1,125
 737 500 737 500 750 500 c 128,-1,126
 763 500 763 500 772 509 c 128,-1,127
 781 518 781 518 781 531 c 1,128,-1
 875 531 l 1,129,-1
 875 429 l 1,130,-1
 800 273 l 2,131,132
 794 260 794 260 794 246 c 2,55,-1
531 688 m 1,133,-1
 469 688 l 1,134,-1
 469 719 l 2,135,136
 469 732 469 732 459.5 741 c 128,-1,137
 450 750 450 750 437.5 750 c 128,-1,138
 425 750 425 750 415.5 741 c 128,-1,139
 406 732 406 732 406 719 c 2,140,-1
 406 688 l 1,141,-1
 315 688 l 1,142,-1
 500 919 l 1,143,-1
 685 688 l 1,144,-1
 594 688 l 1,145,-1
 594 719 l 2,146,147
 594 732 594 732 584.5 741 c 128,-1,148
 575 750 575 750 562.5 750 c 128,-1,149
 550 750 550 750 540.5 741 c 128,-1,150
 531 732 531 732 531 719 c 2,151,-1
 531 688 l 1,133,-1
781 406 m 2,152,153
 781 419 781 419 772 428.5 c 128,-1,154
 763 438 763 438 750 438 c 128,-1,155
 737 438 737 438 728 428.5 c 128,-1,156
 719 419 719 419 719 406 c 2,157,-1
 719 344 l 2,158,159
 719 331 719 331 728 322 c 128,-1,160
 737 313 737 313 750 313 c 128,-1,161
 763 313 763 313 772 322 c 128,-1,162
 781 331 781 331 781 344 c 2,163,-1
 781 406 l 2,152,153
656 406 m 2,164,-1
 656 344 l 2,165,166
 656 331 656 331 647 322 c 128,-1,167
 638 313 638 313 625 313 c 128,-1,168
 612 313 612 313 603 322 c 128,-1,169
 594 331 594 331 594 344 c 2,170,-1
 594 406 l 2,171,172
 594 419 594 419 603 428.5 c 128,-1,173
 612 438 612 438 625 438 c 128,-1,174
 638 438 638 438 647 428.5 c 128,-1,175
 656 419 656 419 656 406 c 2,164,-1
531 406 m 2,176,177
 531 419 531 419 522 428.5 c 128,-1,178
 513 438 513 438 500 438 c 128,-1,179
 487 438 487 438 478 428.5 c 128,-1,180
 469 419 469 419 469 406 c 2,181,-1
 469 344 l 2,182,183
 469 331 469 331 478 322 c 128,-1,184
 487 313 487 313 500 313 c 128,-1,185
 513 313 513 313 522 322 c 128,-1,186
 531 331 531 331 531 344 c 2,187,-1
 531 406 l 2,176,177
406 406 m 2,188,189
 406 419 406 419 397 428.5 c 128,-1,190
 388 438 388 438 375 438 c 128,-1,191
 362 438 362 438 353 428.5 c 128,-1,192
 344 419 344 419 344 406 c 2,193,-1
 344 344 l 2,194,195
 344 331 344 331 353 322 c 128,-1,196
 362 313 362 313 375 313 c 128,-1,197
 388 313 388 313 397 322 c 128,-1,198
 406 331 406 331 406 344 c 2,199,-1
 406 406 l 2,188,189
250 438 m 256,200,201
 263 438 263 438 272 428.5 c 128,-1,202
 281 419 281 419 281 406 c 2,203,-1
 281 344 l 2,204,205
 281 331 281 331 272 322 c 128,-1,206
 263 313 263 313 250 313 c 128,-1,207
 237 313 237 313 228 322 c 128,-1,208
 219 331 219 331 219 344 c 2,209,-1
 219 406 l 2,210,211
 219 419 219 419 228 428.5 c 128,-1,212
 237 438 237 438 250 438 c 256,200,201
EndSplineSet
EndChar

StartChar: at_16
Encoding: 60002 60002 113
Width: 1000
GlyphClass: 1
Flags: W
LayerCount: 2
Fore
SplineSet
125 500 m 256,0,1
 125 398 125 398 176 311 c 0,2,3
 226 226 226 226 311 176 c 0,4,5
 398 125 398 125 500 125 c 0,6,7
 526 125 526 125 544.5 106.5 c 128,-1,8
 563 88 563 88 563 62.5 c 128,-1,9
 563 37 563 37 544.5 18.5 c 128,-1,10
 526 0 526 0 500 0 c 0,11,12
 398 0 398 0 305 39 c 0,13,14
 216 77 216 77 146.5 146.5 c 128,-1,15
 77 216 77 216 39 305 c 0,16,17
 0 398 0 398 0 500 c 128,-1,18
 0 602 0 602 39 695 c 0,19,20
 77 784 77 784 146.5 853.5 c 128,-1,21
 216 923 216 923 305 961 c 0,22,23
 398 1000 398 1000 500 1000 c 128,-1,24
 602 1000 602 1000 695 961 c 0,25,26
 784 923 784 923 853.5 853.5 c 128,-1,27
 923 784 923 784 961 695 c 0,28,29
 1000 602 1000 602 1000 500 c 0,30,31
 1000 435 1000 435 977 381 c 0,32,33
 955 329 955 329 915 295.5 c 128,-1,34
 875 262 875 262 826 253 c 0,35,36
 788 246 788 246 751 255.5 c 128,-1,37
 714 265 714 265 685 289 c 0,38,39
 673 299 673 299 663 310 c 1,40,41
 617 271 617 271 558 257 c 128,-1,42
 499 243 499 243 440.5 257 c 128,-1,43
 382 271 382 271 336 311.5 c 128,-1,44
 290 352 290 352 268 408 c 128,-1,45
 246 464 246 464 251.5 524 c 128,-1,46
 257 584 257 584 290 635.5 c 128,-1,47
 323 687 323 687 375.5 717 c 128,-1,48
 428 747 428 747 488 750 c 128,-1,49
 548 753 548 753 604 727.5 c 128,-1,50
 660 702 660 702 697 654.5 c 128,-1,51
 734 607 734 607 745.5 548 c 128,-1,52
 757 489 757 489 740 430 c 1,53,54
 748 399 748 399 764.5 385.5 c 128,-1,55
 781 372 781 372 803 376 c 0,56,57
 819 379 819 379 834 391 c 0,58,59
 852 406 852 406 862 431 c 0,60,61
 875 460 875 460 875 500 c 0,62,63
 875 602 875 602 824 689 c 0,64,65
 774 774 774 774 689 824 c 0,66,67
 602 875 602 875 500 875 c 128,-1,68
 398 875 398 875 311 824 c 0,69,70
 226 774 226 774 176 689 c 0,71,72
 125 602 125 602 125 500 c 256,0,1
375 500 m 256,73,74
 375 466 375 466 392 437.5 c 128,-1,75
 409 409 409 409 437.5 392 c 128,-1,76
 466 375 466 375 500 375 c 128,-1,77
 534 375 534 375 562.5 392 c 128,-1,78
 591 409 591 409 608 437.5 c 128,-1,79
 625 466 625 466 625 500 c 128,-1,80
 625 534 625 534 608 562.5 c 128,-1,81
 591 591 591 591 562.5 608 c 128,-1,82
 534 625 534 625 500 625 c 128,-1,83
 466 625 466 625 437.5 608 c 128,-1,84
 409 591 409 591 392 562.5 c 128,-1,85
 375 534 375 534 375 500 c 256,73,74
EndSplineSet
EndChar

StartChar: auditor_16
Encoding: 60003 60003 114
Width: 1000
GlyphClass: 1
Flags: W
LayerCount: 2
Fore
SplineSet
156 875 m 2,0,1
 143 875 143 875 134 866 c 128,-1,2
 125 857 125 857 125 844 c 2,3,-1
 125 156 l 2,4,5
 125 143 125 143 134 134 c 128,-1,6
 143 125 143 125 156 125 c 2,7,-1
 469 125 l 2,8,9
 495 125 495 125 513 106.5 c 128,-1,10
 531 88 531 88 531 62.5 c 128,-1,11
 531 37 531 37 513 18.5 c 128,-1,12
 495 0 495 0 469 0 c 2,13,-1
 156 0 l 2,14,15
 114 0 114 0 78 21 c 128,-1,16
 42 42 42 42 21 78 c 128,-1,17
 0 114 0 114 0 156 c 2,18,-1
 0 844 l 2,19,20
 0 886 0 886 21 922 c 128,-1,21
 42 958 42 958 78 979 c 128,-1,22
 114 1000 114 1000 156 1000 c 2,23,-1
 290 1000 l 2,24,25
 327 1000 327 1000 360 984 c 2,26,-1
 446 941 l 2,27,28
 452 938 452 938 460 938 c 2,29,-1
 594 938 l 2,30,31
 636 938 636 938 672 916.5 c 128,-1,32
 708 895 708 895 729 859.5 c 128,-1,33
 750 824 750 824 750 781 c 2,34,-1
 750 553 l 1,35,36
 799 539 799 539 836.5 504 c 128,-1,37
 874 469 874 469 892 421.5 c 128,-1,38
 910 374 910 374 905 323 c 128,-1,39
 900 272 900 272 874 229 c 1,40,-1
 984 104 l 2,41,42
 1001 85 1001 85 999 59.5 c 128,-1,43
 997 34 997 34 978 17 c 128,-1,44
 959 0 959 0 933.5 1 c 128,-1,45
 908 2 908 2 891 21 c 2,46,-1
 780 146 l 1,47,48
 724 120 724 120 663.5 127 c 128,-1,49
 603 134 603 134 554.5 171.5 c 128,-1,50
 506 209 506 209 484 266.5 c 128,-1,51
 462 324 462 324 473 384 c 128,-1,52
 484 444 484 444 525 490 c 128,-1,53
 566 536 566 536 625 553 c 1,54,-1
 625 781 l 2,55,56
 625 794 625 794 616 803.5 c 128,-1,57
 607 813 607 813 594 812 c 2,58,-1
 460 812 l 2,59,60
 423 813 423 813 390 829 c 2,61,-1
 304 872 l 2,62,63
 298 875 298 875 290 875 c 2,64,-1
 156 875 l 2,0,1
688 438 m 0,65,66
 649 437 649 437 621.5 410 c 128,-1,67
 594 383 594 383 594 344 c 128,-1,68
 594 305 594 305 621.5 277.5 c 128,-1,69
 649 250 649 250 687.5 250 c 128,-1,70
 726 250 726 250 753.5 277.5 c 128,-1,71
 781 305 781 305 781 344 c 128,-1,72
 781 383 781 383 753.5 410.5 c 128,-1,73
 726 438 726 438 688 438 c 0,65,66
188 500 m 256,74,75
 188 526 188 526 206 544.5 c 128,-1,76
 224 563 224 563 250 563 c 2,77,-1
 375 563 l 2,78,79
 401 563 401 563 419 544.5 c 128,-1,80
 437 526 437 526 437.5 500 c 128,-1,81
 438 474 438 474 419.5 456 c 128,-1,82
 401 438 401 438 375 438 c 2,83,-1
 250 438 l 2,84,85
 224 437 224 437 206 455.5 c 128,-1,86
 188 474 188 474 188 500 c 256,74,75
188 688 m 0,87,88
 188 713 188 713 206 731.5 c 128,-1,89
 224 750 224 750 250 750 c 2,90,-1
 500 750 l 2,91,92
 526 750 526 750 544.5 731.5 c 128,-1,93
 563 713 563 713 562.5 687.5 c 128,-1,94
 562 662 562 662 544 643.5 c 128,-1,95
 526 625 526 625 500 625 c 2,96,-1
 250 625 l 2,97,98
 224 625 224 625 206 643.5 c 128,-1,99
 188 662 188 662 188 688 c 0,87,88
EndSplineSet
EndChar

StartChar: auditor_32
Encoding: 60004 60004 115
Width: 1000
GlyphClass: 1
Flags: W
LayerCount: 2
Fore
SplineSet
668 59 m 0,0,1
 674 48 674 48 670.5 35.5 c 128,-1,2
 667 23 667 23 656 17 c 0,3,4
 627 0 627 0 594 0 c 2,5,-1
 125 0 l 2,6,7
 91 0 91 0 62.5 17 c 128,-1,8
 34 34 34 34 17 62.5 c 128,-1,9
 0 91 0 91 0 125 c 2,10,-1
 0 875 l 2,11,12
 0 909 0 909 17 937.5 c 128,-1,13
 34 966 34 966 62.5 983 c 128,-1,14
 91 1000 91 1000 125 1000 c 2,15,-1
 255 1000 l 2,16,17
 290 1000 290 1000 320 982 c 2,18,-1
 431 915 l 2,19,20
 446 906 446 906 463 906 c 2,21,-1
 594 906 l 2,22,23
 607 906 607 906 616 897 c 128,-1,24
 625 888 625 888 625 875 c 128,-1,25
 625 862 625 862 616 853 c 128,-1,26
 607 844 607 844 594 844 c 2,27,-1
 463 844 l 2,28,29
 429 844 429 844 399 862 c 2,30,-1
 287 929 l 2,31,32
 273 937 273 937 255 937 c 2,33,-1
 125 937 l 2,34,35
 99 938 99 938 81 919.5 c 128,-1,36
 63 901 63 901 63 875 c 2,37,-1
 63 125 l 2,38,39
 62 99 62 99 80.5 81 c 128,-1,40
 99 63 99 63 125 63 c 2,41,-1
 594 63 l 2,42,43
 610 63 610 63 625 71 c 0,44,45
 636 77 636 77 648.5 74 c 128,-1,46
 661 71 661 71 668 59 c 0,0,1
563 719 m 0,47,48
 562 732 562 732 553 741 c 128,-1,49
 544 750 544 750 531 750 c 2,50,-1
 188 750 l 2,51,52
 175 750 175 750 165.5 741 c 128,-1,53
 156 732 156 732 156 719 c 128,-1,54
 156 706 156 706 165.5 696.5 c 128,-1,55
 175 687 175 687 188 687 c 2,56,-1
 531 687 l 2,57,58
 544 688 544 688 553.5 697 c 128,-1,59
 563 706 563 706 563 719 c 0,47,48
469 594 m 256,60,61
 469 607 469 607 459.5 616 c 128,-1,62
 450 625 450 625 437 625 c 2,63,-1
 188 625 l 2,64,65
 175 625 175 625 165.5 616 c 128,-1,66
 156 607 156 607 156 594 c 128,-1,67
 156 581 156 581 165.5 571.5 c 128,-1,68
 175 562 175 562 188 562 c 2,69,-1
 438 562 l 2,70,71
 450 562 450 562 459.5 571.5 c 128,-1,72
 469 581 469 581 469 594 c 256,60,61
188 500 m 2,73,74
 175 500 175 500 165.5 491 c 128,-1,75
 156 482 156 482 156 469 c 128,-1,76
 156 456 156 456 165.5 446.5 c 128,-1,77
 175 437 175 437 188 437 c 2,78,-1
 344 437 l 2,79,80
 357 438 357 438 366 447 c 128,-1,81
 375 456 375 456 375 469 c 128,-1,82
 375 482 375 482 366 491 c 128,-1,83
 357 500 357 500 344 500 c 2,84,-1
 188 500 l 2,73,74
991 9 m 256,85,86
 982 0 982 0 969 0 c 128,-1,87
 956 0 956 0 947 9 c 2,88,-1
 823 133 l 1,89,90
 769 94 769 94 703 94 c 0,91,92
 652 94 652 94 608 117.5 c 128,-1,93
 564 141 564 141 535.5 182 c 128,-1,94
 507 223 507 223 501 273.5 c 128,-1,95
 495 324 495 324 513.5 370.5 c 128,-1,96
 532 417 532 417 569.5 450 c 128,-1,97
 607 483 607 483 656 494 c 1,98,-1
 656 875 l 2,99,100
 656 901 656 901 638 919.5 c 128,-1,101
 620 938 620 938 594 938 c 2,102,-1
 469 938 l 2,103,104
 456 938 456 938 446.5 947 c 128,-1,105
 437 956 437 956 437.5 969 c 128,-1,106
 438 982 438 982 447 991 c 128,-1,107
 456 1000 456 1000 469 1000 c 2,108,-1
 594 1000 l 2,109,110
 628 1000 628 1000 656.5 983 c 128,-1,111
 685 966 685 966 702 937.5 c 128,-1,112
 719 909 719 909 719 875 c 2,113,-1
 719 499 l 1,114,115
 771 495 771 495 813.5 467 c 128,-1,116
 856 439 856 439 881 394 c 128,-1,117
 906 349 906 349 906 297 c 0,118,119
 906 231 906 231 867 177 c 1,120,-1
 991 53 l 2,121,122
 1000 44 1000 44 1000 31 c 128,-1,123
 1000 18 1000 18 991 9 c 256,85,86
703 156 m 256,124,125
 741 156 741 156 773.5 175 c 128,-1,126
 806 194 806 194 825 226.5 c 128,-1,127
 844 259 844 259 844 297 c 128,-1,128
 844 335 844 335 825 367.5 c 128,-1,129
 806 400 806 400 773.5 418.5 c 128,-1,130
 741 437 741 437 703 437.5 c 128,-1,131
 665 438 665 438 632.5 419 c 128,-1,132
 600 400 600 400 581.5 367.5 c 128,-1,133
 563 335 563 335 563 297 c 128,-1,134
 563 259 563 259 581.5 226.5 c 128,-1,135
 600 194 600 194 632.5 175 c 128,-1,136
 665 156 665 156 703 156 c 256,124,125
EndSplineSet
EndChar

StartChar: available-environment_16
Encoding: 60005 60005 116
Width: 1000
GlyphClass: 1
Flags: W
LayerCount: 2
Fore
SplineSet
563 906 m 256,0,1
 563 867 563 867 535.5 840 c 128,-1,2
 508 813 508 813 469 813 c 128,-1,3
 430 813 430 813 402.5 840 c 128,-1,4
 375 867 375 867 375 906 c 128,-1,5
 375 945 375 945 402.5 972.5 c 128,-1,6
 430 1000 430 1000 469 1000 c 128,-1,7
 508 1000 508 1000 535.5 972.5 c 128,-1,8
 563 945 563 945 563 906 c 256,0,1
438 781 m 0,9,10
 463 781 463 781 481.5 763 c 128,-1,11
 500 745 500 745 500 719 c 2,12,-1
 500 688 l 1,13,-1
 625 688 l 2,14,15
 651 688 651 688 669 669.5 c 128,-1,16
 687 651 687 651 687.5 625 c 128,-1,17
 688 599 688 599 669.5 581 c 128,-1,18
 651 563 651 563 625 563 c 2,19,-1
 500 563 l 1,20,-1
 500 500 l 1,21,-1
 656 500 l 2,22,23
 671 500 671 500 684 493.5 c 128,-1,24
 697 487 697 487 706 475 c 2,25,-1
 757 408 l 1,26,-1
 768 419 l 2,27,28
 780 431 780 431 796.5 436 c 128,-1,29
 813 441 813 441 829 436.5 c 128,-1,30
 845 432 845 432 857 420 c 128,-1,31
 869 408 869 408 873.5 391.5 c 128,-1,32
 878 375 878 375 873.5 359 c 128,-1,33
 869 343 869 343 857 331 c 2,34,-1
 794 268 l 2,35,36
 774 248 774 248 745.5 250 c 128,-1,37
 717 252 717 252 700 275 c 2,38,-1
 625 375 l 1,39,-1
 438 375 l 2,40,41
 412 375 412 375 393.5 393.5 c 128,-1,42
 375 412 375 412 375 438 c 2,43,-1
 375 719 l 2,44,45
 375 745 375 745 393.5 763 c 128,-1,46
 412 781 412 781 438 781 c 0,9,10
334 597 m 0,47,48
 348 575 348 575 342.5 549.5 c 128,-1,49
 337 524 337 524 315 510 c 0,50,51
 285 491 285 491 267.5 459.5 c 128,-1,52
 250 428 250 428 250 391 c 128,-1,53
 250 354 250 354 269.5 321.5 c 128,-1,54
 289 289 289 289 323 269.5 c 128,-1,55
 357 250 357 250 398 250 c 0,56,57
 432 250 432 250 462.5 264 c 128,-1,58
 493 278 493 278 514 304 c 0,59,60
 525 317 525 317 541 323 c 128,-1,61
 557 329 557 329 573.5 326.5 c 128,-1,62
 590 324 590 324 603.5 313 c 128,-1,63
 617 302 617 302 622.5 286 c 128,-1,64
 628 270 628 270 625 253 c 128,-1,65
 622 236 622 236 611.5 224 c 128,-1,66
 601 212 601 212 589 201 c 1,67,-1
 951 124 l 2,68,69
 976 118 976 118 990 96.5 c 128,-1,70
 1004 75 1004 75 998.5 49.5 c 128,-1,71
 993 24 993 24 971.5 10 c 128,-1,72
 950 -4 950 -4 924 1 c 2,73,-1
 49 189 l 2,74,75
 24 194 24 194 10 216 c 128,-1,76
 -4 238 -4 238 1.5 263 c 128,-1,77
 7 288 7 288 28.5 302.5 c 128,-1,78
 50 317 50 317 76 311 c 2,79,-1
 143 297 l 1,80,81
 125 343 125 343 125 392 c 0,82,83
 125 461 125 461 159 521 c 0,84,85
 191 578 191 578 247 615 c 0,86,87
 269 629 269 629 294.5 623.5 c 128,-1,88
 320 618 320 618 334 597 c 0,47,48
EndSplineSet
EndChar

